<?xml version="1.0" standalone="no"?>
<!DOCTYPE svg PUBLIC "-//W3C//DTD SVG 1.1//EN" "http://www.w3.org/Graphics/SVG/1.1/DTD/svg11.dtd" >
<svg xmlns="http://www.w3.org/2000/svg" xmlns:xlink="http://www.w3.org/1999/xlink" version="1.1">
<metadata>
Created by FontForge 20170731 at Mon May  7 09:20:23 2007
 By ,,,
N/A
</metadata>
<defs>
<font id="PragmaticaC-Oblique" horiz-adv-x="600" >
  <font-face 
    font-family="PragmaticaC"
    font-weight="500"
    font-style="oblique"
    font-stretch="normal"
    units-per-em="1000"
    panose-1="0 0 0 0 0 0 0 0 0 0"
    ascent="800"
    descent="-200"
    x-height="508"
    cap-height="700"
    bbox="-107 -224 1224 904"
    underline-thickness="50"
    underline-position="-200"
    slope="-12"
    unicode-range="U+0020-00FF"
  />
<missing-glyph horiz-adv-x="233" 
 />
    <glyph glyph-name=".notdef" horiz-adv-x="233" 
 />
    <glyph glyph-name=".null" horiz-adv-x="0" 
 />
    <glyph glyph-name="nonmarkingreturn" horiz-adv-x="333" 
 />
    <glyph glyph-name="space" unicode=" " horiz-adv-x="233" 
 />
    <glyph glyph-name="exclam" unicode="!" horiz-adv-x="310" 
d="M200 700h99l-57 -269l-73 -230h-49l23 230zM52 0l24 109h99l-24 -109h-99z" />
    <glyph glyph-name="quotedbl" unicode="&#x22;" horiz-adv-x="420" 
d="M280 700l-80 -192h-53v192h133zM467 700l-80 -192h-53v192h133z" />
    <glyph glyph-name="numbersign" unicode="#" horiz-adv-x="701" 
d="M457 10h-68l26 168h-143l-26 -168h-68l26 168h-134l13 85h134l28 179h-134l13 85h134l26 167h68l-26 -167h143l26 167h68l-26 -167h134l-13 -85h-134l-28 -179h134l-13 -85h-134zM428 263l28 179h-143l-28 -179h143z" />
    <glyph glyph-name="dollar" unicode="$" horiz-adv-x="610" 
d="M42 208h91q-3 -14 -3 -27q0 -38 12 -65t31.5 -38.5t36 -16t34.5 -4.5l57 266q-88 28 -133.5 66.5t-45.5 114.5q0 36 12.5 69.5t40.5 65t81 52.5t125 23l14 65h53l-14 -65q30 0 56 -6.5t51.5 -21.5t40.5 -44.5t15 -71.5q0 -20 -3 -40h-86q2 14 2 21q0 42 -24.5 68.5
t-65.5 25.5l-53 -246q184 -40 184 -184q0 -89 -73.5 -157t-197.5 -70l-17 -81h-53l17 81q-58 2 -97.5 19.5t-57.5 45t-25 52t-7 52.5q0 34 2 51zM349 314l-55 -257q65 -1 114.5 43t49.5 103q0 89 -109 111zM319 408l50 237q-35 1 -63 -8.5t-44.5 -24.5t-27.5 -34.5t-15 -36
t-4 -31.5q0 -34 28 -61.5t76 -40.5z" />
    <glyph glyph-name="percent" unicode="%" horiz-adv-x="915" 
d="M135 0l603 700h79l-603 -700h-79zM97 508q18 99 76 149.5t119 50.5q12 0 25.5 -1.5t35.5 -10.5t38.5 -24t29 -45.5t12.5 -71.5q0 -26 -6.5 -57t-22 -65t-37.5 -61.5t-57 -45.5t-77 -18q-141 0 -141 153q0 22 5 47zM162 508q-5 -20 -5 -37q0 -68 25 -93q20 -17 49 -17
q63 0 100 61.5t37 122.5q0 58 -21.5 84t-53.5 26q-42 0 -78.5 -38t-52.5 -109zM525 192q7 31 19.5 62t34.5 64t58.5 53.5t81.5 20.5q70 0 106 -39.5t36 -113.5q0 -117 -65 -182t-136 -65q-13 0 -26 1.5t-35 10.5t-38.5 24t-29 45.5t-12.5 71.5q0 17 6 47zM590 192
q-6 -24 -6 -37q0 -110 74 -110q51 0 94.5 52.5t43.5 131.5q0 20 -1.5 33.5t-8 34t-23 31.5t-42.5 11q-50 0 -83.5 -41.5t-47.5 -105.5z" />
    <glyph glyph-name="ampersand" unicode="&#x26;" horiz-adv-x="688" 
d="M554 306h79q-38 -104 -91 -166l88 -140h-105l-47 75q-90 -92 -229 -92q-54 0 -94.5 16t-61 42t-29.5 51.5t-9 50.5q0 98 57 157.5t165 104.5q-23 42 -31.5 66.5t-8.5 54.5q0 80 54 127t130 47q62 0 100 -27t38 -81q0 -130 -170 -207l115 -182q29 43 50 103zM442 135
l-131 213q-82 -31 -123 -79.5t-41 -103.5q0 -13 3.5 -27t14 -34t35.5 -32.5t62 -12.5q51 0 99 19.5t81 56.5zM358 438q51 18 85.5 54.5t34.5 81.5q0 25 -12 39.5t-23 17.5t-24 3q-19 0 -39.5 -7.5t-39.5 -31t-19 -59.5q0 -49 37 -98z" />
    <glyph glyph-name="quotesingle" unicode="'" horiz-adv-x="233" 
d="M280 700l-80 -192h-53v192h133z" />
    <glyph glyph-name="parenleft" unicode="(" horiz-adv-x="381" 
d="M243 700h79q-233 -323 -233 -593q0 -148 46 -292h-72q-73 173 -73 292q0 157 64.5 299t188.5 294z" />
    <glyph glyph-name="parenright" unicode=")" horiz-adv-x="381" 
d="M177 700h72q73 -173 73 -292q0 -157 -64.5 -299t-188.5 -294h-79q233 323 233 593q0 148 -46 292z" />
    <glyph glyph-name="asterisk" unicode="*" horiz-adv-x="466" 
d="M296 511l-97 -98l-36 35l93 96l-118 58l22 44l119 -58l19 131l49 -4l-18 -130l133 26l10 -49l-132 -26l60 -109l-43 -23z" />
    <glyph glyph-name="plus" unicode="+" 
d="M63 386h219v219h62v-219h219v-62h-219v-219h-62v219h-219v62z" />
    <glyph glyph-name="comma" unicode="," horiz-adv-x="318" 
d="M51 0l23 109h99l-24 -114q-12 -59 -37.5 -91.5t-91.5 -51.5l11 55q55 10 69 88l1 5h-50z" />
    <glyph glyph-name="hyphenminus" unicode="-" horiz-adv-x="426" 
d="M73 225l18 85h264l-18 -85h-264z" />
    <glyph glyph-name="period" unicode="." horiz-adv-x="319" 
d="M52 0l23 109h99l-23 -109h-99z" />
    <glyph glyph-name="slash" unicode="/" horiz-adv-x="420" 
d="M-91 -185l545 885h63l-545 -885h-63z" />
    <glyph glyph-name="zero" unicode="0" horiz-adv-x="593" 
d="M250 -21q-18 0 -33.5 1.5t-48.5 15.5t-55.5 38.5t-41 77t-18.5 124.5q0 132 40 242t115.5 176.5t171.5 66.5q200 0 200 -257q0 -78 -19 -159t-56.5 -156t-104 -122.5t-150.5 -47.5zM260 58q55 0 99.5 42.5t70 108t39 135.5t13.5 133q0 165 -112 165q-64 0 -115 -59
t-77.5 -153t-26.5 -204q0 -168 109 -168z" />
    <glyph glyph-name="one" unicode="1" horiz-adv-x="587" 
d="M189 526l10 49h19q60 0 116 31t77 94h68l-151 -700h-94l112 526h-157z" />
    <glyph glyph-name="two" unicode="2" horiz-adv-x="583" 
d="M494 75l-16 -75h-473q7 52 26.5 93.5t50.5 73.5t56 50.5t63 42.5q27 16 78.5 44t82 47t65 47.5t51 63.5t16.5 78q0 51 -32.5 76.5t-88.5 25.5q-13 0 -26.5 -1.5t-39 -11t-45.5 -25.5t-39 -49t-26 -78h-96q10 56 30 99.5t47.5 68.5t54.5 42t58 23.5t48.5 8.5t36.5 2
q216 0 216 -163q0 -28 -5.5 -53.5t-13 -46.5t-22 -42t-26.5 -36t-33.5 -32.5t-35.5 -28t-39 -26t-38 -23t-39.5 -21.5t-36.5 -20q-75 -42 -116 -77t-62 -77h369z" />
    <glyph glyph-name="three" unicode="3" horiz-adv-x="588" 
d="M27 213h91q-7 -26 -2.5 -53.5t17 -50t42.5 -37t74 -14.5q88 0 135 49.5t47 115.5q0 23 -6.5 40.5t-13.5 28t-23.5 18.5t-25.5 11t-30.5 5t-27.5 2h-27h-26l15 75h28q13 0 26.5 1t43.5 8t51.5 20t39 41t17.5 67q0 102 -119 102q-59 0 -103 -32.5t-66 -122.5h-89
q7 55 27 98t48.5 67t55.5 39.5t58.5 21t45 7t26.5 1.5q62 0 106.5 -14.5t66.5 -39t31.5 -49t9.5 -51.5q0 -73 -44.5 -128.5t-108.5 -68.5l-1 -5q113 -28 113 -131q0 -26 -7.5 -56.5t-27 -66.5t-49 -64.5t-80 -48t-112.5 -19.5q-16 0 -29 0.5t-32 2.5t-33.5 6t-33 10.5
t-31 15.5t-27 22t-22 30t-15.5 38.5t-7 48.5t4 60z" />
    <glyph glyph-name="four" unicode="4" horiz-adv-x="583" 
d="M342 161h-329l16 81l413 458h102l-97 -460h103l-16 -79h-103l-35 -161h-89zM125 240h233l74 347z" />
    <glyph glyph-name="five" unicode="5" horiz-adv-x="581" 
d="M28 179h91v-15q0 -49 34.5 -77.5t92.5 -28.5q49 0 86 17t57.5 41t33 55t16 54.5t3.5 44.5q0 53 -35 86.5t-103 33.5q-80 0 -137 -59h-88l128 369h378l-16 -79h-309l-71 -202q68 50 153 50q93 0 145.5 -53.5t52.5 -144.5q0 -60 -16 -108t-39.5 -77.5t-56.5 -51.5
t-60.5 -32t-59.5 -16t-45 -6.5t-24 -0.5q-212 0 -212 166q0 23 1 34z" />
    <glyph glyph-name="six" unicode="6" horiz-adv-x="586" 
d="M594 546h-85q-2 37 -28.5 66.5t-93.5 29.5q-29 0 -56.5 -9.5t-60.5 -34.5t-61.5 -79t-45.5 -133h4q67 79 180 79q88 0 142 -50t54 -143q0 -36 -7 -72.5t-26 -77t-49 -71.5t-80.5 -51.5t-115.5 -20.5q-25 0 -44.5 2t-55 14.5t-59.5 35.5t-42.5 71t-18.5 114q0 35 6 80
t19.5 104.5t40.5 114t64 102t95 76t128 28.5q22 0 40 -1.5t48.5 -11.5t52 -27t38 -52t17.5 -83zM146 221q-3 -21 -3 -42q0 -54 35.5 -87.5t99.5 -33.5q57 0 96.5 33t55 78t15.5 96q0 121 -125 121q-74 0 -119 -49.5t-55 -115.5z" />
    <glyph glyph-name="seven" unicode="7" horiz-adv-x="579" 
d="M107 621l17 79h497l-13 -64q-150 -133 -261 -314q-96 -157 -145 -322h-100q41 147 146 316q104 165 255 305h-396z" />
    <glyph glyph-name="eight" unicode="8" horiz-adv-x="586" 
d="M266 -21q-69 0 -117.5 17t-73 46t-34.5 60t-10 67q0 51 18.5 91.5t48.5 64.5t55.5 37.5t52.5 21.5q-76 32 -76 124q0 90 68.5 151.5t179.5 61.5q57 0 98 -16t61 -42.5t29 -53t9 -55.5q0 -20 -5.5 -41.5t-19 -48.5t-43 -51t-71.5 -38q48 -13 74.5 -55t26.5 -97
q0 -115 -77.5 -179.5t-193.5 -64.5zM261 58q49 0 86 18.5t55.5 47.5t27.5 56.5t9 51.5q0 44 -28.5 74.5t-98.5 30.5q-77 0 -130 -42.5t-53 -112.5q0 -37 14 -63.5t36 -38.5t42 -17t40 -5zM328 412q65 0 111.5 39t46.5 95q0 39 -25 67.5t-92 28.5q-72 0 -111 -42t-39 -92
q0 -41 26.5 -68.5t82.5 -27.5z" />
    <glyph glyph-name="nine" unicode="9" horiz-adv-x="586" 
d="M32 152h85q2 -40 31.5 -67t90.5 -27q50 0 90.5 24.5t66 65.5t41 80t25.5 84h-4q-61 -78 -168 -78q-100 0 -154.5 52t-54.5 140q0 26 4 53.5t14.5 62.5t31 65.5t49.5 56.5t75.5 41.5t104.5 15.5q18 0 31 -0.5t38 -5t43 -13t40 -25.5t36 -41t23.5 -61.5t9.5 -85.5
q0 -30 -3 -66.5t-13 -87.5t-25.5 -98t-43 -95t-63 -83.5t-89 -57.5t-117.5 -22q-191 0 -195 173zM480 477q3 21 3 42q0 56 -35.5 89.5t-99.5 33.5q-52 0 -88.5 -23.5t-52.5 -60.5t-22 -67t-6 -58q0 -120 127 -120q74 0 118.5 48.5t55.5 115.5z" />
    <glyph glyph-name="colon" unicode=":" horiz-adv-x="313" 
d="M136 399l23 109h99l-23 -109h-99zM52 0l23 109h99l-23 -109h-99z" />
    <glyph glyph-name="semicolon" unicode=";" horiz-adv-x="312" 
d="M135 399l23 109h99l-23 -109h-99zM51 0l23 109h99l-24 -114q-12 -59 -37.5 -91.5t-91.5 -51.5l11 55q55 10 69 88l1 5h-50z" />
    <glyph glyph-name="less" unicode="&#x3c;" horiz-adv-x="669" 
d="M149 342l449 -255l-30 -54l-495 285v48l495 285l30 -54z" />
    <glyph glyph-name="equal" unicode="=" 
d="M63 476h500v-62h-500v62zM63 276h500v-62h-500v62z" />
    <glyph glyph-name="greater" unicode="&#x3e;" horiz-adv-x="669" 
d="M546 342l-449 255l30 54l495 -285v-48l-495 -285l-30 54z" />
    <glyph glyph-name="question" unicode="?" horiz-adv-x="551" 
d="M166 0l24 109h99l-24 -109h-99zM190 489h-87q16 101 77.5 164.5t182.5 63.5q26 0 49 -2.5t51.5 -12t49 -25t34.5 -44t14 -66.5q0 -66 -35 -113t-109 -99q-38 -27 -53.5 -39t-38 -43.5t-29.5 -69.5h-73q9 102 109 177q4 3 22.5 16.5t24.5 18t22 18t22.5 21.5t18 21.5
t16 25t8.5 26.5t4 30q0 88 -110 88q-141 0 -170 -156z" />
    <glyph glyph-name="at" unicode="@" horiz-adv-x="863" 
d="M601 82l29 -53q-85 -50 -186 -50q-160 0 -265.5 98.5t-105.5 273.5q0 162 107 266t264 104q92 0 164.5 -28.5t117 -78t67.5 -111.5t23 -132q0 -86 -49.5 -155t-132.5 -69q-66 0 -89 48q-28 -54 -122 -54q-80 0 -126.5 53.5t-46.5 143.5q0 85 45 141t121 56q84 0 118 -55
h3v41h76v-252q0 -35 10 -46.5t28 -11.5q50 0 76 49t26 111q0 138 -87.5 216t-221.5 78q-138 0 -223 -92.5t-85 -221.5q0 -79 27.5 -141.5t72.5 -99t98.5 -55.5t109.5 -19q86 0 157 46zM530 337q0 61 -24 96.5t-72 35.5q-51 0 -75.5 -37.5t-24.5 -94.5q0 -32 7 -59
t30.5 -49.5t61.5 -22.5q29 0 49.5 12.5t30 34t13.5 41.5t4 43z" />
    <glyph glyph-name="A" unicode="A" horiz-adv-x="630" 
d="M155 181l-105 -181h-98l406 700h102l116 -700h-97l-28 181h-296zM197 260h245l-50 345z" />
    <glyph glyph-name="B" unicode="B" horiz-adv-x="693" 
d="M179 700h295q60 0 100.5 -15t57.5 -40t23 -45t6 -41q0 -64 -36.5 -116.5t-99.5 -75.5v-3q103 -24 103 -141q0 -23 -5 -47.5t-23.5 -57.5t-48.5 -58t-86.5 -42.5t-130.5 -17.5h-303zM257 621l-46 -218h189q76 0 119.5 37t43.5 94q0 42 -26.5 64.5t-94.5 22.5h-185z
M194 324l-52 -245h195q97 0 145 40.5t48 105.5q0 20 -4.5 35t-18 30.5t-43.5 24.5t-75 9h-195z" />
    <glyph glyph-name="C" unicode="C" horiz-adv-x="715" 
d="M575 232h98q-6 -21 -15 -42t-25.5 -52.5t-42.5 -57.5t-59.5 -50t-82.5 -37.5t-106 -13.5q-20 0 -38 1t-48.5 7t-55.5 16.5t-53 31t-47.5 48.5t-32 71t-12.5 97q0 204 113 337t286 133q28 0 54 -2t67 -13.5t70.5 -30.5t51.5 -57.5t22 -90.5q0 -22 -3 -43h-95q2 10 2 29
q0 21 -7 41t-24 41t-53 34t-88 13q-66 0 -119.5 -28t-85.5 -70t-53 -94.5t-29 -97.5t-8 -84q0 -56 18.5 -101.5t64.5 -77t114 -31.5q91 0 146 51t76 123z" />
    <glyph glyph-name="D" unicode="D" horiz-adv-x="718" 
d="M180 700h244q34 0 64 -3.5t72.5 -19.5t72.5 -43t51.5 -80t21.5 -125q0 -83 -18 -150.5t-46 -111t-69 -76t-79.5 -49.5t-85 -27t-77.5 -12.5t-66 -2.5h-234zM257 621l-115 -542h137q38 0 74.5 6t84.5 27.5t83 56.5t59.5 101t24.5 153q0 198 -197 198h-151z" />
    <glyph glyph-name="E" unicode="E" horiz-adv-x="608" 
d="M210 401h367l-17 -79h-366l-52 -243h416l-16 -79h-511l149 700h499l-17 -79h-405z" />
    <glyph glyph-name="F" unicode="F" horiz-adv-x="563" 
d="M208 393h330l-17 -79h-329l-67 -314h-94l149 700h470l-18 -79h-375z" />
    <glyph glyph-name="G" unicode="G" horiz-adv-x="743" 
d="M421 365h287l-79 -365h-72l19 92h-2q-53 -63 -107 -88t-137 -25q-136 0 -205.5 77.5t-69.5 224.5q0 54 12 110.5t43 116.5t77 106.5t120.5 76.5t167.5 30q73 0 125.5 -19t79 -50.5t38 -63.5t11.5 -66q0 -19 -1 -29h-98q1 10 1 29q0 52 -42.5 86t-121.5 34
q-56 0 -103 -16.5t-78 -42t-55.5 -60.5t-38 -69t-22 -69t-11.5 -59.5t-3 -42.5q0 -69 19.5 -116.5t52 -69.5t63.5 -30.5t67 -8.5q86 0 151 54t95 174h-200z" />
    <glyph glyph-name="H" unicode="H" horiz-adv-x="709" 
d="M195 329l-70 -329h-94l149 700h94l-62 -292h351l62 292h94l-149 -700h-94l70 329h-351z" />
    <glyph glyph-name="I" unicode="I" horiz-adv-x="264" 
d="M180 700h94l-149 -700h-94z" />
    <glyph glyph-name="J" unicode="J" horiz-adv-x="517" 
d="M18 232h96q-14 -56 -14 -80q0 -40 22.5 -67t72.5 -27q71 0 102.5 41.5t50.5 133.5l99 467h94l-97 -458q-30 -144 -82 -203.5t-170 -59.5q-58 0 -97.5 14.5t-57.5 40.5t-24.5 51.5t-6.5 57.5q0 44 12 89z" />
    <glyph glyph-name="K" unicode="K" horiz-adv-x="659" 
d="M201 355l418 345h123l-355 -298l232 -402h-121l-191 347l-131 -107l-51 -240h-94l149 700h94z" />
    <glyph glyph-name="L" unicode="L" horiz-adv-x="531" 
d="M499 79l-18 -79h-450l149 700h94l-132 -621h357z" />
    <glyph glyph-name="M" unicode="M" horiz-adv-x="870" 
d="M345 0l-106 568h-2l-3 -26l-116 -542h-87l149 700h119l109 -576l342 576h130l-149 -700h-87l116 542l7 26h-2l-341 -568h-79z" />
    <glyph glyph-name="N" unicode="N" horiz-adv-x="731" 
d="M241 548l-116 -548h-94l148 700h93l259 -548l116 548h94l-149 -700h-92z" />
    <glyph glyph-name="O" unicode="O" horiz-adv-x="761" 
d="M347 -21q-59 0 -107 13t-78 31.5t-52 46.5t-32.5 52t-16.5 53.5t-7 44.5t-1 32q0 92 26 175t74 149t125.5 105.5t173.5 39.5q128 0 211 -65.5t83 -204.5q0 -74 -15.5 -142t-48 -128.5t-79 -105t-112.5 -70.5t-144 -26zM358 58q61 0 111 25t82 64.5t54 90.5t31 101t9 98
q0 42 -10 76t-24.5 55t-36.5 36t-39.5 22t-40 11t-31.5 4.5t-21 0.5q-75 0 -133 -37.5t-90.5 -96.5t-48.5 -121.5t-16 -122.5t18 -103t49 -64t64.5 -30t72.5 -9z" />
    <glyph glyph-name="P" unicode="P" horiz-adv-x="638" 
d="M180 700h270q104 0 158.5 -34.5t54.5 -119.5q0 -67 -21.5 -117.5t-52 -78t-71 -44.5t-71.5 -22t-61 -5h-202l-59 -279h-94zM257 621l-56 -263h178q49 0 85.5 14t55 33.5t29.5 46t13.5 43.5t2.5 35q0 50 -36.5 70.5t-106.5 20.5h-165z" />
    <glyph glyph-name="Q" unicode="Q" horiz-adv-x="761" 
d="M580 56l53 -81l-63 -49l-60 89q-63 -36 -162 -36q-295 0 -295 273q0 66 14 130.5t45 126.5t76 108.5t113.5 75t150.5 28.5q59 0 106 -12.5t77 -31t52 -46.5t33 -52.5t17.5 -54.5t7.5 -47t1 -37q0 -111 -44.5 -217t-121.5 -167zM464 220l64 -94q59 50 88 138.5t29 172.5
q0 49 -12 86.5t-34 58.5t-42.5 34.5t-48 18.5t-39.5 6t-27 1q-131 0 -209.5 -110.5t-78.5 -267.5q0 -206 204 -206q59 0 105 25l-62 90z" />
    <glyph glyph-name="R" unicode="R" horiz-adv-x="678" 
d="M31 0l149 700h297q56 0 96.5 -12.5t60 -29.5t31 -41.5t13.5 -40t2 -34.5q0 -72 -40.5 -128t-102.5 -77l-1 -3q61 -21 61 -96q0 -29 -19 -119q-10 -46 -10 -78q0 -18 14 -41h-99q-11 24 -11 40t3 34.5t8.5 44.5t8.5 44q7 53 7 59q0 75 -110 75h-201l-63 -297h-94zM257 621
l-52 -245h210q70 0 118.5 40.5t48.5 112.5q0 41 -24 66.5t-92 25.5h-209z" />
    <glyph glyph-name="S" unicode="S" horiz-adv-x="646" 
d="M39 222h96q-4 -16 -5 -33.5t5.5 -42t21.5 -43t50 -32t85 -13.5q93 0 148.5 45t55.5 107q0 22 -9 39t-19.5 27t-36 19.5t-41.5 13.5t-53.5 11.5t-55.5 11.5q-32 7 -47.5 11.5t-44 17t-42.5 27.5t-26 41.5t-12 61.5q0 37 14 74t44.5 73.5t91 59.5t143.5 23q121 0 177.5 -45
t56.5 -121q0 -19 -3 -37h-91q1 7 1 22q0 10 -1.5 19.5t-10 26t-23 28t-44 20t-69.5 8.5q-80 0 -132.5 -37.5t-52.5 -96.5q0 -20 8 -35t19 -24.5t34.5 -17.5t40.5 -12t51 -11q112 -23 150 -41q83 -41 84 -127q0 -36 -8.5 -70.5t-30.5 -69.5t-56 -61.5t-90.5 -43t-127.5 -16.5
q-37 0 -69 4t-71.5 18.5t-64.5 39.5t-38 71.5t-2 109.5z" />
    <glyph glyph-name="T" unicode="T" horiz-adv-x="569" 
d="M318 621h-227l17 79h548l-17 -79h-227l-132 -621h-94z" />
    <glyph glyph-name="U" unicode="U" horiz-adv-x="695" 
d="M165 700h94l-88 -417q-13 -61 -13 -89q0 -63 38.5 -99.5t110.5 -36.5q48 0 85.5 14t60.5 34t40.5 52.5t26 59.5t16.5 65l89 417h94l-91 -429q-16 -75 -43 -130t-57 -85.5t-70.5 -48.5t-74.5 -23t-77 -5q-242 0 -242 195q0 49 10 97z" />
    <glyph glyph-name="V" unicode="V" horiz-adv-x="583" 
d="M271 96l317 604h99l-380 -700h-119l-96 700h101z" />
    <glyph glyph-name="W" unicode="W" horiz-adv-x="880" 
d="M509 589l-250 -589h-127l-40 700h103l25 -588l254 588h113l34 -588l254 588h109l-324 -700h-119z" />
    <glyph glyph-name="X" unicode="X" horiz-adv-x="593" 
d="M307 295l-246 -295h-115l314 370l-164 330h112l130 -275l226 275h114l-296 -350l178 -350h-113z" />
    <glyph glyph-name="Y" unicode="Y" horiz-adv-x="590" 
d="M326 380l257 320h111l-336 -408l-61 -292h-94l61 292l-172 408h105z" />
    <glyph glyph-name="Z" unicode="Z" horiz-adv-x="591" 
d="M496 621h-371l17 79h500l-16 -75l-514 -546h419l-18 -79h-540l18 86z" />
    <glyph glyph-name="bracketleft" unicode="[" horiz-adv-x="367" 
d="M200 700h212l-13 -62h-122l-162 -761h122l-13 -62h-212z" />
    <glyph glyph-name="backslash" unicode="\" horiz-adv-x="420" 
d="M97 700h53l169 -885h-53z" />
    <glyph glyph-name="bracketright" unicode="]" horiz-adv-x="370" 
d="M147 700h212l-188 -885h-212l13 62h122l162 761h-122z" />
    <glyph glyph-name="asciicircum" unicode="^" horiz-adv-x="442" 
d="M271 657l-95 -175h-70l120 218h90l120 -218h-70z" />
    <glyph glyph-name="underscore" unicode="_" horiz-adv-x="497" 
d="M0 -185v52h497v-52h-497z" />
    <glyph glyph-name="grave" unicode="`" horiz-adv-x="312" 
d="M245 700l42 -132h-77l-69 132h104z" />
    <glyph glyph-name="a" unicode="a" horiz-adv-x="561" 
d="M163 358h-84q33 170 238 170q56 0 95.5 -12t58.5 -31.5t26.5 -38t7.5 -38.5q0 -10 -9 -51l-54 -235q-3 -14 -4 -25t2 -17t4.5 -9.5t8.5 -5t8.5 -2t10.5 -0.5q2 0 5.5 -0.5t5.5 -0.5l-14 -62q-22 -3 -38 -3q-23 0 -39 6t-22.5 15.5t-8.5 16.5t-2 15v11q-73 -81 -179 -81
q-172 0 -172 128q0 48 19.5 83t48.5 53.5t71 30.5t78.5 16.5t79.5 8.5h6t5 0.5t6 0.5q29 3 40 5t26 10.5t20 26t5 47.5q0 76 -96 76q-66 0 -106 -30t-48 -78zM377 217l10 38q-9 -7 -21 -10.5t-23 -4.5t-44 -4.5t-61 -6.5q-138 -18 -138 -110q0 -77 84 -77q148 0 192 173
q1 1 1 2z" />
    <glyph glyph-name="b" unicode="b" horiz-adv-x="599" 
d="M166 700h89l-51 -241q56 69 175 69q51 0 89 -18.5t55.5 -41.5t28 -54.5t12 -47.5t1.5 -31q0 -90 -30.5 -169t-97 -132.5t-157.5 -53.5q-117 0 -162 90h-3l-13 -70h-84zM155 257q-10 -43 -10 -79q0 -73 33 -104.5t83 -31.5q55 0 98 28t67 72.5t36 91t12 89.5
q0 143 -118 143q-79 0 -129.5 -57.5t-71.5 -151.5z" />
    <glyph glyph-name="c" unicode="c" horiz-adv-x="551" 
d="M414 181h84q-9 -37 -27 -70.5t-47.5 -64t-75 -48.5t-101.5 -18q-49 0 -87 12.5t-60 34.5t-36 44t-19.5 48.5t-7 40t-1.5 26.5q0 140 79.5 241t216.5 101q103 0 149.5 -43t46.5 -110v-26h-84q0 40 -11.5 65.5t-31.5 35.5t-34.5 13t-33.5 3q-54 0 -95.5 -30t-63.5 -76.5
t-33 -92.5t-11 -86q0 -39 11.5 -67t26 -41.5t35.5 -21t31.5 -8.5t22.5 -1q39 0 69.5 16t48 41.5t26 44.5t13.5 37z" />
    <glyph glyph-name="d" unicode="d" horiz-adv-x="597" 
d="M532 700h89l-148 -700h-83l11 55h-2q-65 -75 -176 -75q-32 0 -60.5 8t-60 28t-50.5 65.5t-19 110.5q0 82 25 147.5t66.5 106t92.5 61.5t106 21q128 0 154 -86zM133 245q-6 -33 -6 -67q0 -65 31.5 -100.5t89.5 -35.5q89 0 147 81.5t58 200.5q0 67 -31 104.5t-89 37.5
q-46 0 -83.5 -21.5t-60.5 -57t-36.5 -70.5t-19.5 -72z" />
    <glyph glyph-name="e" unicode="e" horiz-adv-x="582" 
d="M416 147h90q-15 -45 -41.5 -78t-52.5 -49.5t-57 -26t-48 -11.5t-31 -2q-73 0 -123.5 18.5t-74.5 51t-33.5 63.5t-9.5 68q0 65 17.5 124.5t54 110.5t101 81.5t148.5 30.5q191 0 191 -182q0 -57 -17 -112h-397q-4 -22 -4 -33q0 -159 129 -159q56 0 101 27.5t57 77.5z
M148 296h299q8 27 8 50q0 40 -13.5 67t-35 37t-35.5 13t-28 3q-47 0 -83.5 -17t-58.5 -45t-34 -54t-19 -54z" />
    <glyph glyph-name="f" unicode="f" horiz-adv-x="313" 
d="M358 508l-13 -62h-109l-94 -446h-89l94 446h-93l13 62h93l15 69q27 123 162 123q34 0 62 -7l-12 -60q-25 5 -62 5q-50 0 -63 -69l-13 -61h109z" />
    <glyph glyph-name="g" unicode="g" 
d="M16 -57h84q7 -75 118 -75q44 0 77.5 16t52.5 42.5t29 51t15 50.5l7 37q-36 -48 -72 -66.5t-97 -18.5q-51 0 -89 19.5t-57 44.5t-30 59.5t-13 54.5t-2 39q0 154 81.5 242.5t191.5 88.5q59 0 105.5 -21t63.5 -69h3l13 70h84l-98 -466q-10 -48 -27 -86t-35.5 -62.5t-43 -42
t-43.5 -26t-44 -13t-39 -5.5t-32 -1h-29.5t-34 2.5t-39.5 7t-35 14.5t-33.5 24t-21 37t-10.5 52zM257 42q50 0 88 25t58 59.5t32 78.5t15.5 74t3.5 54q0 64 -32.5 98.5t-89.5 34.5q-93 0 -146 -83t-53 -184q0 -42 9 -73t21.5 -46.5t31.5 -24.5t32 -11t30 -2z" />
    <glyph glyph-name="h" unicode="h" horiz-adv-x="577" 
d="M165 700h90l-53 -248q82 76 186 76q64 0 101.5 -34t37.5 -94q0 -28 -8 -62l-71 -338h-89l66 311q12 57 12 80q0 75 -88 75q-30 0 -55.5 -8.5t-43 -20t-32 -32t-22.5 -34.5t-15.5 -37t-9.5 -31.5l-6 -25.5l-58 -277h-89z" />
    <glyph glyph-name="i" unicode="i" horiz-adv-x="228" 
d="M126 508h89l-108 -508h-89zM147 608l20 92h89l-20 -92h-89z" />
    <glyph glyph-name="j" unicode="j" horiz-adv-x="231" 
d="M128 508h89l-118 -555q-5 -22 -8.5 -36t-14.5 -36.5t-26 -35.5t-41.5 -23.5t-60.5 -10.5q-31 0 -55 4l14 65q5 -1 14 -1q27 0 45 7.5t27.5 24t12 24.5t6.5 29zM149 608l20 92h89l-20 -92h-89z" />
    <glyph glyph-name="k" unicode="k" horiz-adv-x="522" 
d="M165 276l281 232h115l-239 -201l154 -307h-105l-123 257l-105 -84l-36 -173h-89l147 700h89z" />
    <glyph glyph-name="l" unicode="l" horiz-adv-x="231" 
d="M166 700h89l-148 -700h-89z" />
    <glyph glyph-name="m" unicode="m" horiz-adv-x="877" 
d="M125 508h85l-14 -61h3q27 38 70 59.5t90 21.5q58 0 93.5 -25.5t42.5 -68.5q29 45 81 69.5t111 24.5q70 0 104 -35t34 -88q0 -34 -9 -77l-69 -328h-89l68 322q9 40 9 64q0 29 -8.5 47t-24.5 24.5t-24 7.5t-21 1q-12 0 -25 -2t-35.5 -11t-41 -24.5t-36.5 -47t-27 -74.5
l-65 -307h-89l68 321q30 145 -71 145q-59 0 -104 -46t-60 -117l-64 -303h-89z" />
    <glyph glyph-name="n" unicode="n" horiz-adv-x="576" 
d="M125 508h86l-11 -56h3q76 76 185 76q57 0 97.5 -31t40.5 -92q0 -27 -8 -67l-71 -338h-89l66 311q12 59 12 80q0 10 -3 21t-11 24t-27.5 21.5t-47.5 8.5q-141 0 -182 -189l-58 -277h-89z" />
    <glyph glyph-name="o" unicode="o" horiz-adv-x="587" 
d="M42 268q6 31 16 59.5t32.5 67t53 66.5t81.5 47.5t113 19.5q101 0 156.5 -54.5t55.5 -159.5q0 -54 -16 -109t-49.5 -107t-95 -85t-142.5 -33q-58 0 -100 18t-63 42t-33 57t-14 52.5t-2 39.5q0 43 7 79zM135 246q-6 -38 -6 -57q0 -74 33.5 -110.5t90.5 -36.5
q54 0 95.5 28.5t63.5 72t33 88t11 84.5q0 43 -11.5 73.5t-26 45t-35.5 22.5t-31 9t-21 1q-16 0 -31.5 -2.5t-42.5 -15.5t-48.5 -34.5t-42.5 -65t-31 -102.5z" />
    <glyph glyph-name="p" unicode="p" horiz-adv-x="601" 
d="M124 508h86l-16 -69h2q44 48 88.5 68.5t104.5 20.5q88 0 132.5 -52.5t44.5 -143.5q0 -84 -30.5 -162.5t-97 -134t-155.5 -55.5q-125 0 -162 93l-54 -258h-89zM154 252q-8 -44 -8 -67q0 -71 34 -107t87 -36q94 0 149.5 89.5t55.5 202.5q0 132 -125 132q-67 0 -119 -54
t-74 -160z" />
    <glyph glyph-name="q" unicode="q" horiz-adv-x="599" 
d="M495 508h85l-146 -693h-89l51 241q-39 -39 -79.5 -57.5t-96.5 -18.5q-52 0 -90 20t-55.5 45t-27.5 59.5t-11 49t-1 29.5q0 145 81.5 245t209.5 100q116 0 153 -89h3zM137 255q-8 -42 -8 -79q0 -64 30 -99t85 -35q85 0 147.5 83.5t62.5 204.5q0 64 -29 100t-87 36
q-43 0 -78 -18.5t-55.5 -43t-36.5 -58t-21.5 -53.5t-9.5 -38z" />
    <glyph glyph-name="r" unicode="r" horiz-adv-x="368" 
d="M413 528l-16 -65q-12 3 -25 3q-168 0 -216 -232l-49 -234h-89l107 508h86l-18 -83h2q38 56 82.5 79.5t110.5 23.5h25z" />
    <glyph glyph-name="s" unicode="s" horiz-adv-x="501" 
d="M12 151h87q-4 -45 25.5 -77t95.5 -32q61 0 100.5 32t39.5 77q0 13 -3 23t-11 17.5t-15 12.5t-23.5 9.5t-26 6.5t-33 6.5t-35.5 7.5q-69 15 -102 37.5t-33 74.5q0 18 2.5 36.5t15.5 46.5t34.5 48.5t64.5 35.5t101 15q59 0 99 -15t57.5 -39.5t23.5 -48.5t3 -50h-84v12
q0 79 -96 79q-57 0 -93 -27.5t-36 -71.5q0 -12 2.5 -20.5t10 -15.5t13.5 -11.5t21 -8.5t23 -6.5t29 -7t31 -6.5q84 -19 118 -41.5t34 -78.5q0 -21 -4.5 -43t-19.5 -50t-39 -48.5t-68 -35t-102 -14.5q-114 0 -164.5 50t-42.5 121z" />
    <glyph glyph-name="t" unicode="t" horiz-adv-x="319" 
d="M67 508h89l32 150h89l-32 -150h110l-13 -62h-110l-68 -323q-5 -30 -5 -34q0 -8 0.5 -12t4 -12.5t14 -12.5t26.5 -4q22 0 57 10l-14 -62q-48 -16 -89 -16q-93 0 -93 77q0 20 6 48l72 341h-89z" />
    <glyph glyph-name="u" unicode="u" horiz-adv-x="574" 
d="M448 0h-87l14 57h-3q-72 -77 -185 -77q-41 0 -70.5 12.5t-43.5 33.5t-20 41t-6 41q0 23 9 63l71 337h89l-67 -311q-9 -45 -9 -72q0 -40 24 -61.5t61 -21.5q145 0 183 189l58 277h89z" />
    <glyph glyph-name="v" unicode="v" horiz-adv-x="469" 
d="M203 88l225 420h102l-291 -508h-106l-82 508h94z" />
    <glyph glyph-name="w" unicode="w" horiz-adv-x="718" 
d="M392 407l-184 -407h-100l-57 508h91l37 -407l181 407h98l24 -407l199 407h98l-258 -508h-106z" />
    <glyph glyph-name="x" unicode="x" horiz-adv-x="482" 
d="M256 317l157 191h111l-228 -250l134 -258h-99l-99 209l-174 -209h-112l246 272l-124 236h97z" />
    <glyph glyph-name="y" unicode="y" horiz-adv-x="495" 
d="M-3 -184l14 65q33 -5 44 -5q33 0 55.5 22t43.5 64l20 38l-114 508h106l76 -398l212 398h98l-323 -568q-40 -70 -61 -91q-39 -38 -98 -38q-50 0 -73 5z" />
    <glyph glyph-name="z" unicode="z" horiz-adv-x="467" 
d="M102 508h380l-14 -65l-370 -381h303l-13 -62h-415l13 62l378 384h-276z" />
    <glyph glyph-name="braceleft" unicode="{" horiz-adv-x="497" 
d="M115 262l14 66q100 9 126 182q1 6 1 8q7 46 17.5 79.5t32 67t59.5 52.5t92 22l-11 -53q-70 -17 -88 -90q-4 -15 -10 -58q-13 -93 -46.5 -148.5t-116.5 -90.5l-2 -7q82 -41 82 -118q0 -47 -21 -121q-17 -60 -17 -92q0 -22 15.5 -37t37.5 -19l-12 -53q-50 2 -88 26.5
t-38 80.5q0 40 20 114q19 70 19 109q0 73 -66 80z" />
    <glyph glyph-name="bar" unicode="|" horiz-adv-x="481" 
d="M208 -224v1053h52v-1053h-52z" />
    <glyph glyph-name="braceright" unicode="}" horiz-adv-x="497" 
d="M370 328l-14 -66q-24 -3 -43.5 -12.5t-32.5 -28t-21.5 -33.5t-15 -41t-8.5 -38l-6 -36q-6 -36 -12 -60.5t-20.5 -56t-34.5 -51t-54.5 -35t-80.5 -18.5l12 53q29 6 48.5 21t29.5 39.5t13 41t7 46.5q4 31 7 49.5t14 50t26.5 53t45.5 45.5t71 41l2 7q-48 25 -65.5 52.5
t-17.5 65.5q0 50 21 121q16 52 16 91q0 42 -52 57l11 53q39 -2 66 -14t39 -30t16.5 -33.5t4.5 -31.5q0 -41 -19 -112q-20 -72 -20 -110q0 -39 19.5 -58t47.5 -22z" />
    <glyph glyph-name="asciitilde" unicode="~" 
d="M102 288l-39 16q47 128 133 128q44 0 87 -23l103 -55q1 -1 8 -4t19.5 -6t24.5 -3q54 0 86 81l39 -16q-47 -128 -133 -128q-44 0 -87 23l-103 55q-26 13 -53 13q-28 0 -51 -23.5t-34 -57.5z" />
    <glyph glyph-name="afii10051" horiz-adv-x="890" 
d="M194 621l17 79h549l-17 -79h-227l-48 -225q129 7 155 7q22 0 41 -1.5t52 -9.5t56 -22t40.5 -43t17.5 -69q0 -39 -15 -83t-45 -89t-87 -74.5t-130 -29.5q-16 0 -63 13l17 80q38 -14 64 -14q45 0 79 19.5t51 49.5t24.5 57t7.5 50q0 28 -12 46.5t-35 27t-45 11t-53 2.5
q-28 0 -136 -7l-68 -317h-94l132 621h-228z" />
    <glyph glyph-name="afii10052" horiz-adv-x="539" 
d="M257 621l-132 -621h-94l149 700h446l-17 -79h-352zM393 878h112l-124 -132h-86z" />
    <glyph glyph-name="quotesinglbase" horiz-adv-x="318" 
d="M51 0l23 109h99l-24 -114q-12 -59 -37.5 -91.5t-91.5 -51.5l11 55q55 10 69 88l1 5h-50z" />
    <glyph glyph-name="afii10100" horiz-adv-x="431" 
d="M201 446l-94 -446h-89l107 508h349l-14 -62h-259zM317 700h112l-124 -132h-86z" />
    <glyph glyph-name="quotedblbase" horiz-adv-x="429" 
d="M25 0l23 109h99l-24 -114q-6 -27 -10.5 -41.5t-17.5 -36.5t-38.5 -38t-63.5 -27l12 55q55 10 69 88l1 5h-50zM190 0l23 109h99l-24 -114q-12 -60 -37 -92t-93 -51l12 55q55 10 69 88l1 5h-50z" />
    <glyph glyph-name="ellipsis" unicode="&#x85;" horiz-adv-x="939" 
d="M52 0l23 109h99l-23 -109h-99zM362 0l23 109h99l-23 -109h-99zM672 0l23 109h99l-23 -109h-99z" />
    <glyph glyph-name="dagger" horiz-adv-x="499" 
d="M306 700h79l-41 -192h185l-15 -68h-185l-133 -625h-79l133 625h-185l15 68h185z" />
    <glyph glyph-name="daggerdbl" horiz-adv-x="555" 
d="M362 700h79l-41 -192h185l-15 -68h-185l-41 -192h185l-15 -68h-184l-78 -365h-79l78 365h-186l15 68h185l41 192h-185l15 68h185z" />
    <glyph glyph-name="Accent" horiz-adv-x="2" 
d="M398 700h112l-124 -132h-86z" />
    <glyph glyph-name="perthousand" horiz-adv-x="1278" 
d="M135 0l603 700h79l-603 -700h-79zM97 508q18 99 76 149.5t119 50.5q12 0 25.5 -1.5t35.5 -10.5t38.5 -24t29 -45.5t12.5 -71.5q0 -26 -6.5 -57t-22 -65t-37.5 -61.5t-57 -45.5t-77 -18q-141 0 -141 153q0 22 5 47zM162 508q-5 -20 -5 -37q0 -68 25 -93q20 -17 49 -17
q63 0 100 61.5t37 122.5q0 58 -21.5 84t-53.5 26q-42 0 -78.5 -38t-52.5 -109zM525 192q7 31 19.5 62t34.5 64t58.5 53.5t81.5 20.5q70 0 106 -39.5t36 -113.5q0 -117 -65 -182t-136 -65q-13 0 -26 1.5t-35 10.5t-38.5 24t-29 45.5t-12.5 71.5q0 17 6 47zM590 192
q-6 -24 -6 -37q0 -110 74 -110q51 0 94.5 52.5t43.5 131.5q0 20 -1.5 33.5t-8 34t-23 31.5t-42.5 11q-50 0 -83.5 -41.5t-47.5 -105.5zM888 192q7 31 19.5 62t34.5 64t58.5 53.5t81.5 20.5q70 0 106 -39.5t36 -113.5q0 -117 -65 -182t-136 -65q-13 0 -26 1.5t-35 10.5
t-38.5 24t-29 45.5t-12.5 71.5q0 17 6 47zM953 192q-6 -24 -6 -37q0 -110 74 -110q51 0 94.5 52.5t43.5 131.5q0 20 -1.5 33.5t-8 34t-23 31.5t-42.5 11q-50 0 -83.5 -41.5t-47.5 -105.5z" />
    <glyph glyph-name="afii10058" horiz-adv-x="1143" 
d="M14 0l17 82q8 -2 25 -2q37 0 68.5 22.5t51.5 53t39 79t28.5 82.5t20.5 82l71 301h438l-61 -285h201q95 0 141.5 -38t46.5 -91q0 -37 -7.5 -74t-27.5 -76t-50 -68.5t-79.5 -48.5t-111.5 -19h-295l132 621h-251l-58 -242q-34 -139 -68 -208q-85 -174 -238 -174q-17 0 -33 3
zM696 336l-55 -257h189q51 0 87 19.5t53 51t23.5 59.5t6.5 57q0 70 -127 70h-177z" />
    <glyph glyph-name="quilsinglleft" horiz-adv-x="292" 
d="M75 311l178 132l-19 -90l-121 -88l84 -87l-17 -80l-122 130z" />
    <glyph glyph-name="afii10059" horiz-adv-x="1089" 
d="M197 336l-72 -336h-94l149 700h94l-61 -285h351l61 285h94l-61 -285h181q65 0 109 -15.5t64.5 -44t28 -55.5t7.5 -61q0 -57 -20.5 -101t-50.5 -69.5t-69.5 -41.5t-72 -21.5t-63.5 -5.5h-296l72 336h-351zM642 336l-55 -257h175q89 0 139 42t50 106q0 109 -135 109h-174z
" />
    <glyph glyph-name="afii10061" horiz-adv-x="617" 
d="M206 381l364 319h128l-393 -331l263 -369h-114l-251 365l-78 -365h-94l149 700h94zM438 878h112l-124 -132h-86z" />
    <glyph glyph-name="afii10060" horiz-adv-x="890" 
d="M781 0h-94l44 205q5 27 5 33q0 50 -27 68t-121 18q-61 0 -136 -7l-68 -317h-94l132 621h-228l17 79h549l-17 -79h-227l-48 -225q129 7 155 7q49 0 77.5 -2.5t61 -11t50 -28.5t23.5 -53q4 -18 0 -46t-7 -42z" />
    <glyph glyph-name="afii10145" horiz-adv-x="724" 
d="M557 79l132 621h94l-149 -700h-226l-41 -189h-90l41 189h-228l149 700h94l-132 -621h356z" />
    <glyph glyph-name="afii10099" horiz-adv-x="585" 
d="M286 700l-13 -62h213l-12 -62h-213l-30 -143q25 32 73 53.5t96 21.5q64 0 110 -39t46 -131q0 -74 -28 -195t-68 -191q-41 -71 -96 -103.5t-141 -33.5l14 65h22q74 0 138.5 126.5t64.5 327.5q0 112 -98 112q-28 0 -51.5 -9t-39 -19.5t-29.5 -31t-20.5 -32.5t-14.5 -36.5
t-9 -29t-5 -23.5l-56 -265h-89l121 576h-77l13 62h77l13 62h89z" />
    <glyph glyph-name="quoteleft" horiz-adv-x="310" 
d="M275 572l-24 -110h-99l24 114q6 25 10.5 39t18 38t39 40.5t62.5 26.5l-12 -55q-12 -3 -21 -7t-15.5 -11t-11 -11.5t-8.5 -15t-5 -14t-4.5 -16t-3.5 -14.5l-1 -4h51z" />
    <glyph glyph-name="quoteright" horiz-adv-x="309" 
d="M176 591l23 109h99l-24 -115q-25 -122 -129 -143l11 54q56 18 69 89l1 6h-50z" />
    <glyph glyph-name="quotedblleft" horiz-adv-x="419" 
d="M412 572l-23 -110h-99l24 114q6 27 11.5 43t18.5 38t37.5 37.5t61.5 25.5l-11 -55q-48 -11 -65 -69q-1 -5 -3 -14l-2 -6l-1 -4h51zM247 572l-23 -110h-99l24 114q6 26 11.5 41.5t18.5 38.5t38 39t61 25l-11 -55q-30 -6 -46 -27.5t-24 -60.5l-1 -5h51z" />
    <glyph glyph-name="quotedblright" horiz-adv-x="421" 
d="M150 591l24 109h99l-25 -115q-5 -23 -10.5 -38.5t-19 -40t-39 -41t-60.5 -23.5l11 54q31 10 46.5 30t22.5 59l1 6h-50zM315 591l24 109h99l-25 -115q-5 -23 -10.5 -38.5t-19 -40t-39 -41t-60.5 -23.5l11 54q31 10 46.5 30t22.5 59l1 6h-50z" />
    <glyph glyph-name="bullet" 
d="M213 350q0 42 29 71t71 29t71 -29t29 -71t-29 -71t-71 -29t-71 29t-29 71z" />
    <glyph glyph-name="endash" horiz-adv-x="609" 
d="M63 297h500l-14 -62h-500z" />
    <glyph glyph-name="emdash" horiz-adv-x="835" 
d="M49 235l14 62h726l-14 -62h-726z" />
    <glyph glyph-name="accent" horiz-adv-x="2" 
d="M518 904h112l-124 -132h-86z" />
    <glyph glyph-name="trademark" horiz-adv-x="861" 
d="M195 645h-112v55h302v-55h-114v-295h-76v295zM640 350l-102 268h-5l4 -45v-223h-75v350h100l94 -241l9 -35h4l8 35l94 241h100v-350h-75v223l4 45h-5l-103 -268h-52z" />
    <glyph glyph-name="afii10106" horiz-adv-x="854" 
d="M-41 0l14 65q12 -2 18 -2q35 0 61.5 20.5t45 60.5t29 78t22.5 95l39 191h360l-42 -201h120q182 0 182 -133q0 -20 -5.5 -41.5t-20.5 -46t-37 -43t-59 -31t-82 -12.5h-252l94 446h-187l-26 -129q-9 -44 -15 -70t-17 -64t-22 -61t-28.5 -49.5t-38 -41t-49 -24.5t-62.5 -10
q-21 0 -42 3zM493 245l-39 -183h121q76 0 108.5 31t32.5 75q0 22 -7 37t-17 22.5t-27.5 12t-30.5 5t-35 0.5h-106z" />
    <glyph glyph-name="quilsinglright" horiz-adv-x="290" 
d="M220 230l-178 -132l19 90l121 88l-84 87l17 80l122 -130z" />
    <glyph glyph-name="afii10107" horiz-adv-x="859" 
d="M159 245l-52 -245h-89l107 508h89l-42 -201h251l42 201h89l-42 -201h120q59 0 97.5 -12t55.5 -34t22.5 -41.5t5.5 -45.5q0 -59 -34.5 -100.5t-78.5 -57.5t-90 -16h-252l52 245h-251zM499 245l-39 -183h122q76 0 107.5 31t31.5 75q0 74 -89 77h-26h-107z" />
    <glyph glyph-name="afii10109" horiz-adv-x="487" 
d="M165 279l250 229h112l-279 -243l191 -265h-105l-174 254l-53 -254h-89l107 508h89zM345 700h112l-124 -132h-86z" />
    <glyph glyph-name="afii10108" horiz-adv-x="560" 
d="M261 700l-13 -62h210l-12 -62h-211l-29 -144q76 76 185 76q59 0 99 -30.5t40 -89.5q0 -32 -8 -70l-67 -318h-89l63 291q9 45 9 81q0 74 -86 74q-144 0 -184 -189l-54 -257h-89l121 576h-79l12 62h80l13 62h89z" />
    <glyph glyph-name="afii10193" horiz-adv-x="579" 
d="M377 62l94 446h89l-107 -508h-174l-39 -185h-87l39 185h-174l107 508h89l-94 -446h257z" />
    <glyph glyph-name="afii10062" unicode="&#xa1;" horiz-adv-x="578" 
d="M326 279l251 421h105l-351 -575q-51 -84 -97.5 -110t-110.5 -26q-41 0 -78 11l18 82q30 -11 63 -11q38 0 69.5 20.5t64.5 82.5l-155 526h106zM251 878h74q-5 -29 12 -54t69 -25q91 0 114 79h75q-57 -132 -187 -132q-27 0 -51 5t-50.5 17.5t-41.5 40.5t-14 69z" />
    <glyph glyph-name="afii10110" unicode="&#xa2;" horiz-adv-x="495" 
d="M-3 -184l14 65q33 -5 44 -5q33 0 55.5 22t43.5 64l20 38l-114 508h106l76 -398l212 398h98l-323 -568q-40 -70 -61 -91q-39 -38 -98 -38q-50 0 -73 5zM172 700h74q-5 -29 12 -54t69 -25q91 0 114 79h75q-57 -132 -187 -132q-27 0 -51 5t-50.5 17.5t-41.5 40.5t-14 69z
" />
    <glyph glyph-name="afii10057" unicode="&#xa3;" horiz-adv-x="517" 
d="M18 232h96q-14 -56 -14 -80q0 -40 22.5 -67t72.5 -27q71 0 102.5 41.5t50.5 133.5l99 467h94l-97 -458q-30 -144 -82 -203.5t-170 -59.5q-58 0 -97.5 14.5t-57.5 40.5t-24.5 51.5t-6.5 57.5q0 44 12 89z" />
    <glyph glyph-name="currency" unicode="&#xa4;" horiz-adv-x="825" 
d="M79 53l111 111q-52 74 -52 166q0 95 52 166l-111 112l66 66l110 -112q74 57 170 57q98 0 170 -57l111 112l66 -66l-111 -112q53 -72 53 -166q0 -91 -53 -166l111 -111l-66 -66l-111 111q-70 -56 -170 -56t-170 56l-110 -111zM212 330q0 -88 62.5 -151t150.5 -63
q89 0 152 63.5t63 150.5t-63.5 151t-151.5 64q-82 0 -147.5 -60t-65.5 -155z" />
    <glyph glyph-name="afii10050" unicode="&#xa5;" horiz-adv-x="538" 
d="M257 621l-132 -621h-94l149 700h357l33 158h82l-44 -237h-351z" />
    <glyph glyph-name="brokenbar" unicode="&#xa6;" horiz-adv-x="478" 
d="M208 206h62v-430h-62v430zM270 399h-62v430h62v-430z" />
    <glyph glyph-name="section" unicode="&#xa7;" horiz-adv-x="585" 
d="M513 557h-73q1 8 2.5 16.5t2.5 14t1 9.5q0 62 -69 62q-40 0 -65.5 -23.5t-25.5 -61.5q0 -32 19.5 -52t77.5 -45q85 -37 114 -72.5t29 -85.5q0 -81 -48 -134t-113 -70q44 -21 44 -77q0 -73 -48 -127.5t-141 -54.5q-17 0 -31.5 1.5t-38.5 9t-40.5 21t-29.5 41t-13 65.5
q0 13 6 39l72 -1q-3 -17 -3 -34q0 -34 20.5 -55t57.5 -21q53 0 76 31t23 67q0 23 -25 41.5t-61 34.5t-72 36t-61 56.5t-25 86.5q0 72 43.5 128t111.5 70q-34 38 -34 88q0 72 50.5 118t131.5 46q13 0 24.5 -1t35 -6.5t40 -16.5t30 -33t13.5 -53q0 -15 -8 -58zM311 150
q60 18 93.5 62t33.5 92q0 44 -36 71.5t-118 60.5q-51 -14 -86 -53t-35 -90q0 -13 1.5 -24t6.5 -20.5t8.5 -16.5t14 -15.5t15.5 -13t21 -13t23 -12t28 -13.5t30 -15z" />
    <glyph glyph-name="afii10023" unicode="&#xa8;" horiz-adv-x="608" 
d="M210 401h367l-17 -79h-366l-52 -243h416l-16 -79h-511l149 700h499l-17 -79h-405zM281 772l17 79h94l-17 -79h-94zM497 772l17 79h94l-17 -79h-94z" />
    <glyph glyph-name="copyright" unicode="&#xa9;" horiz-adv-x="806" 
d="M66 350q0 144 102.5 247t247.5 103q143 0 246.5 -102.5t103.5 -247.5t-103.5 -247.5t-246.5 -102.5q-145 0 -247.5 103t-102.5 247zM132 350q0 -123 82 -210t202 -87q118 0 201 86.5t83 210.5t-83.5 210.5t-200.5 86.5q-120 0 -202 -86.5t-82 -210.5zM480 297h65
q-8 -38 -37 -71.5t-61 -45.5q-23 -8 -55 -8q-95 0 -132 59q-17 28 -17 59q0 33 7 67.5t22 71.5t46 65t73 39q21 6 44 6q99 0 123 -59q10 -25 6 -56h-63q6 19 -2.5 36t-31.5 25q-11 4 -34 4q-39 0 -66 -26t-37 -53.5t-15 -59.5q-3 -22 -3 -45q0 -63 54 -80q9 -3 29 -3
q62 0 85 75z" />
    <glyph glyph-name="afii10053" unicode="&#xaa;" horiz-adv-x="732" 
d="M525 400l-16 -79h-347q-4 -24 -4 -72q0 -96 54 -143.5t136 -47.5q54 0 97.5 18.5t69.5 49t39.5 55.5t22.5 51h98q-8 -27 -19 -52.5t-37.5 -64.5t-60 -67t-90 -48.5t-124.5 -20.5q-57 0 -103.5 12.5t-76 31.5t-51.5 46t-32.5 51.5t-17 53t-7.5 44.5t-1 33q0 204 113.5 337
t287.5 133q57 0 103 -10.5t74.5 -28.5t49 -41.5t27.5 -50t10.5 -54t-2.5 -52.5h-96q5 27 -1.5 54t-24 51t-55 38.5t-88.5 14.5q-54 0 -99.5 -20t-73.5 -47t-50.5 -64t-32.5 -61.5t-17 -49.5h345z" />
    <glyph glyph-name="guillemotleft" unicode="&#xab;" horiz-adv-x="477" 
d="M260 311l178 132l-19 -90l-121 -88l84 -87l-17 -80l-122 130zM75 311l178 132l-19 -90l-121 -88l84 -87l-17 -80l-122 130z" />
    <glyph glyph-name="logicalnot" unicode="&#xac;" 
d="M63 386h500v-202h-62v140h-438v62z" />
    <glyph glyph-name="hyphen" unicode="&#xad;" horiz-adv-x="426" 
d="M73 225l18 85h264l-18 -85h-264z" />
    <glyph glyph-name="registered" unicode="&#xae;" horiz-adv-x="808" 
d="M74 350q0 145 102 247.5t248 102.5q143 0 246.5 -103t103.5 -247t-103.5 -247t-246.5 -103q-146 0 -248 102.5t-102 247.5zM140 350q0 -123 82 -210t202 -87q117 0 200.5 87t83.5 210q0 124 -84 210.5t-200 86.5q-120 0 -202 -86.5t-82 -210.5zM260 178l74 350h123
q19 0 30.5 -0.5t32.5 -4.5t34 -12t23 -24t10 -39q0 -67 -80 -101v-2q36 -10 36 -48q0 -12 -4 -36q-2 -10 -4.5 -23t-3.5 -18.5t-2 -13t-0.5 -11t2.5 -8t5 -9.5h-67q-8 23 -6.5 30.5t7 29.5t5.5 46q0 25 -15 32t-51 7h-53l-31 -145h-65zM389 480l-24 -109h76q43 0 60 22.5
t17 46.5q0 40 -61 40h-68z" />
    <glyph glyph-name="afii10056" unicode="&#xaf;" horiz-adv-x="314" 
d="M237 700h94l-149 -700h-94zM179 772l17 79h94l-17 -79h-94zM325 772l17 79h94l-17 -79h-94z" />
    <glyph glyph-name="degree" unicode="&#xb0;" horiz-adv-x="263" 
d="M111 605q0 40 28 68t68 28t68 -28t28 -68t-28 -68t-68 -28t-68 28t-28 68zM157 605q0 -20 15 -35t35 -15t35 15t15 35t-15 35t-35 15t-35 -15t-15 -35z" />
    <glyph glyph-name="plusminus" unicode="&#xb1;" 
d="M63 451h219v199h62v-199h219v-62h-219v-179h-62v179h-219v62zM63 142h500v-62h-500v62z" />
    <glyph glyph-name="afii10055" unicode="&#xb2;" horiz-adv-x="264" 
d="M180 700h94l-149 -700h-94z" />
    <glyph glyph-name="afii10103" unicode="&#xb3;" horiz-adv-x="228" 
d="M126 508h89l-108 -508h-89zM147 608l20 92h89l-20 -92h-89z" />
    <glyph glyph-name="afii10098" unicode="&#xb4;" horiz-adv-x="429" 
d="M201 446l-93 -446h-90l107 508h266l29 133h74l-34 -195h-259z" />
    <glyph glyph-name="mu" unicode="&#xb5;" horiz-adv-x="597" 
d="M-19 -185l148 693h89l-60 -277q-8 -39 -8 -89q0 -30 26.5 -53.5t64.5 -23.5q114 0 151 166l60 277h89l-83 -386q-4 -22 -4 -30q0 -35 45 -27l-14 -65q-9 -1 -18.5 -2t-15.5 -1.5t-10 -0.5q-48 0 -65 14.5t-18 48.5v13q-30 -42 -67 -59.5t-66 -17.5q-28 0 -56.5 17
t-43.5 60l-55 -257h-89z" />
    <glyph glyph-name="paragraph" unicode="&#xb6;" horiz-adv-x="511" 
d="M225 -185v555q-70 2 -117.5 48.5t-47.5 116.5q0 69 48.5 117t116.5 48h62v-885h-62zM382 -185v885h62v-885h-62z" />
    <glyph glyph-name="periodcentered" unicode="&#xb7;" horiz-adv-x="250" 
d="M64 213l23 110h99l-23 -110h-99z" />
    <glyph glyph-name="afii10071" unicode="&#xb8;" horiz-adv-x="582" 
d="M416 147h90q-15 -45 -41.5 -78t-52.5 -49.5t-57 -26t-48 -11.5t-31 -2q-73 0 -123.5 18.5t-74.5 51t-33.5 63.5t-9.5 68q0 65 17.5 124.5t54 110.5t101 81.5t148.5 30.5q191 0 191 -182q0 -57 -17 -112h-397q-4 -22 -4 -33q0 -159 129 -159q56 0 101 27.5t57 77.5z
M148 296h299q8 27 8 50q0 40 -13.5 67t-35 37t-35.5 13t-28 3q-47 0 -83.5 -17t-58.5 -45t-34 -54t-19 -54zM207 608l20 92h89l-20 -92h-89zM441 608l20 92h89l-20 -92h-89z" />
    <glyph glyph-name="numero" unicode="&#xb9;" horiz-adv-x="1115" 
d="M242 548l-117 -548h-94l149 700h93l258 -548l116 548h94l-149 -700h-92zM744 342q4 20 11 41t22.5 48t35.5 47.5t52 35t71 14.5q14 0 27 -1t36 -9t39 -21.5t28.5 -42.5t12.5 -68q0 -58 -19.5 -104t-50 -72.5t-63.5 -40t-63 -13.5q-24 0 -46 5.5t-46 19.5t-38 44.5
t-14 73.5q0 20 5 43zM822 341q-4 -22 -4 -33q0 -89 70 -89q37 0 74.5 39.5t37.5 117.5q0 89 -69 89q-46 0 -73 -37.5t-36 -86.5zM685 0l15 74h304l-15 -74h-304z" />
    <glyph glyph-name="afii10101" unicode="&#xba;" horiz-adv-x="549" 
d="M374 295l-14 -62h-229q-3 -24 -3 -48q0 -38 10 -66t23 -42.5t31.5 -22.5t30.5 -10t25 -2q68 0 108 43t56 96h84q-8 -32 -23 -62t-43 -64t-76 -54.5t-109 -20.5q-12 0 -21 0.5t-33 4t-42 10.5t-41 22.5t-38 36.5t-25.5 55t-10.5 77q0 88 34 165t103 127t159 50
q53 0 92 -13.5t58.5 -31t31 -43t13.5 -42t2 -34.5v-15h-84v25q0 36 -28.5 64t-83.5 28q-13 0 -27 -2t-38.5 -12t-45 -27t-41.5 -50.5t-34 -79.5h229z" />
    <glyph glyph-name="guillemotright" unicode="&#xbb;" horiz-adv-x="475" 
d="M220 230l-178 -132l19 90l121 88l-84 87l17 80l122 -130zM405 230l-178 -132l19 90l121 88l-84 87l17 80l122 -130z" />
    <glyph glyph-name="afii10105" unicode="&#xbc;" horiz-adv-x="231" 
d="M128 508h89l-118 -555q-5 -22 -8.5 -36t-14.5 -36.5t-26 -35.5t-41.5 -23.5t-60.5 -10.5q-31 0 -55 4l14 65q5 -1 14 -1q27 0 45 7.5t27.5 24t12 24.5t6.5 29zM149 608l20 92h89l-20 -92h-89z" />
    <glyph glyph-name="afii10054" unicode="&#xbd;" horiz-adv-x="646" 
d="M39 222h96q-4 -16 -5 -33.5t5.5 -42t21.5 -43t50 -32t85 -13.5q93 0 148.5 45t55.5 107q0 22 -9 39t-19.5 27t-36 19.5t-41.5 13.5t-53.5 11.5t-55.5 11.5q-32 7 -47.5 11.5t-44 17t-42.5 27.5t-26 41.5t-12 61.5q0 37 14 74t44.5 73.5t91 59.5t143.5 23q121 0 177.5 -45
t56.5 -121q0 -19 -3 -37h-91q1 7 1 22q0 10 -1.5 19.5t-10 26t-23 28t-44 20t-69.5 8.5q-80 0 -132.5 -37.5t-52.5 -96.5q0 -20 8 -35t19 -24.5t34.5 -17.5t40.5 -12t51 -11q112 -23 150 -41q83 -41 84 -127q0 -36 -8.5 -70.5t-30.5 -69.5t-56 -61.5t-90.5 -43t-127.5 -16.5
q-37 0 -69 4t-71.5 18.5t-64.5 39.5t-38 71.5t-2 109.5z" />
    <glyph glyph-name="afii10102" unicode="&#xbe;" horiz-adv-x="501" 
d="M12 151h87q-4 -45 25.5 -77t95.5 -32q61 0 100.5 32t39.5 77q0 13 -3 23t-11 17.5t-15 12.5t-23.5 9.5t-26 6.5t-33 6.5t-35.5 7.5q-69 15 -102 37.5t-33 74.5q0 18 2.5 36.5t15.5 46.5t34.5 48.5t64.5 35.5t101 15q59 0 99 -15t57.5 -39.5t23.5 -48.5t3 -50h-84v12
q0 79 -96 79q-57 0 -93 -27.5t-36 -71.5q0 -12 2.5 -20.5t10 -15.5t13.5 -11.5t21 -8.5t23 -6.5t29 -7t31 -6.5q84 -19 118 -41.5t34 -78.5q0 -21 -4.5 -43t-19.5 -50t-39 -48.5t-68 -35t-102 -14.5q-114 0 -164.5 50t-42.5 121z" />
    <glyph glyph-name="afii10104" unicode="&#xbf;" horiz-adv-x="288" 
d="M156 508h89l-108 -508h-89zM105 608l20 92h89l-20 -92h-89zM249 608l20 92h89l-20 -92h-89z" />
    <glyph glyph-name="afii10017" unicode="&#xc0;" horiz-adv-x="630" 
d="M155 181l-105 -181h-98l406 700h102l116 -700h-97l-28 181h-296zM197 260h245l-50 345z" />
    <glyph glyph-name="afii10018" unicode="&#xc1;" horiz-adv-x="669" 
d="M257 621l-44 -210h202q210 0 210 -172q0 -57 -20.5 -101t-50.5 -69.5t-69.5 -41.5t-72.5 -21.5t-64 -5.5h-317l149 700h497l-18 -79h-402zM196 332l-54 -253h197q98 0 143 45.5t45 102.5q0 61 -36 83t-99 22h-196z" />
    <glyph glyph-name="afii10019" unicode="&#xc2;" horiz-adv-x="693" 
d="M179 700h295q60 0 100.5 -15t57.5 -40t23 -45t6 -41q0 -64 -36.5 -116.5t-99.5 -75.5v-3q103 -24 103 -141q0 -23 -5 -47.5t-23.5 -57.5t-48.5 -58t-86.5 -42.5t-130.5 -17.5h-303zM257 621l-46 -218h189q76 0 119.5 37t43.5 94q0 42 -26.5 64.5t-94.5 22.5h-185z
M194 324l-52 -245h195q97 0 145 40.5t48 105.5q0 20 -4.5 35t-18 30.5t-43.5 24.5t-75 9h-195z" />
    <glyph glyph-name="afii10020" unicode="&#xc3;" horiz-adv-x="539" 
d="M257 621l-132 -621h-94l149 700h446l-17 -79h-352z" />
    <glyph glyph-name="afii10021" unicode="&#xc4;" horiz-adv-x="737" 
d="M586 79h100l-59 -237h-81l33 158h-544l-33 -158h-82l42 237h68q164 170 231 477l31 144h426zM607 621h-238l-18 -87q-29 -143 -77 -252.5t-126 -202.5h344z" />
    <glyph glyph-name="afii10022" unicode="&#xc5;" horiz-adv-x="608" 
d="M210 401h367l-17 -79h-366l-52 -243h416l-16 -79h-511l149 700h499l-17 -79h-405z" />
    <glyph glyph-name="afii10024" unicode="&#xc6;" horiz-adv-x="903" 
d="M353 0l75 353l-354 -353h-132l397 382l-235 318h113l219 -310l66 310h94l-66 -310l335 310h128l-372 -331l238 -369h-116l-221 353l-75 -353h-94z" />
    <glyph glyph-name="afii10025" unicode="&#xc7;" horiz-adv-x="675" 
d="M37 215h96q-2 -13 -2 -26t3 -32.5t14 -35.5t29.5 -31t51.5 -23.5t77 -8.5q96 0 150 50t54 118q0 102 -138 102h-92l17 79h83q87 0 127 39.5t40 87.5q0 108 -139 108q-83 0 -135 -38t-65 -98h-100q11 43 32 78.5t56 67.5t92 50.5t129 18.5q228 0 228 -172
q0 -71 -41.5 -115t-97.5 -63l-1 -3q34 -11 56.5 -27t31.5 -37t12 -37t3 -39q0 -118 -84.5 -183.5t-222.5 -65.5q-144 0 -211.5 56t-52.5 180z" />
    <glyph glyph-name="afii10026" unicode="&#xc8;" horiz-adv-x="730" 
d="M154 137l472 563h114l-149 -700h-94l121 567l-474 -567h-113l149 700h94z" />
    <glyph glyph-name="afii10027" unicode="&#xc9;" horiz-adv-x="730" 
d="M154 137l472 563h114l-149 -700h-94l121 567l-474 -567h-113l149 700h94zM299 858h74v-9q0 -70 81 -70q43 0 70 18t45 61h73q-18 -57 -66.5 -94.5t-119.5 -37.5q-82 0 -121.5 38t-35.5 94z" />
    <glyph glyph-name="afii10028" unicode="&#xca;" horiz-adv-x="617" 
d="M206 381l364 319h128l-393 -331l263 -369h-114l-251 365l-78 -365h-94l149 700h94z" />
    <glyph glyph-name="afii10029" unicode="&#xcb;" horiz-adv-x="708" 
d="M-41 0l17 82q10 -2 29 -2q43 0 77.5 26.5t59 77.5t40 99t31.5 116l70 301h435l-149 -700h-94l132 621h-246l-55 -242q-23 -99 -52 -171t-57 -111.5t-63.5 -63t-63.5 -30t-63 -6.5q-24 0 -48 3z" />
    <glyph glyph-name="afii10030" unicode="&#xcc;" horiz-adv-x="870" 
d="M345 0l-106 568h-2l-3 -26l-116 -542h-87l149 700h119l109 -576l342 576h130l-149 -700h-87l116 542l7 26h-2l-341 -568h-79z" />
    <glyph glyph-name="afii10031" unicode="&#xcd;" horiz-adv-x="709" 
d="M195 329l-70 -329h-94l149 700h94l-62 -292h351l62 292h94l-149 -700h-94l70 329h-351z" />
    <glyph glyph-name="afii10032" unicode="&#xce;" horiz-adv-x="761" 
d="M347 -21q-59 0 -107 13t-78 31.5t-52 46.5t-32.5 52t-16.5 53.5t-7 44.5t-1 32q0 92 26 175t74 149t125.5 105.5t173.5 39.5q128 0 211 -65.5t83 -204.5q0 -74 -15.5 -142t-48 -128.5t-79 -105t-112.5 -70.5t-144 -26zM358 58q61 0 111 25t82 64.5t54 90.5t31 101t9 98
q0 42 -10 76t-24.5 55t-36.5 36t-39.5 22t-40 11t-31.5 4.5t-21 0.5q-75 0 -133 -37.5t-90.5 -96.5t-48.5 -121.5t-16 -122.5t18 -103t49 -64t64.5 -30t72.5 -9z" />
    <glyph glyph-name="afii10033" unicode="&#xcf;" horiz-adv-x="712" 
d="M257 621l-132 -621h-94l149 700h542l-149 -700h-94l132 621h-354z" />
    <glyph glyph-name="afii10034" unicode="&#xd0;" horiz-adv-x="638" 
d="M180 700h270q104 0 158.5 -34.5t54.5 -119.5q0 -67 -21.5 -117.5t-52 -78t-71 -44.5t-71.5 -22t-61 -5h-202l-59 -279h-94zM257 621l-56 -263h178q49 0 85.5 14t55 33.5t29.5 46t13.5 43.5t2.5 35q0 50 -36.5 70.5t-106.5 20.5h-165z" />
    <glyph glyph-name="afii10035" unicode="&#xd1;" horiz-adv-x="715" 
d="M575 232h98q-6 -21 -15 -42t-25.5 -52.5t-42.5 -57.5t-59.5 -50t-82.5 -37.5t-106 -13.5q-20 0 -38 1t-48.5 7t-55.5 16.5t-53 31t-47.5 48.5t-32 71t-12.5 97q0 204 113 337t286 133q28 0 54 -2t67 -13.5t70.5 -30.5t51.5 -57.5t22 -90.5q0 -22 -3 -43h-95q2 10 2 29
q0 21 -7 41t-24 41t-53 34t-88 13q-66 0 -119.5 -28t-85.5 -70t-53 -94.5t-29 -97.5t-8 -84q0 -56 18.5 -101.5t64.5 -77t114 -31.5q91 0 146 51t76 123z" />
    <glyph glyph-name="afii10036" unicode="&#xd2;" horiz-adv-x="569" 
d="M318 621h-227l17 79h548l-17 -79h-227l-132 -621h-94z" />
    <glyph glyph-name="afii10037" unicode="&#xd3;" horiz-adv-x="578" 
d="M326 279l251 421h105l-351 -575q-51 -84 -97.5 -110t-110.5 -26q-41 0 -78 11l18 82q30 -11 63 -11q38 0 69.5 20.5t64.5 82.5l-155 526h106z" />
    <glyph glyph-name="afii10038" unicode="&#xd4;" horiz-adv-x="895" 
d="M340 -26l22 105h-37q-28 0 -57.5 4t-69 18.5t-69.5 37.5t-51 67t-21 102q0 79 29.5 140t72.5 95t99 55.5t100 28.5t84 7h38l23 106h94l-23 -106h40q64 0 113.5 -16t78 -40t46 -56.5t23.5 -60t6 -56.5q0 -80 -29.5 -141t-72.5 -95t-99 -55.5t-99.5 -28t-84.5 -6.5h-40
l-22 -105h-94zM379 158l85 397h-25q-136 0 -208.5 -64.5t-72.5 -173.5q0 -159 195 -159h26zM473 158h26q67 0 118.5 16t81.5 40.5t49 57.5t25.5 62.5t6.5 60.5q0 33 -9.5 59t-23 42.5t-33.5 28.5t-36.5 17.5t-38.5 8.5t-31.5 3.5t-21.5 0.5h-28z" />
    <glyph glyph-name="afii10039" unicode="&#xd5;" horiz-adv-x="593" 
d="M307 295l-246 -295h-115l314 370l-164 330h112l130 -275l226 275h114l-296 -350l178 -350h-113z" />
    <glyph glyph-name="afii10040" unicode="&#xd6;" horiz-adv-x="741" 
d="M142 79h355l132 621h94l-132 -621h98l-59 -237h-82l34 158h-551l149 700h94z" />
    <glyph glyph-name="afii10041" unicode="&#xd7;" horiz-adv-x="634" 
d="M152 700h94l-43 -205q-7 -30 -7 -50q0 -23 9.5 -37t31 -21t45 -9t63.5 -2q26 0 138 7l67 317h94l-149 -700h-94l65 304q-122 -7 -142 -7q-126 0 -175 30.5t-49 99.5q0 27 9 68z" />
    <glyph glyph-name="afii10042" unicode="&#xd8;" horiz-adv-x="1016" 
d="M142 79h282l132 621h94l-132 -621h282l132 621h94l-149 -700h-846l149 700h94z" />
    <glyph glyph-name="afii10043" unicode="&#xd9;" horiz-adv-x="1046" 
d="M142 79h282l132 621h94l-132 -621h282l132 621h94l-132 -621h104l-58 -237h-81l33 158h-861l149 700h94z" />
    <glyph glyph-name="afii10044" unicode="&#xda;" horiz-adv-x="724" 
d="M354 700l-61 -285h181q209 0 209 -176q0 -57 -20 -101t-49.5 -69.5t-68.5 -41.5t-72 -21.5t-66 -5.5h-296l132 621h-152l17 79h246zM277 336l-55 -257h175q89 0 138.5 42t49.5 106q0 109 -133 109h-175z" />
    <glyph glyph-name="afii10045" unicode="&#xdb;" horiz-adv-x="859" 
d="M274 700l-61 -285h181q210 0 210 -176q0 -57 -20.5 -101t-50.5 -69.5t-69 -41.5t-72.5 -21.5t-64.5 -5.5h-296l149 700h94zM197 336l-55 -257h176q97 0 142.5 46t45.5 102q0 109 -134 109h-175zM775 700h94l-149 -700h-94z" />
    <glyph glyph-name="afii10046" unicode="&#xdc;" horiz-adv-x="644" 
d="M274 700l-61 -285h180q65 0 109.5 -15.5t65 -44t28 -55.5t7.5 -61q0 -57 -20 -101t-50 -69.5t-69.5 -41.5t-72.5 -21.5t-65 -5.5h-295l149 700h94zM197 336l-55 -257h175q97 0 142.5 46t45.5 102q0 109 -133 109h-175z" />
    <glyph glyph-name="afii10047" unicode="&#xdd;" horiz-adv-x="728" 
d="M203 496h-98q29 100 114 162.5t213 62.5q282 0 282 -259q0 -65 -11 -128t-39.5 -129t-72 -114.5t-116 -80t-163.5 -31.5q-68 0 -118.5 15.5t-78 38t-44.5 55.5t-22.5 59.5t-6.5 57.5q-1 19 0 38h98q-1 -6 -1 -17q0 -73 42 -120.5t134 -47.5q27 0 54 4.5t62.5 21.5
t64.5 44t55.5 77t40.5 116h-332l17 79h331q5 26 5 62q0 180 -186 180q-77 0 -139.5 -39t-84.5 -107z" />
    <glyph glyph-name="afii10048" unicode="&#xde;" horiz-adv-x="994" 
d="M212 408h96q29 135 131 224t247 89q125 0 209 -66t84 -204q0 -57 -11.5 -117t-40.5 -125t-72 -115t-114.5 -82.5t-159.5 -32.5q-21 0 -39.5 1t-50.5 7t-57.5 16t-54 30.5t-48 48.5t-32.5 72t-13 98q0 38 6 77h-97l-70 -329h-94l149 700h94zM592 58q70 0 126.5 34.5
t90.5 91t51.5 123.5t17.5 136q0 53 -16.5 92.5t-39 59t-54 31t-51.5 14t-42 2.5q-87 0 -154 -54.5t-100.5 -141t-33.5 -188.5q0 -200 205 -200z" />
    <glyph glyph-name="afii10049" unicode="&#xdf;" horiz-adv-x="673" 
d="M499 278h-153l-230 -278h-123l250 288q-20 2 -40.5 9t-48 23.5t-45 52t-17.5 85.5q0 114 80 178t209 64h302l-149 -700h-94zM572 621h-197q-22 0 -48 -6t-59.5 -21.5t-55.5 -50.5t-22 -85q0 -101 142 -101h184z" />
    <glyph glyph-name="afii10065" unicode="&#xe0;" horiz-adv-x="561" 
d="M163 358h-84q33 170 238 170q56 0 95.5 -12t58.5 -31.5t26.5 -38t7.5 -38.5q0 -10 -9 -51l-54 -235q-3 -14 -4 -25t2 -17t4.5 -9.5t8.5 -5t8.5 -2t10.5 -0.5q2 0 5.5 -0.5t5.5 -0.5l-14 -62q-22 -3 -38 -3q-23 0 -39 6t-22.5 15.5t-8.5 16.5t-2 15v11q-73 -81 -179 -81
q-172 0 -172 128q0 48 19.5 83t48.5 53.5t71 30.5t78.5 16.5t79.5 8.5h6t5 0.5t6 0.5q29 3 40 5t26 10.5t20 26t5 47.5q0 76 -96 76q-66 0 -106 -30t-48 -78zM377 217l10 38q-9 -7 -21 -10.5t-23 -4.5t-44 -4.5t-61 -6.5q-138 -18 -138 -110q0 -77 84 -77q148 0 192 173
q1 1 1 2z" />
    <glyph glyph-name="afii10066" unicode="&#xe1;" horiz-adv-x="594" 
d="M534 733h75q-9 -37 -32.5 -60.5t-56.5 -34.5t-64 -16t-70.5 -9t-61.5 -10q-85 -22 -129 -80t-58 -128h2q77 133 220 133q87 0 141 -52t54 -144q0 -33 -5.5 -71t-24.5 -90.5t-50 -93t-88 -69t-132 -28.5q-19 0 -33.5 1t-38.5 5.5t-42.5 13t-39 25.5t-34 40t-22.5 58.5
t-9 80.5q0 47 5.5 94.5t22 107t43.5 108t74 91t109 63.5q60 20 119.5 25.5t86.5 11t39 28.5zM136 250q-7 -36 -7 -78q0 -130 123 -130q70 0 119 44t69 105.5t20 132.5q0 40 -11.5 69.5t-25.5 42.5t-34.5 20.5t-30 8.5t-21.5 1q-18 0 -35 -3t-44 -15.5t-48.5 -34t-42 -64
t-31.5 -99.5z" />
    <glyph glyph-name="afii10067" unicode="&#xe2;" horiz-adv-x="541" 
d="M126 508h216q22 0 31.5 -0.5t33 -3t36 -9t28.5 -17.5t23 -31t7 -46q0 -96 -103 -136v-3q77 -21 77 -95q0 -71 -49.5 -119t-154.5 -48h-253zM201 446l-32 -150h122q14 0 27.5 2t37 9t38.5 27t15 50q0 28 -15.5 43t-30 17t-36.5 2h-126zM156 234l-36 -172h128q135 0 135 94
q0 22 -7.5 37.5t-17.5 23t-26 12t-26 5t-24 0.5h-126z" />
    <glyph glyph-name="afii10068" unicode="&#xe3;" horiz-adv-x="431" 
d="M201 446l-94 -446h-89l107 508h349l-14 -62h-259z" />
    <glyph glyph-name="afii10069" unicode="&#xe4;" horiz-adv-x="602" 
d="M-43 62h65q50 63 83.5 131t46.5 113t28 117l18 85h365l-94 -446h88l-50 -194h-73l28 132h-436l-28 -132h-73zM461 446h-187l-15 -71q-42 -197 -138 -313h259z" />
    <glyph glyph-name="afii10070" unicode="&#xe5;" horiz-adv-x="582" 
d="M416 147h90q-15 -45 -41.5 -78t-52.5 -49.5t-57 -26t-48 -11.5t-31 -2q-73 0 -123.5 18.5t-74.5 51t-33.5 63.5t-9.5 68q0 65 17.5 124.5t54 110.5t101 81.5t148.5 30.5q191 0 191 -182q0 -57 -17 -112h-397q-4 -22 -4 -33q0 -159 129 -159q56 0 101 27.5t57 77.5z
M148 296h299q8 27 8 50q0 40 -13.5 67t-35 37t-35.5 13t-28 3q-47 0 -83.5 -17t-58.5 -45t-34 -54t-19 -54z" />
    <glyph glyph-name="afii10072" unicode="&#xe6;" horiz-adv-x="699" 
d="M253 0l55 251l-244 -251h-115l279 268l-164 240h104l145 -230l47 230h89l-50 -230l229 230h111l-260 -244l172 -264h-109l-149 251l-51 -251h-89z" />
    <glyph glyph-name="afii10073" unicode="&#xe7;" horiz-adv-x="520" 
d="M11 156h84q-2 -7 -2 -22q0 -40 30 -66t85 -26q65 0 109 32t44 85q0 25 -11.5 41.5t-30.5 22.5t-31 8t-24 2h-74l13 62h65q119 0 119 88q0 29 -12 47.5t-31.5 25.5t-29.5 8.5t-20 1.5q-49 0 -91 -25t-50 -73h-84q15 68 71.5 114t155.5 46q80 0 132.5 -28.5t52.5 -91.5
q0 -100 -99 -143v-3q31 -4 52 -30.5t21 -62.5q0 -20 -4 -41t-19 -48.5t-38 -48.5t-66.5 -36t-100.5 -15q-218 0 -218 143q0 22 2 33z" />
    <glyph glyph-name="afii10074" unicode="&#xe8;" horiz-adv-x="596" 
d="M129 103l336 405h112l-107 -508h-89l86 406l-337 -406h-112l107 508h89z" />
    <glyph glyph-name="afii10075" unicode="&#xe9;" horiz-adv-x="596" 
d="M129 103l336 405h112l-107 -508h-89l86 406l-337 -406h-112l107 508h89zM212 700h74q-5 -29 12 -54t69 -25q44 0 69.5 17.5t44.5 61.5h75q-55 -132 -187 -132q-48 0 -81.5 13t-49 34t-21.5 42t-5 43z" />
    <glyph glyph-name="afii10076" unicode="&#xea;" horiz-adv-x="487" 
d="M165 279l250 229h112l-279 -243l191 -265h-105l-174 254l-53 -254h-89l107 508h89z" />
    <glyph glyph-name="afii10077" unicode="&#xeb;" horiz-adv-x="566" 
d="M-41 0l14 65q12 -2 19 -2q29 0 52.5 15t38 36t28.5 59t21 67t17 77l40 191h358l-107 -508h-89l94 446h-185l-27 -129q-9 -45 -15 -69.5t-17.5 -64t-22 -61.5t-28.5 -49t-38.5 -41.5t-49 -24.5t-62.5 -10q-20 0 -41 3z" />
    <glyph glyph-name="afii10078" unicode="&#xec;" horiz-adv-x="734" 
d="M278 0l-85 408h-2l-4 -27l-80 -381h-89l107 508h123l85 -413l250 413h132l-107 -508h-89l81 381l9 27h-3l-248 -408h-80z" />
    <glyph glyph-name="afii10079" unicode="&#xed;" horiz-adv-x="574" 
d="M157 237l-50 -237h-89l107 508h89l-44 -209h252l44 209h89l-108 -508h-89l50 237h-251z" />
    <glyph glyph-name="afii10080" unicode="&#xee;" horiz-adv-x="587" 
d="M42 268q6 31 16 59.5t32.5 67t53 66.5t81.5 47.5t113 19.5q101 0 156.5 -54.5t55.5 -159.5q0 -54 -16 -109t-49.5 -107t-95 -85t-142.5 -33q-58 0 -100 18t-63 42t-33 57t-14 52.5t-2 39.5q0 43 7 79zM135 246q-6 -38 -6 -57q0 -74 33.5 -110.5t90.5 -36.5
q54 0 95.5 28.5t63.5 72t33 88t11 84.5q0 43 -11.5 73.5t-26 45t-35.5 22.5t-31 9t-21 1q-16 0 -31.5 -2.5t-42.5 -15.5t-48.5 -34.5t-42.5 -65t-31 -102.5z" />
    <glyph glyph-name="afii10081" unicode="&#xef;" horiz-adv-x="578" 
d="M201 446l-94 -446h-89l107 508h434l-107 -508h-89l94 446h-256z" />
    <glyph glyph-name="afii10082" unicode="&#xf0;" horiz-adv-x="601" 
d="M124 508h86l-16 -69h2q44 48 88.5 68.5t104.5 20.5q88 0 132.5 -52.5t44.5 -143.5q0 -84 -30.5 -162.5t-97 -134t-155.5 -55.5q-125 0 -162 93l-54 -258h-89zM154 252q-8 -44 -8 -67q0 -71 34 -107t87 -36q94 0 149.5 89.5t55.5 202.5q0 132 -125 132q-67 0 -119 -54
t-74 -160z" />
    <glyph glyph-name="afii10083" unicode="&#xf1;" horiz-adv-x="551" 
d="M414 181h84q-9 -37 -27 -70.5t-47.5 -64t-75 -48.5t-101.5 -18q-49 0 -87 12.5t-60 34.5t-36 44t-19.5 48.5t-7 40t-1.5 26.5q0 140 79.5 241t216.5 101q103 0 149.5 -43t46.5 -110v-26h-84q0 40 -11.5 65.5t-31.5 35.5t-34.5 13t-33.5 3q-54 0 -95.5 -30t-63.5 -76.5
t-33 -92.5t-11 -86q0 -39 11.5 -67t26 -41.5t35.5 -21t31.5 -8.5t22.5 -1q39 0 69.5 16t48 41.5t26 44.5t13.5 37z" />
    <glyph glyph-name="afii10084" unicode="&#xf2;" horiz-adv-x="462" 
d="M228 446h-174l14 62h437l-14 -62h-174l-94 -446h-89z" />
    <glyph glyph-name="afii10085" unicode="&#xf3;" horiz-adv-x="495" 
d="M-3 -184l14 65q33 -5 44 -5q33 0 55.5 22t43.5 64l20 38l-114 508h106l76 -398l212 398h98l-323 -568q-40 -70 -61 -91q-39 -38 -98 -38q-50 0 -73 5z" />
    <glyph glyph-name="afii10086" unicode="&#xf4;" horiz-adv-x="798" 
d="M263 -185l35 168q-33 0 -64 5t-67.5 20t-63.5 39t-45 65t-18 95q0 82 32 145.5t85.5 100t118 54.5t136.5 18l37 175h89l-37 -175q27 0 53.5 -2.5t66.5 -14.5t68.5 -34t50 -65t21.5 -101q0 -40 -7.5 -78t-31.5 -84t-63 -80t-109.5 -57.5t-162.5 -25.5l-35 -168h-89z
M315 45l88 418q-74 2 -129.5 -21.5t-84 -64.5t-42 -84t-13.5 -89q0 -48 18.5 -82t48.5 -49.5t57.5 -21.5t56.5 -6zM484 463l-88 -418q76 0 132 26.5t84.5 68.5t41.5 84.5t13 86.5q0 73 -45.5 113t-137.5 39z" />
    <glyph glyph-name="afii10087" unicode="&#xf5;" horiz-adv-x="482" 
d="M256 317l157 191h111l-228 -250l134 -258h-99l-99 209l-174 -209h-112l246 272l-124 236h97z" />
    <glyph glyph-name="afii10088" unicode="&#xf6;" horiz-adv-x="598" 
d="M120 62h254l94 446h89l-94 -446h90l-50 -194h-74l29 132h-440l107 508h89z" />
    <glyph glyph-name="afii10089" unicode="&#xf7;" horiz-adv-x="508" 
d="M98 508h89l-35 -156q-4 -22 -4 -32q0 -31 20.5 -41t77.5 -10q11 0 42 1l62 2l50 236h89l-107 -508h-89l44 211q-34 0 -58.5 -1.5t-56.5 -1.5q-91 0 -127.5 22t-36.5 72q0 20 4 36z" />
    <glyph glyph-name="afii10090" unicode="&#xf8;" horiz-adv-x="833" 
d="M120 62h211l94 446h89l-94 -446h211l94 446h89l-107 -508h-689l107 508h89z" />
    <glyph glyph-name="afii10091" unicode="&#xf9;" horiz-adv-x="852" 
d="M120 62h211l94 446h89l-94 -446h211l94 446h89l-94 -446h86l-50 -194h-74l28 132h-692l107 508h89z" />
    <glyph glyph-name="afii10092" unicode="&#xfa;" horiz-adv-x="597" 
d="M54 446l14 62h219l-42 -201h120q26 0 43 -1t46 -8t47 -20t32 -39.5t14 -64.5q0 -45 -18.5 -80t-49 -54.5t-65.5 -29.5t-71 -10h-252l94 446h-131zM232 245l-39 -183h122q44 0 74 11.5t43 30t18 33.5t5 31q0 35 -19 53t-40 21t-57 3h-107z" />
    <glyph glyph-name="afii10093" unicode="&#xfb;" horiz-adv-x="715" 
d="M125 508h89l-42 -200h120q25 0 43 -1t46.5 -8.5t46.5 -20.5t31.5 -40t13.5 -64q0 -70 -53.5 -122t-148.5 -52h-253zM159 246l-39 -184h122q75 0 107 31t32 75q0 46 -28 62t-87 16h-107zM607 508h89l-107 -508h-89z" />
    <glyph glyph-name="afii10094" unicode="&#xfc;" horiz-adv-x="521" 
d="M125 508h89l-42 -200h120q25 0 43 -1t46.5 -8.5t47 -20.5t32.5 -40t14 -64q0 -78 -59.5 -126t-145.5 -48h-252zM159 246l-39 -184h122q76 0 108.5 31t32.5 75q0 46 -28.5 62t-88.5 16h-107z" />
    <glyph glyph-name="afii10095" unicode="&#xfd;" horiz-adv-x="559" 
d="M192 233l14 62h218q5 28 5 51q0 38 -10 64t-28.5 37t-35.5 15t-39 4q-68 0 -113 -31.5t-62 -85.5h-84q9 33 26 61.5t46 56.5t77 44.5t109 16.5q64 0 108 -18t64.5 -49t28 -60t7.5 -63q0 -48 -9 -95t-31 -95.5t-55 -85t-86 -59.5t-119 -23q-54 0 -94.5 13.5t-61 31.5
t-32.5 44t-14.5 43t-2.5 36t1 29h84q-2 -10 -2 -29q0 -51 34.5 -78.5t87.5 -27.5q21 0 41 5t51.5 21.5t57.5 59t39 105.5h-220z" />
    <glyph glyph-name="afii10096" unicode="&#xfe;" horiz-adv-x="788" 
d="M170 299h82q24 100 100 164.5t191 64.5q24 0 46.5 -3t53.5 -15.5t53.5 -34t38.5 -63.5t16 -98q0 -140 -81 -237t-222 -97q-22 0 -41 2t-53 13.5t-57.5 32t-42 62.5t-18.5 100q0 23 3 47h-82l-50 -237h-89l107 508h89zM335 246q-5 -32 -5 -57q0 -81 36 -114t88 -33
q53 0 94.5 28.5t64 72t33.5 88t11 84.5q0 151 -125 151q-44 0 -79 -19.5t-55 -45t-35 -60t-20 -55t-8 -40.5z" />
    <glyph glyph-name="afii10097" unicode="&#xff;" horiz-adv-x="524" 
d="M248 200l-162 -200h-104l174 201q-111 17 -111 127q0 78 54.5 129t152.5 51h253l-107 -508h-89l42 200h-103zM403 446h-125q-141 0 -141 -105q0 -36 20 -57.5t85 -21.5h122z" />
    </font>
</defs>
</svg>
