<?xml version="1.0" standalone="no"?>
<!DOCTYPE svg PUBLIC "-//W3C//DTD SVG 1.1//EN" "http://www.w3.org/Graphics/SVG/1.1/DTD/svg11.dtd" >
<svg xmlns="http://www.w3.org/2000/svg" xmlns:xlink="http://www.w3.org/1999/xlink" version="1.1">
<metadata>
Created by FontForge 20170731 at Sat Jun 18 02:38:55 1927
 By ,,,
Generated by Fontographer 3.5
</metadata>
<defs>
<font id="PragmaticaCondC" horiz-adv-x="334" >
  <font-face 
    font-family="PragmaticaCondC"
    font-weight="700"
    font-stretch="normal"
    units-per-em="1000"
    panose-1="0 0 0 0 0 0 0 0 0 0"
    ascent="800"
    descent="-200"
    x-height="508"
    cap-height="700"
    bbox="-44 -224 1086 872"
    underline-thickness="56"
    underline-position="-308"
    unicode-range="U+0020-2122"
  />
<missing-glyph horiz-adv-x="872" 
d="M54 0v872h764v-872h-764zM764 54v764h-656v-764h656z" />
    <glyph glyph-name=".notdef" horiz-adv-x="872" 
d="M54 0v872h764v-872h-764zM764 54v764h-656v-764h656z" />
    <glyph glyph-name=".null" horiz-adv-x="0" 
 />
    <glyph glyph-name="nonmarkingreturn" horiz-adv-x="351" 
 />
    <glyph glyph-name="space" unicode=" " horiz-adv-x="351" 
 />
    <glyph glyph-name="exclam" unicode="!" horiz-adv-x="340" 
d="M91 700h152v-183l-35 -292h-83l-34 292v183zM93 0v158h147v-158h-147z" />
    <glyph glyph-name="quotedbl" unicode="&#x22;" horiz-adv-x="427" 
d="M192 700l-42 -192h-66l-42 192h150zM382 700l-42 -192h-67l-42 192h151z" />
    <glyph glyph-name="numbersign" unicode="#" horiz-adv-x="833" 
d="M518 -56h-104l24 155h-108l-24 -155h-104l25 155h-124l18 111h123l25 153h-124l17 112h123l24 153h104l-24 -153h108l24 153h103l-24 -153h123l-17 -112h-124l-23 -153h123l-16 -111h-124zM456 210l25 153h-111l-23 -153h109z" />
    <glyph glyph-name="dollar" unicode="$" horiz-adv-x="517" 
d="M18 225h133q10 -109 73 -121v194q-102 33 -145 80t-43 137q0 116 67 168q49 37 121 37v58h75v-58q77 0 125 -48q54 -54 54 -165h-133q0 32 -11 59t-35 33v-174q105 -27 151 -89q40 -54 40 -137q0 -107 -61 -167q-54 -52 -130 -52v-75h-75v75q-109 0 -161 70
q-45 62 -45 175zM299 283v-180q24 5 39 36.5t15 62.5q0 66 -54 81zM224 443v156q-21 -3 -36.5 -21.5t-15.5 -57.5q0 -33 11.5 -49.5t40.5 -27.5z" />
    <glyph glyph-name="percent" unicode="%" horiz-adv-x="771" 
d="M158 0l357 700h95l-357 -700h-95zM38 513q0 94 42 147t111 53q54 0 96 -36q59 -51 59 -164q0 -107 -53 -159q-41 -41 -102 -41q-54 0 -95 37q-58 53 -58 163zM136 513q0 -60 15.5 -90.5t39.5 -30.5t40 29q8 15 12 36.5t4 55.5q0 57 -15.5 89t-40.5 32q-20 0 -35 -22
q-20 -31 -20 -99zM422 187q0 94 42 147t111 53q54 0 96 -36q59 -51 59 -164q0 -107 -53 -159q-41 -41 -102 -41q-54 0 -95 37q-58 53 -58 163zM520 187q0 -60 15.5 -90.5t39.5 -30.5t40 29q8 15 12 36.5t4 55.5q0 57 -15.5 89t-40.5 32q-20 0 -35 -22q-20 -31 -20 -99z" />
    <glyph glyph-name="ampersand" unicode="&#x26;" horiz-adv-x="552" 
d="M405 323h120q-3 -32 -12 -64q-15 -56 -49 -103l103 -156h-153l-35 55q-29 -35 -75.5 -55t-93.5 -20q-84 0 -134.5 60.5t-50.5 152.5q0 143 130 213q-25 34 -38 70q-4 15 -7 33t-3 35q0 81 42 128.5t119 47.5q72 0 110.5 -46t38.5 -131q0 -47 -16 -82q-22 -50 -81 -88
l71 -106l8 31zM316 152l-99 155q-32 -18 -45 -53q-9 -23 -9 -51q0 -37 17 -63q21 -33 58 -33q23 0 44 10.5t34 34.5zM261 460q26 19 40 39q12 20 12 51q0 37 -17 53q-12 10 -28 10t-28 -12q-16 -18 -16 -52q0 -25 10 -45z" />
    <glyph glyph-name="quotesingle" unicode="'" horiz-adv-x="237" 
d="M192 700l-42 -192h-66l-42 192h150z" />
    <glyph glyph-name="parenleft" unicode="(" horiz-adv-x="329" 
d="M183 700h105q-52 -154 -74 -270q-15 -83 -15 -172t15 -173q9 -52 28 -121.5t46 -148.5h-105q-56 118 -86 216q-33 111 -33 227q0 120 32 226q24 81 87 216z" />
    <glyph glyph-name="parenright" unicode=")" horiz-adv-x="331" 
d="M142 -185h-104q51 152 74 281q14 87 14 162q0 93 -15.5 174t-72.5 268h104q58 -115 87 -215q33 -114 33 -227q0 -118 -32 -227q-28 -98 -88 -216z" />
    <glyph glyph-name="asterisk" unicode="*" horiz-adv-x="399" 
d="M198 481l-55 -93l-55 55l54 92l-87 38l20 73l87 -37v111h73v-111l86 37l19 -73l-87 -38l56 -92l-57 -55z" />
    <glyph glyph-name="plus" unicode="+" horiz-adv-x="673" 
d="M38 390h257v257h80v-257h257v-80h-257v-257h-80v257h-257v80z" />
    <glyph glyph-name="comma" unicode="," 
d="M91 0v158h146v-158q0 -43 -7 -70q-27 -107 -139 -107v79q39 0 57 36q12 24 12 56v6h-69z" />
    <glyph glyph-name="hyphen" unicode="-" horiz-adv-x="378" 
d="M64 205v125h245v-125h-245z" />
    <glyph glyph-name="period" unicode="." 
d="M91 0v158h146v-158h-146z" />
    <glyph glyph-name="slash" unicode="/" horiz-adv-x="341" 
d="M-15 -185l294 885h77l-294 -885h-77z" />
    <glyph glyph-name="zero" unicode="0" horiz-adv-x="522" 
d="M260 -20q-48 0 -86 15q-63 27 -100 97q-48 93 -48 258q0 166 47 257q36 68 99 97q20 8 40.5 12t47.5 4q94 0 147 -56q87 -90 87 -314q0 -156 -42 -248q-33 -72 -94 -102q-42 -20 -98 -20zM260 102q61 0 83 92q11 50 11 156q0 108 -11 155q-21 93 -83 93q-41 0 -63 -43
q-31 -62 -31 -205q0 -145 31 -204q23 -44 63 -44z" />
    <glyph glyph-name="one" unicode="1" horiz-adv-x="577" 
d="M107 492v83h24q45 0 86 31q46 36 55 94h113v-700h-146v492h-132z" />
    <glyph glyph-name="two" unicode="2" horiz-adv-x="525" 
d="M483 122v-122h-443v28q0 79 32 134q28 49 112 121l106 91q55 52 55 119q0 18 -1.5 33.5t-9.5 31.5q-20 40 -72 40q-35 0 -56 -18q-32 -27 -32 -97v-25h-136v21q0 120 57 180q28 29 71.5 45t100.5 16q87 0 140 -37q77 -54 77 -183q0 -76 -29 -127q-32 -56 -130 -129
t-116 -122h274z" />
    <glyph glyph-name="three" unicode="3" horiz-adv-x="522" 
d="M23 241h138q0 -85 32 -117q22 -22 64 -22q43 0 63 20q26 24 26 87q0 60 -29 82q-19 14 -52 14h-63v115h50q32 0 52 12q15 11 23 29.5t8 46.5q0 57 -33 78q-18 12 -50 12q-37 0 -55 -18q-28 -30 -28 -111h-132q0 160 82 218q48 33 140 33q98 0 153 -50.5t55 -147.5
q0 -67 -35 -108q-26 -29 -75 -46v-5q54 -6 86 -41q42 -44 42 -128q0 -125 -81 -179q-55 -35 -142 -35q-103 0 -157 41q-82 62 -82 220z" />
    <glyph glyph-name="four" unicode="4" horiz-adv-x="517" 
d="M283 158h-265v123l265 419h146v-421h68v-121h-68v-158h-146v158zM131 279h152v243z" />
    <glyph glyph-name="five" unicode="5" horiz-adv-x="523" 
d="M34 203h139q0 -42 16 -68q21 -35 70 -35q38 0 57 19q32 34 32 125q0 76 -29 108q-21 23 -58 23q-26 0 -47 -11q-20 -8 -32 -39h-138l36 375h372v-122h-272l-15 -139q19 14 53 26q14 5 33 8t41 3q106 0 156 -78q38 -61 38 -156q0 -156 -84 -221q-55 -41 -146 -41
q-92 0 -143 35q-79 55 -79 188z" />
    <glyph glyph-name="six" unicode="6" horiz-adv-x="524" 
d="M483 535h-128q0 29 -24.5 46t-61.5 17q-41 0 -68 -31q-33 -41 -33 -134q24 25 52 37q13 5 29.5 8t34.5 3q100 0 155 -68q50 -64 50 -171q0 -153 -72 -216q-52 -46 -145 -46q-104 0 -158 55q-82 85 -82 311q0 222 81 312q56 62 162 62t159 -62q40 -47 49 -123zM167 241
q0 -79 34 -114q25 -25 64 -25q34 0 55 17q39 32 39 119q0 47 -15 82q-24 53 -81 53q-39 0 -64 -25q-32 -34 -32 -107z" />
    <glyph glyph-name="seven" unicode="7" horiz-adv-x="517" 
d="M19 578v122h477v-114q-106 -126 -162 -279q-23 -64 -39 -150t-16 -157h-151q0 63 18 146q8 35 17 66t23 69q59 158 166 286v11h-333z" />
    <glyph glyph-name="eight" unicode="8" horiz-adv-x="520" 
d="M129 373q-43 18 -64.5 59.5t-21.5 90.5q0 77 43 129q57 68 173 68q104 0 163 -57q53 -53 53 -140q0 -56 -23 -93q-21 -37 -63 -57q60 -27 85 -80q19 -41 19 -93q0 -109 -63 -164.5t-171 -55.5q-54 0 -96 13t-73 40q-65 57 -65 167q0 61 23.5 102.5t80.5 70.5zM259 102
q45 0 72 28.5t27 82.5q0 46 -20 75q-26 37 -79 37q-56 0 -81 -43q-17 -29 -17 -69q0 -43 19 -72q26 -39 79 -39zM259 418q41 0 63.5 25.5t22.5 69.5q0 39 -23 62t-63 23q-41 0 -63.5 -22.5t-22.5 -62.5q0 -49 24 -72t62 -23z" />
    <glyph glyph-name="nine" unicode="9" horiz-adv-x="524" 
d="M38 165h128q0 -29 24 -47q26 -16 62 -16q41 0 68 31q33 41 33 134q-24 -25 -52.5 -36.5t-63.5 -11.5q-100 0 -155 68q-50 64 -50 171q0 153 72 216q52 46 145 46q104 0 158 -55q82 -85 82 -311q0 -222 -81 -312q-56 -62 -162 -62t-159 62q-40 47 -49 123zM354 459
q0 79 -34 114q-25 25 -64 25q-34 0 -55 -17q-39 -32 -39 -119q0 -47 15 -82q24 -53 81 -53q39 0 64 25q32 34 32 107z" />
    <glyph glyph-name="colon" unicode=":" 
d="M91 350v158h146v-158h-146zM91 0v158h146v-158h-146z" />
    <glyph glyph-name="semicolon" unicode=";" 
d="M91 350v158h146v-158h-146zM91 0v158h146v-158q0 -43 -7 -70q-27 -107 -139 -107v79q39 0 57 36q12 24 12 56v6h-69z" />
    <glyph glyph-name="less" unicode="&#x3c;" horiz-adv-x="618" 
d="M26 399l506 293l41 -70l-461 -265l461 -265l-41 -70l-506 293v84z" />
    <glyph glyph-name="equal" unicode="=" horiz-adv-x="673" 
d="M38 490h594v-80h-594v80zM38 290h594v-80h-594v80z" />
    <glyph glyph-name="greater" unicode="&#x3e;" horiz-adv-x="618" 
d="M573 315l-506 -293l-41 70l461 265l-461 265l41 70l506 -293v-84z" />
    <glyph glyph-name="question" unicode="?" horiz-adv-x="468" 
d="M153 0v158h146v-158h-146zM162 477h-137q0 148 74 201q46 34 136 34q80 0 131 -30q75 -45 75 -154q0 -66 -31 -113q-20 -31 -62 -63q-32 -26 -46 -48q-19 -32 -19 -79h-114l-1 27q0 51 18 92q12 28 38 52l52 49q25 31 25 75q0 46 -23 65q-15 12 -44 12q-36 0 -52 -22
q-20 -28 -20 -98z" />
    <glyph glyph-name="at" unicode="@" horiz-adv-x="965" 
d="M670 -7l47 -85q-56 -36 -110 -51t-126 -15q-213 0 -337 136q-112 124 -112 313q0 194 129.5 321.5t319.5 127.5q216 0 338 -137q111 -123 111 -312q0 -110 -66.5 -181t-159.5 -71q-24 0 -39 2t-28 8q-22 11 -36 38q-14 -23 -53 -39q-21 -8 -42 -12t-50 -4q-104 0 -160 65
t-56 179q0 102 56.5 173t151.5 71q45 0 73.5 -10.5t50.5 -30.5l1 25h120v-309q0 -36 8 -47q5 -7 23 -7q51 0 80 47q25 42 25 103q0 178 -110 273q-95 83 -238 83q-157 0 -257 -109q-92 -101 -92 -247q0 -172 112 -271q98 -86 237 -86q60 0 111 18q42 14 78 41zM569 275
q0 57 -18 93q-25 49 -82 49t-84 -49q-21 -38 -21 -93q0 -60 22 -97q27 -44 82 -44q49 0 75 38t26 103z" />
    <glyph glyph-name="A" unicode="A" horiz-adv-x="518" 
d="M186 700h147l210 -700h-153l-36 131h-190l-35 -131h-153zM193 250h132l-66 262z" />
    <glyph glyph-name="B" unicode="B" horiz-adv-x="591" 
d="M60 700h288q103 0 148 -60q32 -43 32 -118q0 -56 -31 -96q-27 -35 -71 -48v-4q41 -9 74 -36q55 -49 55 -142q0 -114 -71 -161q-53 -35 -151 -35h-273v700zM206 564v-140h115q28 0 42 20q5 8 10.5 20t5.5 32q0 32 -14 50t-50 18h-109zM206 295v-159h128q29 0 48.5 19.5
t19.5 59.5q0 41 -21 60.5t-62 19.5h-113z" />
    <glyph glyph-name="C" unicode="C" horiz-adv-x="583" 
d="M425 247h145q-12 -134 -75 -200.5t-187 -66.5q-134 0 -205 81q-76 90 -76 276q0 160 53 256q70 127 224 127q153 0 219 -105q40 -66 40 -153h-143q-6 68 -37 98q-24 24 -73 24t-80 -37q-47 -58 -47 -204q0 -134 48 -190q32 -37 83 -37q48 0 75 28.5t36 102.5z" />
    <glyph glyph-name="D" unicode="D" horiz-adv-x="617" 
d="M60 700h248q57 0 98 -14q75 -26 121 -92q60 -89 60 -243q0 -153 -53 -237q-42 -69 -119 -96q-51 -18 -119 -18h-236v700zM206 564v-428h77q62 0 100 39q47 52 47 173q0 128 -49 180q-33 36 -90 36h-85z" />
    <glyph glyph-name="E" unicode="E" horiz-adv-x="533" 
d="M206 422h274v-129h-274v-157h318v-136h-464v700h456v-136h-310v-142z" />
    <glyph glyph-name="F" unicode="F" horiz-adv-x="479" 
d="M206 404h232v-136h-232v-268h-146v700h420v-136h-274v-160z" />
    <glyph glyph-name="G" unicode="G" horiz-adv-x="637" 
d="M334 380h253v-380h-113v75q-26 -53 -73 -77q-36 -18 -91 -18q-115 0 -182 58q-101 89 -101 314q0 78 14 138.5t45 108.5q76 121 243 121q103 0 162 -45q76 -58 91 -202h-153q0 55 -26 82q-24 29 -75 29q-58 0 -94 -40q-51 -57 -51 -197q0 -123 34.5 -177t106.5 -54
q65 0 98 46q24 35 24 91h-112v127z" />
    <glyph glyph-name="H" unicode="H" horiz-adv-x="605" 
d="M206 301v-301h-146v700h146v-263h189v263h146v-700h-146v301h-189z" />
    <glyph glyph-name="I" unicode="I" horiz-adv-x="270" 
d="M60 700h146v-700h-146v700z" />
    <glyph glyph-name="J" unicode="J" horiz-adv-x="474" 
d="M11 258h146v-28q0 -68 12.5 -91t47.5 -23q31 0 43.5 22.5t12.5 91.5v470h146v-447q0 -143 -40 -204q-45 -69 -160 -69q-125 0 -174 79q-16 27 -25 66t-9 89v44z" />
    <glyph glyph-name="K" unicode="K" horiz-adv-x="576" 
d="M206 412l202 288h176l-225 -290l242 -410h-177l-163 293l-55 -69v-224h-146v700h146v-288z" />
    <glyph glyph-name="L" unicode="L" horiz-adv-x="466" 
d="M467 136v-136h-407v700h146v-564h261z" />
    <glyph glyph-name="M" unicode="M" horiz-adv-x="776" 
d="M335 0l-126 450l-3 -450h-146v700h199l127 -457l127 457h199v-700h-146v450l-128 -450h-103z" />
    <glyph glyph-name="N" unicode="N" horiz-adv-x="627" 
d="M214 418h-8v-418h-146v700h147l201 -415h9v415h146v-700h-148z" />
    <glyph glyph-name="O" unicode="O" horiz-adv-x="637" 
d="M317 -20q-119 0 -193 72q-57 57 -81 155q-8 35 -12 67.5t-4 75.5q0 78 16 142q24 99 80 155q73 73 194 73q160 0 234 -123q56 -94 56 -247q0 -154 -55 -246q-73 -124 -235 -124zM317 116q57 0 89 38q45 56 45 196q0 141 -46 196q-32 38 -88 38q-57 0 -88 -37
q-45 -54 -45 -197q0 -141 44 -195q30 -39 89 -39z" />
    <glyph glyph-name="P" unicode="P" horiz-adv-x="559" 
d="M60 700h268q98 0 154 -48q64 -56 64 -178q0 -142 -83 -198q-52 -35 -138 -35h-119v-241h-146v700zM206 564v-187h96q46 0 67 22.5t21 73.5q0 60 -33 81q-18 10 -55 10h-96z" />
    <glyph glyph-name="Q" unicode="Q" horiz-adv-x="637" 
d="M531 79l64 -79l-66 -82l-73 94q-23 -17 -55 -24q-15 -4 -35 -6t-50 -2q-158 0 -233 123q-56 95 -56 247q0 150 55 245q72 125 234 125t236 -125q27 -47 41 -107.5t14 -137.5q0 -79 -16 -143q-19 -78 -60 -128zM365 290l65 -84q9 21 14.5 53t5.5 91q0 116 -32.5 175
t-101.5 59q-56 0 -88 -39q-45 -56 -45 -195q0 -138 44 -194q31 -40 90 -40l35 3q12 3 27 15l-71 86z" />
    <glyph glyph-name="R" unicode="R" horiz-adv-x="581" 
d="M60 0v700h293q110 0 160 -65q38 -49 38 -134q0 -60 -24 -108q-29 -56 -84 -65v-6q50 -5 67 -35q13 -24 13 -76l-1 -28v-29q0 -60 7.5 -91.5t24.5 -62.5h-147q-9 16 -13.5 34t-4.5 43l-4 101q0 42 -19.5 61t-64.5 19h-95v-258h-146zM206 564v-178h109q37 0 54 13
q29 21 29 75q0 52 -22 71t-66 19h-104z" />
    <glyph glyph-name="S" unicode="S" horiz-adv-x="537" 
d="M20 227h148q0 -70 38 -96q21 -15 67 -15q40 0 60 10q33 17 33 62q0 59 -62 86l-76 23q-108 30 -149 74t-41 142q0 85 40 135q57 72 197 72q129 0 185 -83q35 -53 35 -129h-139q0 45 -31 64q-21 12 -57 12q-35 0 -57.5 -13.5t-22.5 -53.5q0 -36 20 -52.5t85 -33.5
q128 -30 175 -78t47 -140q0 -96 -40 -151q-59 -82 -204 -82q-115 0 -174 47q-77 60 -77 200z" />
    <glyph glyph-name="T" unicode="T" horiz-adv-x="481" 
d="M168 564h-170v136h484v-136h-168v-564h-146v564z" />
    <glyph glyph-name="U" unicode="U" horiz-adv-x="605" 
d="M51 700h146v-408q0 -99 21 -137.5t82 -38.5q56 0 80 36.5t24 139.5v408h146v-435q0 -135 -45 -201q-57 -84 -205 -84q-144 0 -203 83q-46 67 -46 202v435z" />
    <glyph glyph-name="V" unicode="V" horiz-adv-x="485" 
d="M247 211l103 489h160l-191 -700h-153l-190 700h165z" />
    <glyph glyph-name="W" unicode="W" horiz-adv-x="739" 
d="M370 500l-89 -500h-157l-148 700h153l84 -494l90 494h134l90 -494l84 494h153l-148 -700h-157z" />
    <glyph glyph-name="X" unicode="X" horiz-adv-x="546" 
d="M273 248l-109 -248h-179l197 364l-179 336h169l101 -236l101 236h170l-180 -336l197 -364h-179z" />
    <glyph glyph-name="Y" unicode="Y" horiz-adv-x="495" 
d="M251 394l112 306h157l-195 -435v-265h-147v265l-202 435h163z" />
    <glyph glyph-name="Z" unicode="Z" horiz-adv-x="506" 
d="M295 564h-270v136h450v-125l-290 -439h308v-136h-482v144z" />
    <glyph glyph-name="bracketleft" unicode="[" horiz-adv-x="357" 
d="M91 700h225v-92h-105v-700h105v-93h-225v885z" />
    <glyph glyph-name="backslash" unicode="\" horiz-adv-x="341" 
d="M356 -185h-77l-294 885h77z" />
    <glyph glyph-name="bracketright" unicode="]" horiz-adv-x="360" 
d="M38 700h225v-885h-225v93h106v700h-106v92z" />
    <glyph glyph-name="asciicircum" unicode="^" horiz-adv-x="393" 
d="M94 700h203l80 -142h-91l-91 89l-90 -89h-91z" />
    <glyph glyph-name="underscore" unicode="_" horiz-adv-x="382" 
d="M-15 -185v80h412v-80h-412z" />
    <glyph glyph-name="grave" unicode="`" horiz-adv-x="226" 
d="M114 700l56 -132h-111l-85 132h140z" />
    <glyph glyph-name="a" unicode="a" horiz-adv-x="486" 
d="M181 344h-130q0 69 36 117q51 66 162 66q124 0 169 -73q25 -42 25 -117l-3 -232q0 -56 5.5 -75t18.5 -23v-7h-137l-5 50h-4q-21 -33 -58.5 -51t-78.5 -18q-81 0 -120 49q-29 38 -29 98q0 80 55 122q41 29 128 41l60 9q32 9 32 44v14q0 26 -8 41q-14 26 -50 26
q-25 0 -42 -12q-26 -20 -26 -69zM308 210v25l-20 -7l-24 -7l-37 -8q-20 -3 -34 -15q-22 -19 -22 -56q0 -33 18 -48q14 -11 37 -11q24 0 47 22q35 35 35 105z" />
    <glyph glyph-name="b" unicode="b" horiz-adv-x="516" 
d="M171 61l-4 -61h-121v700h136v-233q18 33 55 49q27 11 60 11q102 0 151 -77q44 -70 44 -194q0 -125 -43 -195q-48 -80 -151 -80q-44 0 -73 18q-26 18 -50 62h-4zM176 255q0 -66 15 -110q21 -62 73 -62q49 0 72 57q8 23 12 49.5t4 65.5q0 94 -30 138q-23 32 -58 32
q-36 0 -58 -31q-30 -42 -30 -139z" />
    <glyph glyph-name="c" unicode="c" horiz-adv-x="475" 
d="M320 192h134q0 -65 -33 -122q-54 -89 -175 -89q-108 0 -166 69t-58 203q0 162 84 230q56 44 147 44q75 0 122 -31q74 -48 74 -169h-130q0 28 -6 46.5t-17 30.5q-17 21 -48 21q-34 0 -55 -25q-31 -40 -31 -136q0 -101 25 -145q21 -36 60 -36q38 0 57 34q16 30 16 75z" />
    <glyph glyph-name="d" unicode="d" horiz-adv-x="517" 
d="M467 0h-121l-4 61h-5q-15 -35 -48 -57.5t-75 -22.5q-96 0 -146 80q-46 74 -46 195q0 114 40 184q50 87 154 87q36 0 61 -11t55 -43v227h135v-700zM338 254q0 94 -30 138q-23 32 -58 32q-36 0 -58 -31q-30 -42 -30 -139q0 -66 15 -110q21 -62 73 -62q49 0 72 57
q8 23 12 49.5t4 65.5z" />
    <glyph glyph-name="e" unicode="e" horiz-adv-x="498" 
d="M329 147h136q-23 -102 -94 -141q-47 -25 -124 -25q-90 0 -143 43q-82 67 -82 231q0 126 63 199t172 73q89 0 142 -49q75 -69 75 -233v-28h-312q0 -80 31 -112q22 -22 60 -22q31 0 45 10q20 13 31 54zM162 302h172q0 73 -23 100q-18 23 -58 23q-49 0 -74 -47
q-17 -34 -17 -76z" />
    <glyph glyph-name="f" unicode="f" horiz-adv-x="299" 
d="M299 508v-102h-91v-406h-136v406h-74v102h74v64q0 68 37.5 101t120.5 33l28 -2q19 0 42 -5v-103l-28 6l-24 2q-22 0 -31 -16.5t-9 -41.5v-38h91z" />
    <glyph glyph-name="g" unicode="g" horiz-adv-x="521" 
d="M55 -40h132q0 -33 27 -48q18 -9 45 -9q32 0 47 14q29 27 29 107v50q-25 -36 -63 -51q-27 -11 -54 -11q-90 0 -140 59q-53 64 -53 187q0 114 40 184q49 85 154 85q37 0 60 -11q40 -18 58 -64h4v56h130v-461q0 -127 -49 -186.5t-164 -59.5q-94 0 -144 34q-59 39 -59 125z
M252 114q36 0 57 24q30 36 30 127q0 77 -18 116q-21 44 -70 44q-36 0 -58 -29q-28 -40 -28 -129t30 -127q21 -26 57 -26z" />
    <glyph glyph-name="h" unicode="h" horiz-adv-x="501" 
d="M182 700v-232q19 29 55 44t75 15q69 0 105.5 -45.5t36.5 -162.5v-319h-136v294q0 83 -15 107t-47 24q-44 0 -62 -45q-12 -30 -12 -94v-286h-136v700h136z" />
    <glyph glyph-name="i" unicode="i" horiz-adv-x="230" 
d="M45 508h136v-508h-136v508zM43 581v119h140v-119h-140z" />
    <glyph glyph-name="j" unicode="j" horiz-adv-x="212" 
d="M27 508h136l1 -533q0 -97 -37 -137q-29 -30 -88 -30h-22q-13 0 -25 2q-12 0 -36 6v103l19 -4q33 0 45 21q7 16 7 54v518zM25 581v119h140v-119h-140z" />
    <glyph glyph-name="k" unicode="k" horiz-adv-x="456" 
d="M182 313l126 195h158l-161 -200l176 -308h-157l-109 202l-33 -42v-160h-136v700h136v-387z" />
    <glyph glyph-name="l" unicode="l" horiz-adv-x="232" 
d="M46 700h136v-700h-136v700z" />
    <glyph glyph-name="m" unicode="m" horiz-adv-x="742" 
d="M46 508h128v-55q15 32 44 53t73 21q49 0 80 -25q24 -21 42 -61q26 49 61.5 67.5t75.5 18.5q65 0 101 -40q44 -52 44 -178v-309h-135v299q0 67 -7 89q-11 37 -47 37q-35 0 -53 -36q-15 -36 -15 -97v-292h-135v299v22q0 53 -8 72q-12 32 -47 32q-38 0 -56 -48
q-10 -33 -10 -85v-292h-136v508z" />
    <glyph glyph-name="n" unicode="n" horiz-adv-x="501" 
d="M177 508v-46q21 30 52 46q38 19 83 19q77 0 109.5 -49t32.5 -159v-319h-136v294q0 83 -15 107t-47 24q-44 0 -62 -45q-12 -30 -12 -94v-286h-136v508h131z" />
    <glyph glyph-name="o" unicode="o" horiz-adv-x="505" 
d="M251 -19q-115 0 -174 77q-55 72 -55 197q0 124 54 195q59 77 175 77q115 0 174 -77q56 -73 56 -195q0 -126 -55 -197q-59 -77 -175 -77zM251 83q44 0 67 39q22 41 22 133q0 96 -25 137q-20 33 -64 33q-39 0 -60 -30q-29 -41 -29 -140q0 -101 29 -142q21 -30 60 -30z" />
    <glyph glyph-name="p" unicode="p" horiz-adv-x="516" 
d="M46 508h128v-61q13 32 37 53q33 27 89 27q91 0 141.5 -75.5t50.5 -198.5q0 -136 -57 -208q-52 -64 -137 -64q-37 0 -65 12t-51 37v-215h-136v693zM176 255q0 -66 15 -110q21 -62 73 -62q49 0 72 57q8 23 12 49.5t4 65.5q0 94 -30 138q-23 32 -58 32q-36 0 -58 -31
q-30 -42 -30 -139z" />
    <glyph glyph-name="q" unicode="q" horiz-adv-x="519" 
d="M344 508h125v-693h-136v221q-24 -33 -58 -46q-23 -9 -57 -9q-110 0 -159 91q-37 71 -37 181q0 117 39 186q49 88 155 88q44 0 78 -21t47 -59zM338 255q0 94 -30 138q-23 32 -58 32q-36 0 -58 -31q-30 -42 -30 -139q0 -66 15 -110q21 -62 73 -62q49 0 72 57q8 23 12 49.5
t4 65.5z" />
    <glyph glyph-name="r" unicode="r" horiz-adv-x="338" 
d="M339 527v-103l-21 2h-17q-72 0 -99 -63q-10 -24 -15 -61t-5 -94v-208h-136v508h136v-66q30 85 136 85h21z" />
    <glyph glyph-name="s" unicode="s" horiz-adv-x="443" 
d="M15 160h139q0 -45 24 -65q15 -12 45 -12l27 3q35 11 35 51q0 37 -18.5 49.5t-92.5 27.5q-94 18 -128 67q-21 30 -21 90q0 58 28 95q47 61 166 61q82 0 122 -23q67 -37 67 -136h-124q0 34 -18 48q-12 9 -39 9q-35 0 -48.5 -12.5t-13.5 -31.5q0 -37 24 -52q12 -7 72 -20
q89 -15 120 -41q45 -33 45 -114q0 -86 -50.5 -129.5t-150.5 -43.5q-120 0 -171 57q-39 44 -39 122z" />
    <glyph glyph-name="t" unicode="t" horiz-adv-x="300" 
d="M-2 406v102h74v152h135v-152h87v-102h-87v-244q0 -35 6 -52t35 -17l23 3l23 9v-104l-53 -10l-54 -5q-74 0 -101 53q-14 31 -14 95v272h-74z" />
    <glyph glyph-name="u" unicode="u" horiz-adv-x="501" 
d="M315 0v44q-51 -63 -129 -63q-65 0 -100 39q-21 25 -32 67t-11 103v318h136v-294q0 -70 11.5 -100.5t49.5 -30.5q44 0 62 44q13 36 13 96v285h136v-508h-136z" />
    <glyph glyph-name="v" unicode="v" horiz-adv-x="396" 
d="M199 161l77 347h145l-148 -508h-148l-149 508h146z" />
    <glyph glyph-name="w" unicode="w" horiz-adv-x="619" 
d="M310 315l-61 -315h-140l-133 508h147l62 -317l60 317h130l60 -317l62 317h147l-133 -508h-140z" />
    <glyph glyph-name="x" unicode="x" horiz-adv-x="427" 
d="M214 343l68 165h153l-144 -245l151 -263h-152l-77 173l-76 -173h-152l152 263l-145 245h153z" />
    <glyph glyph-name="y" unicode="y" horiz-adv-x="431" 
d="M61 -184v106q18 -12 46 -12q24 0 38 23q6 10 15 48l6 25l-177 502h160l86 -324l67 324h144l-142 -535q-21 -80 -39 -108q-36 -59 -111 -59q-52 0 -93 10z" />
    <glyph glyph-name="z" unicode="z" horiz-adv-x="406" 
d="M29 406v102h354v-99l-214 -307h224v-102h-382v100l217 306h-199z" />
    <glyph glyph-name="braceleft" unicode="{" horiz-adv-x="434" 
d="M117 250v92q37 0 56 43q15 36 15 87l-1 53l-2 50q0 98 57 139q38 25 103 25v-71q-33 -9 -44.5 -35t-11.5 -58l2 -64l2 -53q0 -47 -16 -82q-23 -50 -76 -75v-11q48 -26 70 -62q10 -17 16 -41t6 -54l-2 -62l-2 -56l3 -30q12 -52 53 -61v-72q-72 0 -108 27q-52 40 -52 136
l1 58l2 46q0 46 -10 76q-18 55 -61 55z" />
    <glyph glyph-name="bar" unicode="|" horiz-adv-x="437" 
d="M174 -224v1053h78v-1053h-78z" />
    <glyph glyph-name="braceright" unicode="}" horiz-adv-x="436" 
d="M311 342v-92q-33 0 -52.5 -35t-19.5 -96l1 -54l3 -50q0 -80 -38.5 -121.5t-121.5 -41.5v72q31 6 46 39q10 25 10 52l-2 56l-2 62q0 35 4 56t16 39q19 32 71 62v11q-48 24 -69.5 60.5t-21.5 96.5l2 62l2 55q0 36 -12 58t-44 35v71q62 0 100 -24q60 -39 60 -140l-2 -38
l-2 -65q0 -26 3 -46.5t11 -38.5q18 -45 58 -45z" />
    <glyph glyph-name="asciitilde" unicode="~" horiz-adv-x="404" 
d="M271 410h93q0 -46 -23 -85q-29 -49 -79 -49q-14 0 -21 1t-17.5 4.5l-16.5 5.5t-22 10l-19 7l-13 2q-12 0 -19 -8q-5 -8 -6 -19h-91q0 35 9.5 61t27.5 45q24 27 65 27q14 0 21 -1t20 -5t17 -5.5t18 -9.5l20 -9l14 -2q9 0 15 9t7 21z" />
    <glyph glyph-name="c128" horiz-adv-x="745" 
d="M202 0v564h-169v136h484v-136h-168v-148q31 3 60 5t58 2q80 0 134 -36q80 -56 80 -190q0 -108 -58 -166q-51 -51 -136 -51q-16 0 -35.5 3.5t-43.5 13.5v125q27 -10 44 -10q33 0 52 20q10 11 15 26t5 38q0 56 -23.5 73.5t-70.5 17.5l-38 -2q-18 0 -43 -5v-280h-147z" />
    <glyph glyph-name="c128" unicode="&#x402;" horiz-adv-x="745" 
d="M202 0v564h-169v136h484v-136h-168v-148q31 3 60 5t58 2q80 0 134 -36q80 -56 80 -190q0 -108 -58 -166q-51 -51 -136 -51q-16 0 -35.5 3.5t-43.5 13.5v125q27 -10 44 -10q33 0 52 20q10 11 15 26t5 38q0 56 -23.5 73.5t-70.5 17.5l-38 -2q-18 0 -43 -5v-280h-147z" />
    <glyph glyph-name="c129" horiz-adv-x="447" 
d="M206 564v-564h-146v700h388v-136h-242z" />
    <glyph glyph-name="c129" unicode="&#x403;" horiz-adv-x="447" 
d="M206 564v-564h-146v700h388v-136h-242z" />
    <glyph glyph-name="c141" horiz-adv-x="542" 
d="M210 406l177 294h167l-225 -320l238 -380h-174l-183 342h-4v-342h-146v700h146v-294h4z" />
    <glyph glyph-name="c141" unicode="&#x40c;" horiz-adv-x="542" 
d="M210 406l177 294h167l-225 -320l238 -380h-174l-183 342h-4v-342h-146v700h146v-294h4z" />
    <glyph glyph-name="c142" horiz-adv-x="734" 
d="M670 0h-146v169q0 69 -20.5 93.5t-70.5 24.5q-46 0 -84 -7v-280h-146v564h-170v136h484v-136h-168v-148l73 5h22q13 0 23 2q126 0 173 -66q30 -44 30 -143v-214z" />
    <glyph glyph-name="c142" unicode="&#x40b;" horiz-adv-x="734" 
d="M670 0h-146v169q0 69 -20.5 93.5t-70.5 24.5q-46 0 -84 -7v-280h-146v564h-170v136h484v-136h-168v-148l73 5h22q13 0 23 2q126 0 173 -66q30 -44 30 -143v-214z" />
    <glyph glyph-name="c143" horiz-adv-x="614" 
d="M404 136v564h146v-700h-180v-158h-130v158h-180v700h146v-564h198z" />
    <glyph glyph-name="c143" unicode="&#x40f;" horiz-adv-x="614" 
d="M404 136v564h146v-700h-180v-158h-130v158h-180v700h146v-564h198z" />
    <glyph glyph-name="c144" horiz-adv-x="508" 
d="M184 700v-59h190v-60h-190v-119q19 32 54 49q18 8 35.5 12t40.5 4q84 0 115.5 -69.5t31.5 -248.5q0 -128 -9 -190q-15 -95 -57 -146q-50 -58 -148 -58v102h15q36 0 51 72q10 53 10 142v11l-1 34v31v46q0 91 -9 124q-12 48 -55 48t-61 -45q-13 -36 -13 -94v-286h-136v581
h-63v60h63v59h136z" />
    <glyph glyph-name="c144" unicode="&#x452;" horiz-adv-x="508" 
d="M184 700v-59h190v-60h-190v-119q19 32 54 49q18 8 35.5 12t40.5 4q84 0 115.5 -69.5t31.5 -248.5q0 -128 -9 -190q-15 -95 -57 -146q-50 -58 -148 -58v102h15q36 0 51 72q10 53 10 142v11l-1 34v31v46q0 91 -9 124q-12 48 -55 48t-61 -45q-13 -36 -13 -94v-286h-136v581
h-63v60h63v59h136z" />
    <glyph glyph-name="c157" horiz-adv-x="431" 
d="M186 304l116 204h146l-167 -238l175 -270h-154l-116 222h-4v-222h-136v508h136v-204h4z" />
    <glyph glyph-name="c157" unicode="&#x45c;" horiz-adv-x="431" 
d="M186 304l116 204h146l-167 -238l175 -270h-154l-116 222h-4v-222h-136v508h136v-204h4z" />
    <glyph glyph-name="c158" horiz-adv-x="503" 
d="M184 700v-59h190v-60h-190v-119q20 32 55.5 48.5t74.5 16.5q77 0 109.5 -49t32.5 -159v-319h-136v294q0 83 -15 107t-47 24q-44 0 -62 -45q-12 -30 -12 -94v-286h-136v581h-63v60h63v59h136z" />
    <glyph glyph-name="c158" unicode="&#x45b;" horiz-adv-x="503" 
d="M184 700v-59h190v-60h-190v-119q20 32 55.5 48.5t74.5 16.5q77 0 109.5 -49t32.5 -159v-319h-136v294q0 83 -15 107t-47 24q-44 0 -62 -45q-12 -30 -12 -94v-286h-136v581h-63v60h63v59h136z" />
    <glyph glyph-name="nonbreakingspace" unicode="&#xa0;" horiz-adv-x="500" 
 />
    <glyph glyph-name="exclamdown" unicode="&#xa1;" horiz-adv-x="497" 
d="M275 359l91 341h156l-182 -557q-32 -97 -83 -132q-35 -24 -98 -24q-23 0 -44.5 3t-46.5 11v139l27 -10l37 -4q36 0 55 38q6 14 9 30l-207 506h171zM100 872h102q0 -33 17 -50t46 -17q34 0 51 24q11 17 11 43h103q0 -75 -62 -112q-46 -26 -103 -26q-71 0 -118 36.5
t-47 101.5z" />
    <glyph glyph-name="exclamdown" unicode="&#x40e;" horiz-adv-x="497" 
d="M275 359l91 341h156l-182 -557q-32 -97 -83 -132q-35 -24 -98 -24q-23 0 -44.5 3t-46.5 11v139l27 -10l37 -4q36 0 55 38q6 14 9 30l-207 506h171zM100 872h102q0 -33 17 -50t46 -17q34 0 51 24q11 17 11 43h103q0 -75 -62 -112q-46 -26 -103 -26q-71 0 -118 36.5
t-47 101.5z" />
    <glyph glyph-name="cent" unicode="&#xa2;" horiz-adv-x="431" 
d="M61 -184v106q18 -12 46 -12q24 0 38 23q6 10 15 48l6 25l-177 502h160l86 -324l67 324h144l-142 -535q-21 -80 -39 -108q-36 -59 -111 -59q-52 0 -93 10zM65 700h102q0 -31 16 -50q17 -17 47 -17q28 0 45.5 15t17.5 52h102q0 -75 -64 -112q-46 -26 -101 -26
q-88 0 -132 50q-33 38 -33 88z" />
    <glyph glyph-name="cent" unicode="&#x45e;" horiz-adv-x="431" 
d="M61 -184v106q18 -12 46 -12q24 0 38 23q6 10 15 48l6 25l-177 502h160l86 -324l67 324h144l-142 -535q-21 -80 -39 -108q-36 -59 -111 -59q-52 0 -93 10zM65 700h102q0 -31 16 -50q17 -17 47 -17q28 0 45.5 15t17.5 52h102q0 -75 -64 -112q-46 -26 -101 -26
q-88 0 -132 50q-33 38 -33 88z" />
    <glyph glyph-name="sterling" unicode="&#xa3;" horiz-adv-x="474" 
d="M11 258h146v-28q0 -68 12.5 -91t47.5 -23q31 0 43.5 22.5t12.5 91.5v470h146v-447q0 -143 -40 -204q-45 -69 -160 -69q-125 0 -174 79q-16 27 -25 66t-9 89v44z" />
    <glyph glyph-name="sterling" unicode="&#x408;" horiz-adv-x="474" 
d="M11 258h146v-28q0 -68 12.5 -91t47.5 -23q31 0 43.5 22.5t12.5 91.5v470h146v-447q0 -143 -40 -204q-45 -69 -160 -69q-125 0 -174 79q-16 27 -25 66t-9 89v44z" />
    <glyph glyph-name="currency" unicode="&#xa4;" horiz-adv-x="799" 
d="M51 53l111 111q-26 36 -39 79.5t-13 86.5q0 52 15 97q12 36 37 69l-111 112l66 66l110 -112q37 29 83 44q47 13 87 13q26 0 47.5 -3t43.5 -11q41 -12 79 -43l111 112l66 -66l-111 -112q26 -35 39.5 -81t13.5 -85q0 -21 -3 -41.5t-10 -43.5q-12 -43 -40 -81l111 -111
l-66 -66l-111 111q-27 -21 -56 -34q-53 -22 -114 -22q-60 0 -113 22q-31 12 -57 34l-110 -111zM184 330q0 -44 15 -81t47 -70q62 -63 151 -63q87 0 151 63t64 151q0 87 -64 151t-151 64t-150 -64t-63 -151z" />
    <glyph glyph-name="yen" unicode="&#xa5;" horiz-adv-x="447" 
d="M206 564v-564h-146v700h252v158h130l6 -294h-242z" />
    <glyph glyph-name="yen" unicode="&#x490;" horiz-adv-x="447" 
d="M206 564v-564h-146v700h252v158h130l6 -294h-242z" />
    <glyph glyph-name="brokenbar" unicode="&#xa6;" 
d="M91 350v158h146v-158h-146zM91 0v158h146v-158h-146z" />
    <glyph glyph-name="section" unicode="&#xa7;" horiz-adv-x="502" 
d="M414 530h-113q0 38 -16 59q-11 17 -36 17q-22 0 -34.5 -15.5t-12.5 -43.5q0 -38 31 -53l91 -36q71 -28 104 -71t33 -114q0 -46 -12 -79q-18 -52 -71 -84q23 -26 33.5 -49t10.5 -57q0 -73 -41 -121q-47 -56 -132 -56q-99 0 -143 65q-34 51 -34 134h114q0 -55 26 -75
q14 -11 37 -11q18 0 32 9q20 15 20 52q0 31 -19 47t-83 39q-77 26 -108 56q-53 50 -53 144q0 53 22.5 93t62.5 58q-21 20 -32 51q-9 30 -9 60q0 64 32 105q44 57 135 57q83 0 124 -46t41 -135zM311 181q17 9 29 25.5t12 47.5q0 28 -16.5 48.5t-52.5 35.5l-93 35
q-27 -12 -36 -41l-4 -31q0 -37 20 -57q14 -15 48 -29z" />
    <glyph glyph-name="dieresis" unicode="&#xa8;" horiz-adv-x="533" 
d="M206 422h274v-129h-274v-157h318v-136h-464v700h456v-136h-310v-142zM137 872h119v-106h-119v106zM326 872h120v-106h-120v106z" />
    <glyph glyph-name="dieresis" unicode="&#x401;" horiz-adv-x="533" 
d="M206 422h274v-129h-274v-157h318v-136h-464v700h456v-136h-310v-142zM137 872h119v-106h-119v106zM326 872h120v-106h-120v106z" />
    <glyph glyph-name="copyright" unicode="&#xa9;" horiz-adv-x="779" 
d="M38 350q0 71 25 133.5t76 113.5q103 103 249 103q143 0 246.5 -102.5t103.5 -247.5q0 -144 -102.5 -247t-247.5 -103t-247.5 102.5t-102.5 247.5zM122 350q0 -114 78 -196t188 -82t187.5 80.5t77.5 197.5q0 116 -77.5 197t-187.5 81q-111 0 -188.5 -80.5t-77.5 -197.5z
M536 297q-12 -73 -56 -102q-16 -11 -38 -17t-50 -6q-90 0 -134 63q-16 25 -24 52.5t-8 63.5q0 102 56 151q43 37 106 37q51 0 90 -24q49 -31 49 -91h-78q0 20 -15.5 34.5t-45.5 14.5q-38 0 -59 -39q-15 -30 -15 -83q0 -61 26 -90q21 -23 53 -23q29 0 45 19t16 40h82z" />
    <glyph glyph-name="ordfeminine" unicode="&#xaa;" horiz-adv-x="615" 
d="M427 416v-128h-244q0 -90 32 -131t100 -41q57 0 90 33q24 24 30 65h153q-21 -144 -122 -200q-62 -34 -151 -34q-71 0 -122 21q-72 30 -114 105q-52 96 -52 253q0 217 107 303q72 58 190 58q138 0 207 -90q44 -59 53 -143h-151q-6 50 -38.5 73.5t-79.5 23.5q-50 0 -81 -25
q-51 -41 -51 -143h244z" />
    <glyph glyph-name="ordfeminine" unicode="&#x404;" horiz-adv-x="615" 
d="M427 416v-128h-244q0 -90 32 -131t100 -41q57 0 90 33q24 24 30 65h153q-21 -144 -122 -200q-62 -34 -151 -34q-71 0 -122 21q-72 30 -114 105q-52 96 -52 253q0 217 107 303q72 58 190 58q138 0 207 -90q44 -59 53 -143h-151q-6 50 -38.5 73.5t-79.5 23.5q-50 0 -81 -25
q-51 -41 -51 -143h244z" />
    <glyph glyph-name="guillemotleft" unicode="&#xab;" horiz-adv-x="416" 
d="M42 336l134 153v-150l-68 -71l68 -72v-150l-134 152v138zM223 336l134 153v-150l-67 -71l67 -72v-150l-134 152v138z" />
    <glyph glyph-name="logicalnot" unicode="&#xac;" horiz-adv-x="645" 
d="M38 390h566v-174h-85v94h-481v80z" />
    <glyph glyph-name="registered" unicode="&#xae;" horiz-adv-x="779" 
d="M38 350q0 143 102.5 246.5t247.5 103.5q144 0 247 -102t103 -248q0 -143 -102.5 -246.5t-247.5 -103.5q-143 0 -246.5 102t-103.5 248zM123 350q0 -118 77 -198t188 -80t188.5 80.5t77.5 197.5q0 114 -78 196t-188 82q-111 0 -188 -80t-77 -198zM260 178v350h155
q60 0 89 -32q24 -26 24 -66q0 -35 -20 -58q-13 -15 -37 -25q30 -7 42 -39q8 -21 8 -51v-41q0 -10 3.5 -19t11.5 -19h-86q-8 10 -13 27l-3 33v19q0 31 -10 42q-15 17 -64 17h-17v-138h-83zM343 467v-90h44q20 0 35 8q22 13 22 39q0 24 -16.5 33.5t-48.5 9.5h-36z" />
    <glyph glyph-name="macron" unicode="&#xaf;" horiz-adv-x="284" 
d="M67 700h146v-700h-146v700zM13 763v109h112v-109h-112zM157 763v109h112v-109h-112z" />
    <glyph glyph-name="macron" unicode="&#x407;" horiz-adv-x="284" 
d="M67 700h146v-700h-146v700zM13 763v109h112v-109h-112zM157 763v109h112v-109h-112z" />
    <glyph glyph-name="degree" unicode="&#xb0;" horiz-adv-x="270" 
d="M22 605q0 46 31.5 79t80.5 33q46 0 79 -32.5t33 -79.5q0 -45 -33 -79t-79 -34q-44 0 -78 33t-34 80zM81 605q0 -22 14 -37.5t39 -15.5q24 0 38.5 16t14.5 37t-16 37t-37 16q-18 0 -35.5 -14.5t-17.5 -38.5z" />
    <glyph glyph-name="plusminus" unicode="&#xb1;" horiz-adv-x="608" 
d="M344 165h-79v128h-214v80h214v158h79v-158h209v-80h-209v-128zM51 40v79h502v-79h-502z" />
    <glyph glyph-name="twosuperior" unicode="&#xb2;" horiz-adv-x="270" 
d="M60 700h146v-700h-146v700z" />
    <glyph glyph-name="twosuperior" unicode="&#x406;" horiz-adv-x="270" 
d="M60 700h146v-700h-146v700z" />
    <glyph glyph-name="threesuperior" unicode="&#xb3;" horiz-adv-x="230" 
d="M45 508h136v-508h-136v508zM43 581v119h140v-119h-140z" />
    <glyph glyph-name="threesuperior" unicode="&#x456;" horiz-adv-x="230" 
d="M45 508h136v-508h-136v508zM43 581v119h140v-119h-140z" />
    <glyph glyph-name="acute" unicode="&#xb4;" horiz-adv-x="369" 
d="M182 403v-403h-136v508h214v133h103l7 -238h-188z" />
    <glyph glyph-name="acute" unicode="&#x491;" horiz-adv-x="369" 
d="M182 403v-403h-136v508h214v133h103l7 -238h-188z" />
    <glyph glyph-name="mu" unicode="&#xb5;" horiz-adv-x="501" 
d="M182 -185h-136v693h136v-266q0 -69 9 -104q15 -55 60 -55q53 0 65 78q3 21 3 81v266h135v-508h-135v26q-10 -16 -30 -30q-8 -5 -18.5 -9t-19.5 -4q-21 0 -40 12.5t-29 37.5v-218z" />
    <glyph glyph-name="paragraph" unicode="&#xb6;" horiz-adv-x="388" 
d="M154 -185v556q-60 0 -101.5 45.5t-41.5 118.5q0 70 41.5 117.5t108.5 47.5h71v-885h-78zM282 -185v885h78v-885h-78z" />
    <glyph glyph-name="periodcentered" unicode="&#xb7;" 
d="M91 189v158h146v-158h-146z" />
    <glyph glyph-name="periodcentered" unicode="&#x2219;" 
d="M91 189v158h146v-158h-146z" />
    <glyph glyph-name="cedilla" unicode="&#xb8;" horiz-adv-x="498" 
d="M329 147h136q-23 -102 -94 -141q-47 -25 -124 -25q-90 0 -143 43q-82 67 -82 231q0 126 63 199t172 73q89 0 142 -49q75 -69 75 -233v-28h-312q0 -80 31 -112q22 -22 60 -22q31 0 45 10q20 13 31 54zM162 302h172q0 73 -23 100q-18 23 -58 23q-49 0 -74 -47
q-17 -34 -17 -76zM84 581v119h140v-119h-140zM289 581v119h140v-119h-140z" />
    <glyph glyph-name="cedilla" unicode="&#x451;" horiz-adv-x="498" 
d="M329 147h136q-23 -102 -94 -141q-47 -25 -124 -25q-90 0 -143 43q-82 67 -82 231q0 126 63 199t172 73q89 0 142 -49q75 -69 75 -233v-28h-312q0 -80 31 -112q22 -22 60 -22q31 0 45 10q20 13 31 54zM162 302h172q0 73 -23 100q-18 23 -58 23q-49 0 -74 -47
q-17 -34 -17 -76zM84 581v119h140v-119h-140zM289 581v119h140v-119h-140z" />
    <glyph glyph-name="onesuperior" unicode="&#xb9;" horiz-adv-x="938" 
d="M608 0v119h295v-119h-295zM214 418h-8v-418h-146v700h147l201 -415h9v415h146v-700h-148zM603 374q0 94 42 147t111 53q54 0 96 -36q59 -51 59 -164q0 -107 -53 -159q-41 -41 -102 -41q-54 0 -95 37q-58 53 -58 163zM701 374q0 -60 15.5 -90.5t39.5 -30.5t40 29
q8 15 12 36.5t4 55.5q0 57 -15.5 89t-40.5 32q-20 0 -35 -22q-20 -31 -20 -99z" />
    <glyph glyph-name="onesuperior" unicode="&#x2116;" horiz-adv-x="938" 
d="M608 0v119h295v-119h-295zM214 418h-8v-418h-146v700h147l201 -415h9v415h146v-700h-148zM603 374q0 94 42 147t111 53q54 0 96 -36q59 -51 59 -164q0 -107 -53 -159q-41 -41 -102 -41q-54 0 -95 37q-58 53 -58 163zM701 374q0 -60 15.5 -90.5t39.5 -30.5t40 29
q8 15 12 36.5t4 55.5q0 57 -15.5 89t-40.5 32q-20 0 -35 -22q-20 -31 -20 -99z" />
    <glyph glyph-name="ordmasculine" unicode="&#xba;" horiz-adv-x="485" 
d="M324 308v-102h-162q0 -73 28 -102q20 -21 60 -21t62 25q16 19 22 53h130q-12 -104 -81 -149q-24 -15 -57 -23t-76 -8q-90 0 -140 35q-88 62 -88 232q0 174 91 241q52 38 138 38q74 0 121 -22q90 -42 90 -154h-127q0 27 -14 45q-21 29 -69 29q-50 0 -74 -42
q-16 -32 -16 -75h162z" />
    <glyph glyph-name="ordmasculine" unicode="&#x454;" horiz-adv-x="485" 
d="M324 308v-102h-162q0 -73 28 -102q20 -21 60 -21t62 25q16 19 22 53h130q-12 -104 -81 -149q-24 -15 -57 -23t-76 -8q-90 0 -140 35q-88 62 -88 232q0 174 91 241q52 38 138 38q74 0 121 -22q90 -42 90 -154h-127q0 27 -14 45q-21 29 -69 29q-50 0 -74 -42
q-16 -32 -16 -75h162z" />
    <glyph glyph-name="guillemotright" unicode="&#xbb;" horiz-adv-x="416" 
d="M176 336v-138l-134 -152v150l68 72l-68 71v150zM357 336v-138l-134 -152v150l68 72l-68 71v150z" />
    <glyph glyph-name="onequarter" unicode="&#xbc;" horiz-adv-x="212" 
d="M27 508h136l1 -533q0 -97 -37 -137q-29 -30 -88 -30h-22q-13 0 -25 2q-12 0 -36 6v103l19 -4q33 0 45 21q7 16 7 54v518zM25 581v119h140v-119h-140z" />
    <glyph glyph-name="onequarter" unicode="&#x458;" horiz-adv-x="212" 
d="M27 508h136l1 -533q0 -97 -37 -137q-29 -30 -88 -30h-22q-13 0 -25 2q-12 0 -36 6v103l19 -4q33 0 45 21q7 16 7 54v518zM25 581v119h140v-119h-140z" />
    <glyph glyph-name="onehalf" unicode="&#xbd;" horiz-adv-x="537" 
d="M20 227h148q0 -70 38 -96q21 -15 67 -15q40 0 60 10q33 17 33 62q0 59 -62 86l-76 23q-108 30 -149 74t-41 142q0 85 40 135q57 72 197 72q129 0 185 -83q35 -53 35 -129h-139q0 45 -31 64q-21 12 -57 12q-35 0 -57.5 -13.5t-22.5 -53.5q0 -36 20 -52.5t85 -33.5
q128 -30 175 -78t47 -140q0 -96 -40 -151q-59 -82 -204 -82q-115 0 -174 47q-77 60 -77 200z" />
    <glyph glyph-name="onehalf" unicode="&#x405;" horiz-adv-x="537" 
d="M20 227h148q0 -70 38 -96q21 -15 67 -15q40 0 60 10q33 17 33 62q0 59 -62 86l-76 23q-108 30 -149 74t-41 142q0 85 40 135q57 72 197 72q129 0 185 -83q35 -53 35 -129h-139q0 45 -31 64q-21 12 -57 12q-35 0 -57.5 -13.5t-22.5 -53.5q0 -36 20 -52.5t85 -33.5
q128 -30 175 -78t47 -140q0 -96 -40 -151q-59 -82 -204 -82q-115 0 -174 47q-77 60 -77 200z" />
    <glyph glyph-name="threequarters" unicode="&#xbe;" horiz-adv-x="443" 
d="M15 160h139q0 -45 24 -65q15 -12 45 -12l27 3q35 11 35 51q0 37 -18.5 49.5t-92.5 27.5q-94 18 -128 67q-21 30 -21 90q0 58 28 95q47 61 166 61q82 0 122 -23q67 -37 67 -136h-124q0 34 -18 48q-12 9 -39 9q-35 0 -48.5 -12.5t-13.5 -31.5q0 -37 24 -52q12 -7 72 -20
q89 -15 120 -41q45 -33 45 -114q0 -86 -50.5 -129.5t-150.5 -43.5q-120 0 -171 57q-39 44 -39 122z" />
    <glyph glyph-name="threequarters" unicode="&#x455;" horiz-adv-x="443" 
d="M15 160h139q0 -45 24 -65q15 -12 45 -12l27 3q35 11 35 51q0 37 -18.5 49.5t-92.5 27.5q-94 18 -128 67q-21 30 -21 90q0 58 28 95q47 61 166 61q82 0 122 -23q67 -37 67 -136h-124q0 34 -18 48q-12 9 -39 9q-35 0 -48.5 -12.5t-13.5 -31.5q0 -37 24 -52q12 -7 72 -20
q89 -15 120 -41q45 -33 45 -114q0 -86 -50.5 -129.5t-150.5 -43.5q-120 0 -171 57q-39 44 -39 122z" />
    <glyph glyph-name="questiondown" unicode="&#xbf;" horiz-adv-x="288" 
d="M75 508h136v-508h-136v508zM13 581v119h112v-119h-112zM161 581v119h112v-119h-112z" />
    <glyph glyph-name="questiondown" unicode="&#x457;" horiz-adv-x="288" 
d="M75 508h136v-508h-136v508zM13 581v119h112v-119h-112zM161 581v119h112v-119h-112z" />
    <glyph glyph-name="Agrave" unicode="&#xc0;" horiz-adv-x="518" 
d="M186 700h147l210 -700h-153l-36 131h-190l-35 -131h-153zM193 250h132l-66 262z" />
    <glyph glyph-name="Agrave" unicode="&#x410;" horiz-adv-x="518" 
d="M186 700h147l210 -700h-153l-36 131h-190l-35 -131h-153zM193 250h132l-66 262z" />
    <glyph glyph-name="Aacute" unicode="&#xc1;" horiz-adv-x="581" 
d="M206 564v-124h128q79 0 130 -30q90 -54 90 -199q0 -78 -31 -127q-53 -84 -189 -84h-274v700h449v-136h-303zM206 304v-168h100q48 0 70 17t22 62q0 54 -31 75q-22 14 -58 14h-103z" />
    <glyph glyph-name="Aacute" unicode="&#x411;" horiz-adv-x="581" 
d="M206 564v-124h128q79 0 130 -30q90 -54 90 -199q0 -78 -31 -127q-53 -84 -189 -84h-274v700h449v-136h-303zM206 304v-168h100q48 0 70 17t22 62q0 54 -31 75q-22 14 -58 14h-103z" />
    <glyph glyph-name="Acircumflex" unicode="&#xc2;" horiz-adv-x="591" 
d="M60 700h288q103 0 148 -60q32 -43 32 -118q0 -56 -31 -96q-27 -35 -71 -48v-4q41 -9 74 -36q55 -49 55 -142q0 -114 -71 -161q-53 -35 -151 -35h-273v700zM206 564v-140h115q28 0 42 20q5 8 10.5 20t5.5 32q0 32 -14 50t-50 18h-109zM206 295v-159h128q29 0 48.5 19.5
t19.5 59.5q0 41 -21 60.5t-62 19.5h-113z" />
    <glyph glyph-name="Acircumflex" unicode="&#x412;" horiz-adv-x="591" 
d="M60 700h288q103 0 148 -60q32 -43 32 -118q0 -56 -31 -96q-27 -35 -71 -48v-4q41 -9 74 -36q55 -49 55 -142q0 -114 -71 -161q-53 -35 -151 -35h-273v700zM206 564v-140h115q28 0 42 20q5 8 10.5 20t5.5 32q0 32 -14 50t-50 18h-109zM206 295v-159h128q29 0 48.5 19.5
t19.5 59.5q0 41 -21 60.5t-62 19.5h-113z" />
    <glyph glyph-name="Atilde" unicode="&#xc3;" horiz-adv-x="447" 
d="M206 564v-564h-146v700h388v-136h-242z" />
    <glyph glyph-name="Atilde" unicode="&#x413;" horiz-adv-x="447" 
d="M206 564v-564h-146v700h388v-136h-242z" />
    <glyph glyph-name="Adieresis" unicode="&#xc4;" horiz-adv-x="623" 
d="M545 136h79l-7 -294h-130v158h-365v-158h-131l-6 294h56q47 90 66 190q8 46 12 95.5t4 116.5v162h422v-564zM399 564h-137v-83q0 -63 -4 -114t-13 -91q-15 -76 -48 -140h202v428z" />
    <glyph glyph-name="Adieresis" unicode="&#x414;" horiz-adv-x="623" 
d="M545 136h79l-7 -294h-130v158h-365v-158h-131l-6 294h56q47 90 66 190q8 46 12 95.5t4 116.5v162h422v-564zM399 564h-137v-83q0 -63 -4 -114t-13 -91q-15 -76 -48 -140h202v428z" />
    <glyph glyph-name="Aring" unicode="&#xc5;" horiz-adv-x="533" 
d="M206 422h274v-129h-274v-157h318v-136h-464v700h456v-136h-310v-142z" />
    <glyph glyph-name="Aring" unicode="&#x415;" horiz-adv-x="533" 
d="M206 422h274v-129h-274v-157h318v-136h-464v700h456v-136h-310v-142z" />
    <glyph glyph-name="AE" unicode="&#xc6;" horiz-adv-x="767" 
d="M311 0v317h-4l-159 -317h-172l226 375l-219 325h167l157 -285h4v285h146v-285h4l157 285h167l-219 -325l226 -375h-172l-159 317h-4v-317h-146z" />
    <glyph glyph-name="AE" unicode="&#x416;" horiz-adv-x="767" 
d="M311 0v317h-4l-159 -317h-172l226 375l-219 325h167l157 -285h4v285h146v-285h4l157 285h167l-219 -325l226 -375h-172l-159 317h-4v-317h-146z" />
    <glyph glyph-name="Ccedilla" unicode="&#xc7;" horiz-adv-x="586" 
d="M20 241h142q0 -68 30.5 -96.5t94.5 -28.5q58 0 85 27q22 22 22 65q0 51 -31 72q-6 4 -16 7q-18 6 -42 6h-87v129h73q33 0 51 9q34 19 34 69q0 51 -35 71q-24 13 -61 13q-47 0 -67 -14q-34 -25 -34 -97h-143q0 132 60.5 189.5t192.5 57.5q138 0 200 -69q43 -49 43 -128
q0 -50 -17 -81q-27 -52 -99 -72v-4q73 -21 103.5 -60.5t30.5 -115.5q0 -128 -101 -179q-65 -31 -166 -31q-109 0 -172 44q-91 64 -91 217z" />
    <glyph glyph-name="Ccedilla" unicode="&#x417;" horiz-adv-x="586" 
d="M20 241h142q0 -68 30.5 -96.5t94.5 -28.5q58 0 85 27q22 22 22 65q0 51 -31 72q-6 4 -16 7q-18 6 -42 6h-87v129h73q33 0 51 9q34 19 34 69q0 51 -35 71q-24 13 -61 13q-47 0 -67 -14q-34 -25 -34 -97h-143q0 132 60.5 189.5t192.5 57.5q138 0 200 -69q43 -49 43 -128
q0 -50 -17 -81q-27 -52 -99 -72v-4q73 -21 103.5 -60.5t30.5 -115.5q0 -128 -101 -179q-65 -31 -166 -31q-109 0 -172 44q-91 64 -91 217z" />
    <glyph glyph-name="Egrave" unicode="&#xc8;" horiz-adv-x="625" 
d="M206 255l210 445h145v-700h-146v450l-210 -450h-145v700h146v-445z" />
    <glyph glyph-name="Egrave" unicode="&#x418;" horiz-adv-x="625" 
d="M206 255l210 445h145v-700h-146v450l-210 -450h-145v700h146v-445z" />
    <glyph glyph-name="Eacute" unicode="&#xc9;" horiz-adv-x="625" 
d="M206 255l210 445h145v-700h-146v450l-210 -450h-145v700h146v-445zM145 872h103q0 -25 11 -42q16 -25 51 -25q34 0 51 24q12 18 12 43h103q-6 -67 -49 -102.5t-117 -35.5q-75 0 -120 37.5t-45 100.5z" />
    <glyph glyph-name="Eacute" unicode="&#x419;" horiz-adv-x="625" 
d="M206 255l210 445h145v-700h-146v450l-210 -450h-145v700h146v-445zM145 872h103q0 -25 11 -42q16 -25 51 -25q34 0 51 24q12 18 12 43h103q-6 -67 -49 -102.5t-117 -35.5q-75 0 -120 37.5t-45 100.5z" />
    <glyph glyph-name="Ecircumflex" unicode="&#xca;" horiz-adv-x="542" 
d="M210 406l177 294h167l-225 -320l238 -380h-174l-183 342h-4v-342h-146v700h146v-294h4z" />
    <glyph glyph-name="Ecircumflex" unicode="&#x41a;" horiz-adv-x="542" 
d="M210 406l177 294h167l-225 -320l238 -380h-174l-183 342h-4v-342h-146v700h146v-294h4z" />
    <glyph glyph-name="Edieresis" unicode="&#xcb;" horiz-adv-x="625" 
d="M-2 1v136l29 -3q67 0 90 84q11 44 11 148l4 334h429v-700h-146v564h-144l-4 -244q0 -131 -30 -205q-48 -120 -176 -120q-27 0 -63 6z" />
    <glyph glyph-name="Edieresis" unicode="&#x41b;" horiz-adv-x="625" 
d="M-2 1v136l29 -3q67 0 90 84q11 44 11 148l4 334h429v-700h-146v564h-144l-4 -244q0 -131 -30 -205q-48 -120 -176 -120q-27 0 -63 6z" />
    <glyph glyph-name="Igrave" unicode="&#xcc;" horiz-adv-x="776" 
d="M335 0l-126 450l-3 -450h-146v700h199l127 -457l127 457h199v-700h-146v450l-128 -450h-103z" />
    <glyph glyph-name="Igrave" unicode="&#x41c;" horiz-adv-x="776" 
d="M335 0l-126 450l-3 -450h-146v700h199l127 -457l127 457h199v-700h-146v450l-128 -450h-103z" />
    <glyph glyph-name="Iacute" unicode="&#xcd;" horiz-adv-x="605" 
d="M206 301v-301h-146v700h146v-263h189v263h146v-700h-146v301h-189z" />
    <glyph glyph-name="Iacute" unicode="&#x41d;" horiz-adv-x="605" 
d="M206 301v-301h-146v700h146v-263h189v263h146v-700h-146v301h-189z" />
    <glyph glyph-name="Icircumflex" unicode="&#xce;" horiz-adv-x="637" 
d="M317 -20q-119 0 -193 72q-57 57 -81 155q-8 35 -12 67.5t-4 75.5q0 78 16 142q24 99 80 155q73 73 194 73q160 0 234 -123q56 -94 56 -247q0 -154 -55 -246q-73 -124 -235 -124zM317 116q57 0 89 38q45 56 45 196q0 141 -46 196q-32 38 -88 38q-57 0 -88 -37
q-45 -54 -45 -197q0 -141 44 -195q30 -39 89 -39z" />
    <glyph glyph-name="Icircumflex" unicode="&#x41e;" horiz-adv-x="637" 
d="M317 -20q-119 0 -193 72q-57 57 -81 155q-8 35 -12 67.5t-4 75.5q0 78 16 142q24 99 80 155q73 73 194 73q160 0 234 -123q56 -94 56 -247q0 -154 -55 -246q-73 -124 -235 -124zM317 116q57 0 89 38q45 56 45 196q0 141 -46 196q-32 38 -88 38q-57 0 -88 -37
q-45 -54 -45 -197q0 -141 44 -195q30 -39 89 -39z" />
    <glyph glyph-name="Idieresis" unicode="&#xcf;" horiz-adv-x="613" 
d="M206 564v-564h-146v700h489v-700h-146v564h-197z" />
    <glyph glyph-name="Idieresis" unicode="&#x41f;" horiz-adv-x="613" 
d="M206 564v-564h-146v700h489v-700h-146v564h-197z" />
    <glyph glyph-name="Eth" unicode="&#xd0;" horiz-adv-x="559" 
d="M60 700h268q98 0 154 -48q64 -56 64 -178q0 -142 -83 -198q-52 -35 -138 -35h-119v-241h-146v700zM206 564v-187h96q46 0 67 22.5t21 73.5q0 60 -33 81q-18 10 -55 10h-96z" />
    <glyph glyph-name="Eth" unicode="&#x420;" horiz-adv-x="559" 
d="M60 700h268q98 0 154 -48q64 -56 64 -178q0 -142 -83 -198q-52 -35 -138 -35h-119v-241h-146v700zM206 564v-187h96q46 0 67 22.5t21 73.5q0 60 -33 81q-18 10 -55 10h-96z" />
    <glyph glyph-name="Ntilde" unicode="&#xd1;" horiz-adv-x="583" 
d="M425 247h145q-12 -134 -75 -200.5t-187 -66.5q-134 0 -205 81q-76 90 -76 276q0 160 53 256q70 127 224 127q153 0 219 -105q40 -66 40 -153h-143q-6 68 -37 98q-24 24 -73 24t-80 -37q-47 -58 -47 -204q0 -134 48 -190q32 -37 83 -37q48 0 75 28.5t36 102.5z" />
    <glyph glyph-name="Ntilde" unicode="&#x421;" horiz-adv-x="583" 
d="M425 247h145q-12 -134 -75 -200.5t-187 -66.5q-134 0 -205 81q-76 90 -76 276q0 160 53 256q70 127 224 127q153 0 219 -105q40 -66 40 -153h-143q-6 68 -37 98q-24 24 -73 24t-80 -37q-47 -58 -47 -204q0 -134 48 -190q32 -37 83 -37q48 0 75 28.5t36 102.5z" />
    <glyph glyph-name="Ograve" unicode="&#xd2;" horiz-adv-x="481" 
d="M168 564h-170v136h484v-136h-168v-564h-146v564z" />
    <glyph glyph-name="Ograve" unicode="&#x422;" horiz-adv-x="481" 
d="M168 564h-170v136h484v-136h-168v-564h-146v564z" />
    <glyph glyph-name="Oacute" unicode="&#xd3;" horiz-adv-x="497" 
d="M275 359l91 341h156l-182 -557q-32 -97 -83 -132q-35 -24 -98 -24q-23 0 -44.5 3t-46.5 11v139l27 -10l37 -4q36 0 55 38q6 14 9 30l-207 506h171z" />
    <glyph glyph-name="Oacute" unicode="&#x423;" horiz-adv-x="497" 
d="M275 359l91 341h156l-182 -557q-32 -97 -83 -132q-35 -24 -98 -24q-23 0 -44.5 3t-46.5 11v139l27 -10l37 -4q36 0 55 38q6 14 9 30l-207 506h171z" />
    <glyph glyph-name="Ocircumflex" unicode="&#xd4;" horiz-adv-x="748" 
d="M300 -26v99h-15q-135 0 -207 85q-63 75 -63 199q0 119 63 197q72 87 207 87h15v99h146v-99h14q126 0 196 -73q75 -78 75 -211q0 -132 -72 -208t-199 -76h-14v-99h-146zM312 206v302h-4q-37 0 -57 -6q-84 -26 -84 -145q0 -61 19 -93q34 -58 122 -58h4zM434 206
q72 0 108.5 36.5t36.5 114.5q0 76 -36.5 113.5t-105.5 37.5z" />
    <glyph glyph-name="Ocircumflex" unicode="&#x424;" horiz-adv-x="748" 
d="M300 -26v99h-15q-135 0 -207 85q-63 75 -63 199q0 119 63 197q72 87 207 87h15v99h146v-99h14q126 0 196 -73q75 -78 75 -211q0 -132 -72 -208t-199 -76h-14v-99h-146zM312 206v302h-4q-37 0 -57 -6q-84 -26 -84 -145q0 -61 19 -93q34 -58 122 -58h4zM434 206
q72 0 108.5 36.5t36.5 114.5q0 76 -36.5 113.5t-105.5 37.5z" />
    <glyph glyph-name="Otilde" unicode="&#xd5;" horiz-adv-x="546" 
d="M273 248l-109 -248h-179l197 364l-179 336h169l101 -236l101 236h170l-180 -336l197 -364h-179z" />
    <glyph glyph-name="Otilde" unicode="&#x425;" horiz-adv-x="546" 
d="M273 248l-109 -248h-179l197 364l-179 336h169l101 -236l101 236h170l-180 -336l197 -364h-179z" />
    <glyph glyph-name="Odieresis" unicode="&#xd6;" horiz-adv-x="633" 
d="M206 136h203v564h146v-564h79l-6 -294h-130v158h-438v700h146v-564z" />
    <glyph glyph-name="Odieresis" unicode="&#x426;" horiz-adv-x="633" 
d="M206 136h203v564h146v-564h79l-6 -294h-130v158h-438v700h146v-564z" />
    <glyph glyph-name="multiply" unicode="&#xd7;" horiz-adv-x="565" 
d="M33 700h146v-169q0 -67 21.5 -92.5t70.5 -25.5q45 0 84 7v280h146v-700h-146v284l-60 -5l-59 -2q-101 0 -148 39q-55 47 -55 170v214z" />
    <glyph glyph-name="multiply" unicode="&#x427;" horiz-adv-x="565" 
d="M33 700h146v-169q0 -67 21.5 -92.5t70.5 -25.5q45 0 84 7v280h146v-700h-146v284l-60 -5l-59 -2q-101 0 -148 39q-55 47 -55 170v214z" />
    <glyph glyph-name="Oslash" unicode="&#xd8;" horiz-adv-x="885" 
d="M207 136h160v564h147v-564h160v564h147v-700h-761v700h147v-564z" />
    <glyph glyph-name="Oslash" unicode="&#x428;" horiz-adv-x="885" 
d="M207 136h160v564h147v-564h160v564h147v-700h-761v700h147v-564z" />
    <glyph glyph-name="Ugrave" unicode="&#xd9;" horiz-adv-x="899" 
d="M207 136h160v564h147v-564h160v564h147v-564h79l-6 -288h-130v152h-704v700h147v-564z" />
    <glyph glyph-name="Ugrave" unicode="&#x429;" horiz-adv-x="899" 
d="M207 136h160v564h147v-564h160v564h147v-564h79l-6 -288h-130v152h-704v700h147v-564z" />
    <glyph glyph-name="Uacute" unicode="&#xda;" horiz-adv-x="613" 
d="M250 700v-254h133q87 0 141 -45q67 -58 67 -184q0 -112 -52 -164.5t-157 -52.5h-278v564h-106v136h252zM250 310v-174h105q46 0 66 27q14 20 14 60t-15 61q-20 26 -69 26h-101z" />
    <glyph glyph-name="Uacute" unicode="&#x42a;" horiz-adv-x="613" 
d="M250 700v-254h133q87 0 141 -45q67 -58 67 -184q0 -112 -52 -164.5t-157 -52.5h-278v564h-106v136h252zM250 310v-174h105q46 0 66 27q14 20 14 60t-15 61q-20 26 -69 26h-101z" />
    <glyph glyph-name="Ucircumflex" unicode="&#xdb;" horiz-adv-x="784" 
d="M206 700v-254h124q112 0 167 -64q49 -58 49 -165q0 -112 -52.5 -164.5t-162.5 -52.5h-271v700h146zM206 310v-174h105q42 0 60.5 23t18.5 64q0 43 -17 63q-20 24 -66 24h-101zM574 700h146v-700h-146v700z" />
    <glyph glyph-name="Ucircumflex" unicode="&#x42b;" horiz-adv-x="784" 
d="M206 700v-254h124q112 0 167 -64q49 -58 49 -165q0 -112 -52.5 -164.5t-162.5 -52.5h-271v700h146zM206 310v-174h105q42 0 60.5 23t18.5 64q0 43 -17 63q-20 24 -66 24h-101zM574 700h146v-700h-146v700z" />
    <glyph glyph-name="Udieresis" unicode="&#xdc;" horiz-adv-x="569" 
d="M206 700v-254h124q123 0 176 -74q41 -58 41 -155q0 -113 -52 -165t-166 -52h-269v700h146zM206 310v-174h97q46 0 66.5 22t20.5 65q0 55 -28 74q-21 13 -71 13h-85z" />
    <glyph glyph-name="Udieresis" unicode="&#x42c;" horiz-adv-x="569" 
d="M206 700v-254h124q123 0 176 -74q41 -58 41 -155q0 -113 -52 -165t-166 -52h-269v700h146zM206 310v-174h97q46 0 66.5 22t20.5 65q0 55 -28 74q-21 13 -71 13h-85z" />
    <glyph glyph-name="Yacute" unicode="&#xdd;" horiz-adv-x="621" 
d="M180 467h-149q0 51 17 96q24 65 75 106q66 51 171 51q122 0 190 -55q107 -86 107 -306q0 -225 -101 -317q-70 -62 -187 -62q-159 0 -231 111q-47 73 -47 161h148q0 -80 43 -113q31 -23 85 -23q76 0 110 56q24 41 24 116h-214v128h214q0 99 -48 141q-32 27 -85 27
q-45 0 -72 -18q-41 -26 -50 -99z" />
    <glyph glyph-name="Yacute" unicode="&#x42d;" horiz-adv-x="621" 
d="M180 467h-149q0 51 17 96q24 65 75 106q66 51 171 51q122 0 190 -55q107 -86 107 -306q0 -225 -101 -317q-70 -62 -187 -62q-159 0 -231 111q-47 73 -47 161h148q0 -80 43 -113q31 -23 85 -23q76 0 110 56q24 41 24 116h-214v128h214q0 99 -48 141q-32 27 -85 27
q-45 0 -72 -18q-41 -26 -50 -99z" />
    <glyph glyph-name="Thorn" unicode="&#xde;" horiz-adv-x="888" 
d="M206 435h78q24 173 124 242q65 43 160 43q160 0 234 -123q56 -94 56 -247q0 -154 -55 -246q-73 -124 -235 -124q-62 0 -110 16q-76 25 -121 87q-57 80 -57 216h-74v-299h-146v700h146v-265zM568 116q57 0 89 38q45 56 45 196q0 141 -46 196q-32 38 -88 38q-57 0 -88 -37
q-45 -54 -45 -197q0 -141 44 -195q30 -39 89 -39z" />
    <glyph glyph-name="Thorn" unicode="&#x42e;" horiz-adv-x="888" 
d="M206 435h78q24 173 124 242q65 43 160 43q160 0 234 -123q56 -94 56 -247q0 -154 -55 -246q-73 -124 -235 -124q-62 0 -110 16q-76 25 -121 87q-57 80 -57 216h-74v-299h-146v700h146v-265zM568 116q57 0 89 38q45 56 45 196q0 141 -46 196q-32 38 -88 38q-57 0 -88 -37
q-45 -54 -45 -197q0 -141 44 -195q30 -39 89 -39z" />
    <glyph glyph-name="germandbls" unicode="&#xdf;" horiz-adv-x="582" 
d="M372 242h-57l-110 -242h-169l137 256q-63 9 -103 55q-50 58 -50 164q0 126 69 183q51 42 138 42h291v-700h-146v242zM372 564h-111q-40 0 -60 -19q-25 -23 -25 -72q0 -50 23 -73q25 -22 68 -22h105v186z" />
    <glyph glyph-name="germandbls" unicode="&#x42f;" horiz-adv-x="582" 
d="M372 242h-57l-110 -242h-169l137 256q-63 9 -103 55q-50 58 -50 164q0 126 69 183q51 42 138 42h291v-700h-146v242zM372 564h-111q-40 0 -60 -19q-25 -23 -25 -72q0 -50 23 -73q25 -22 68 -22h105v186z" />
    <glyph glyph-name="agrave" unicode="&#xe0;" horiz-adv-x="486" 
d="M181 344h-130q0 69 36 117q51 66 162 66q124 0 169 -73q25 -42 25 -117l-3 -232q0 -56 5.5 -75t18.5 -23v-7h-137l-5 50h-4q-21 -33 -58.5 -51t-78.5 -18q-81 0 -120 49q-29 38 -29 98q0 80 55 122q41 29 128 41l60 9q32 9 32 44v14q0 26 -8 41q-14 26 -50 26
q-25 0 -42 -12q-26 -20 -26 -69zM308 210v25l-20 -7l-24 -7l-37 -8q-20 -3 -34 -15q-22 -19 -22 -56q0 -33 18 -48q14 -11 37 -11q24 0 47 22q35 35 35 105z" />
    <glyph glyph-name="agrave" unicode="&#x430;" horiz-adv-x="486" 
d="M181 344h-130q0 69 36 117q51 66 162 66q124 0 169 -73q25 -42 25 -117l-3 -232q0 -56 5.5 -75t18.5 -23v-7h-137l-5 50h-4q-21 -33 -58.5 -51t-78.5 -18q-81 0 -120 49q-29 38 -29 98q0 80 55 122q41 29 128 41l60 9q32 9 32 44v14q0 26 -8 41q-14 26 -50 26
q-25 0 -42 -12q-26 -20 -26 -69zM308 210v25l-20 -7l-24 -7l-37 -8q-20 -3 -34 -15q-22 -19 -22 -56q0 -33 18 -48q14 -11 37 -11q24 0 47 22q35 35 35 105z" />
    <glyph glyph-name="aacute" unicode="&#xe1;" horiz-adv-x="516" 
d="M364 747h103q0 -111 -109 -136l-119 -25q-52 -17 -81 -56q-43 -57 -43 -157h4q12 62 47 101q45 53 122 53q102 0 157 -86q47 -76 47 -187q0 -167 -92 -234q-54 -39 -128 -39q-99 0 -155 57q-82 87 -82 309q0 174 54 263q39 62 111 85q20 7 46 12t57 8q57 6 61 32z
M178 244q0 -69 15 -108q21 -53 72 -53q87 0 87 161q0 74 -15 119q-21 62 -72 62q-39 0 -61 -37q-26 -46 -26 -144z" />
    <glyph glyph-name="aacute" unicode="&#x431;" horiz-adv-x="516" 
d="M364 747h103q0 -111 -109 -136l-119 -25q-52 -17 -81 -56q-43 -57 -43 -157h4q12 62 47 101q45 53 122 53q102 0 157 -86q47 -76 47 -187q0 -167 -92 -234q-54 -39 -128 -39q-99 0 -155 57q-82 87 -82 309q0 174 54 263q39 62 111 85q20 7 46 12t57 8q57 6 61 32z
M178 244q0 -69 15 -108q21 -53 72 -53q87 0 87 161q0 74 -15 119q-21 62 -72 62q-39 0 -61 -37q-26 -46 -26 -144z" />
    <glyph glyph-name="acircumflex" unicode="&#xe2;" horiz-adv-x="471" 
d="M46 508h229q98 0 132 -34q29 -29 29 -89q0 -41 -19 -70q-24 -36 -73 -48v-5q59 -12 86 -51q20 -31 20 -81q0 -62 -40 -96t-135 -34h-229v508zM182 406v-97h56q29 0 44 11t15 38t-15 38q-17 10 -42 10h-58zM182 214v-112h59q38 0 54.5 12.5t16.5 39.5q0 32 -17.5 46
t-55.5 14h-57z" />
    <glyph glyph-name="acircumflex" unicode="&#x432;" horiz-adv-x="471" 
d="M46 508h229q98 0 132 -34q29 -29 29 -89q0 -41 -19 -70q-24 -36 -73 -48v-5q59 -12 86 -51q20 -31 20 -81q0 -62 -40 -96t-135 -34h-229v508zM182 406v-97h56q29 0 44 11t15 38t-15 38q-17 10 -42 10h-58zM182 214v-112h59q38 0 54.5 12.5t16.5 39.5q0 32 -17.5 46
t-55.5 14h-57z" />
    <glyph glyph-name="atilde" unicode="&#xe3;" horiz-adv-x="369" 
d="M182 406v-406h-136v508h324v-102h-188z" />
    <glyph glyph-name="atilde" unicode="&#x433;" horiz-adv-x="369" 
d="M182 406v-406h-136v508h324v-102h-188z" />
    <glyph glyph-name="adieresis" unicode="&#xe4;" horiz-adv-x="526" 
d="M-15 102h54q35 63 52 162q5 31 8 70t3 80v94h362v-406h67l-6 -234h-118v132h-298v-132h-118zM328 406h-100l-1 -53q0 -44 -4 -85t-14 -83.5t-31 -82.5h150v304z" />
    <glyph glyph-name="adieresis" unicode="&#x434;" horiz-adv-x="526" 
d="M-15 102h54q35 63 52 162q5 31 8 70t3 80v94h362v-406h67l-6 -234h-118v132h-298v-132h-118zM328 406h-100l-1 -53q0 -44 -4 -85t-14 -83.5t-31 -82.5h150v304z" />
    <glyph glyph-name="aring" unicode="&#xe5;" horiz-adv-x="498" 
d="M329 147h136q-23 -102 -94 -141q-47 -25 -124 -25q-90 0 -143 43q-82 67 -82 231q0 126 63 199t172 73q89 0 142 -49q75 -69 75 -233v-28h-312q0 -80 31 -112q22 -22 60 -22q31 0 45 10q20 13 31 54zM162 302h172q0 73 -23 100q-18 23 -58 23q-49 0 -74 -47
q-17 -34 -17 -76z" />
    <glyph glyph-name="aring" unicode="&#x435;" horiz-adv-x="498" 
d="M329 147h136q-23 -102 -94 -141q-47 -25 -124 -25q-90 0 -143 43q-82 67 -82 231q0 126 63 199t172 73q89 0 142 -49q75 -69 75 -233v-28h-312q0 -80 31 -112q22 -22 60 -22q31 0 45 10q20 13 31 54zM162 302h172q0 73 -23 100q-18 23 -58 23q-49 0 -74 -47
q-17 -34 -17 -76z" />
    <glyph glyph-name="ae" unicode="&#xe6;" horiz-adv-x="602" 
d="M233 0v223l-105 -223h-153l165 267l-155 241h146l99 -207l3 207h136v-207l102 207h145l-154 -241l165 -267h-153l-102 223l-3 -223h-136z" />
    <glyph glyph-name="ae" unicode="&#x436;" horiz-adv-x="602" 
d="M233 0v223l-105 -223h-153l165 267l-155 241h146l99 -207l3 207h136v-207l102 207h145l-154 -241l165 -267h-153l-102 223l-3 -223h-136z" />
    <glyph glyph-name="ccedilla" unicode="&#xe7;" horiz-adv-x="451" 
d="M7 170h129q0 -33 13 -55q20 -32 65 -32q44 0 63 22q14 17 14 43q0 30 -8.5 42t-22.5 18t-35 6h-54v95h57q55 0 55 54q0 33 -17.5 47.5t-53.5 14.5q-31 0 -48.5 -21.5t-17.5 -58.5h-126q0 79 36 123q48 59 165 59q119 0 169 -56q32 -37 32 -91q0 -51 -31 -81
q-22 -20 -58 -28v-6q39 -6 63 -30q34 -34 34 -94q0 -93 -70 -132q-53 -28 -141 -28t-138 31q-74 45 -74 158z" />
    <glyph glyph-name="ccedilla" unicode="&#x437;" horiz-adv-x="451" 
d="M7 170h129q0 -33 13 -55q20 -32 65 -32q44 0 63 22q14 17 14 43q0 30 -8.5 42t-22.5 18t-35 6h-54v95h57q55 0 55 54q0 33 -17.5 47.5t-53.5 14.5q-31 0 -48.5 -21.5t-17.5 -58.5h-126q0 79 36 123q48 59 165 59q119 0 169 -56q32 -37 32 -91q0 -51 -31 -81
q-22 -20 -58 -28v-6q39 -6 63 -30q34 -34 34 -94q0 -93 -70 -132q-53 -28 -141 -28t-138 31q-74 45 -74 158z" />
    <glyph glyph-name="egrave" unicode="&#xe8;" horiz-adv-x="527" 
d="M182 204l153 304h142v-508h-136v304l-152 -304h-143v508h136v-304z" />
    <glyph glyph-name="egrave" unicode="&#x438;" horiz-adv-x="527" 
d="M182 204l153 304h142v-508h-136v304l-152 -304h-143v508h136v-304z" />
    <glyph glyph-name="eacute" unicode="&#xe9;" horiz-adv-x="527" 
d="M182 204l153 304h142v-508h-136v304l-152 -304h-143v508h136v-304zM96 700h103q0 -33 20 -52q17 -15 43 -15q31 0 46.5 18.5t15.5 48.5h103q0 -50 -33 -88q-44 -50 -132 -50q-89 0 -133 50q-33 38 -33 88z" />
    <glyph glyph-name="eacute" unicode="&#x439;" horiz-adv-x="527" 
d="M182 204l153 304h142v-508h-136v304l-152 -304h-143v508h136v-304zM96 700h103q0 -33 20 -52q17 -15 43 -15q31 0 46.5 18.5t15.5 48.5h103q0 -50 -33 -88q-44 -50 -132 -50q-89 0 -133 50q-33 38 -33 88z" />
    <glyph glyph-name="ecircumflex" unicode="&#xea;" horiz-adv-x="431" 
d="M186 304l116 204h146l-167 -238l175 -270h-154l-116 222h-4v-222h-136v508h136v-204h4z" />
    <glyph glyph-name="ecircumflex" unicode="&#x43a;" horiz-adv-x="431" 
d="M186 304l116 204h146l-167 -238l175 -270h-154l-116 222h-4v-222h-136v508h136v-204h4z" />
    <glyph glyph-name="edieresis" unicode="&#xeb;" horiz-adv-x="505" 
d="M-2 -1v106l27 -4q33 0 50 39q16 42 16 151l4 217h360v-508h-135v406h-95l-2 -114q0 -174 -36.5 -237t-134.5 -63l-23 2q-4 0 -12.5 1t-18.5 4z" />
    <glyph glyph-name="edieresis" unicode="&#x43b;" horiz-adv-x="505" 
d="M-2 -1v106l27 -4q33 0 50 39q16 42 16 151l4 217h360v-508h-135v406h-95l-2 -114q0 -174 -36.5 -237t-134.5 -63l-23 2q-4 0 -12.5 1t-18.5 4z" />
    <glyph glyph-name="igrave" unicode="&#xec;" horiz-adv-x="655" 
d="M278 0l-96 310v-26v-284h-136v508h175l103 -347l106 347h175v-508h-136v284l3 26l-100 -310h-94z" />
    <glyph glyph-name="igrave" unicode="&#x43c;" horiz-adv-x="655" 
d="M278 0l-96 310v-26v-284h-136v508h175l103 -347l106 347h175v-508h-136v284l3 26l-100 -310h-94z" />
    <glyph glyph-name="iacute" unicode="&#xed;" horiz-adv-x="500" 
d="M182 215v-215h-136v508h136v-191h132v191h136v-508h-136v215h-132z" />
    <glyph glyph-name="iacute" unicode="&#x43d;" horiz-adv-x="500" 
d="M182 215v-215h-136v508h136v-191h132v191h136v-508h-136v215h-132z" />
    <glyph glyph-name="icircumflex" unicode="&#xee;" horiz-adv-x="505" 
d="M251 -19q-115 0 -174 77q-55 72 -55 197q0 124 54 195q59 77 175 77q115 0 174 -77q56 -73 56 -195q0 -126 -55 -197q-59 -77 -175 -77zM251 83q44 0 67 39q22 41 22 133q0 96 -25 137q-20 33 -64 33q-39 0 -60 -30q-29 -41 -29 -140q0 -101 29 -142q21 -30 60 -30z" />
    <glyph glyph-name="icircumflex" unicode="&#x43e;" horiz-adv-x="505" 
d="M251 -19q-115 0 -174 77q-55 72 -55 197q0 124 54 195q59 77 175 77q115 0 174 -77q56 -73 56 -195q0 -126 -55 -197q-59 -77 -175 -77zM251 83q44 0 67 39q22 41 22 133q0 96 -25 137q-20 33 -64 33q-39 0 -60 -30q-29 -41 -29 -140q0 -101 29 -142q21 -30 60 -30z" />
    <glyph glyph-name="idieresis" unicode="&#xef;" horiz-adv-x="509" 
d="M182 406v-406h-136v508h413v-508h-135v406h-142z" />
    <glyph glyph-name="idieresis" unicode="&#x43f;" horiz-adv-x="509" 
d="M182 406v-406h-136v508h413v-508h-135v406h-142z" />
    <glyph glyph-name="eth" unicode="&#xf0;" horiz-adv-x="516" 
d="M46 508h128v-61q13 32 37 53q33 27 89 27q91 0 141.5 -75.5t50.5 -198.5q0 -136 -57 -208q-52 -64 -137 -64q-37 0 -65 12t-51 37v-215h-136v693zM176 255q0 -66 15 -110q21 -62 73 -62q49 0 72 57q8 23 12 49.5t4 65.5q0 94 -30 138q-23 32 -58 32q-36 0 -58 -31
q-30 -42 -30 -139z" />
    <glyph glyph-name="eth" unicode="&#x440;" horiz-adv-x="516" 
d="M46 508h128v-61q13 32 37 53q33 27 89 27q91 0 141.5 -75.5t50.5 -198.5q0 -136 -57 -208q-52 -64 -137 -64q-37 0 -65 12t-51 37v-215h-136v693zM176 255q0 -66 15 -110q21 -62 73 -62q49 0 72 57q8 23 12 49.5t4 65.5q0 94 -30 138q-23 32 -58 32q-36 0 -58 -31
q-30 -42 -30 -139z" />
    <glyph glyph-name="ntilde" unicode="&#xf1;" horiz-adv-x="475" 
d="M320 192h134q0 -65 -33 -122q-54 -89 -175 -89q-108 0 -166 69t-58 203q0 162 84 230q56 44 147 44q75 0 122 -31q74 -48 74 -169h-130q0 28 -6 46.5t-17 30.5q-17 21 -48 21q-34 0 -55 -25q-31 -40 -31 -136q0 -101 25 -145q21 -36 60 -36q38 0 57 34q16 30 16 75z" />
    <glyph glyph-name="ntilde" unicode="&#x441;" horiz-adv-x="475" 
d="M320 192h134q0 -65 -33 -122q-54 -89 -175 -89q-108 0 -166 69t-58 203q0 162 84 230q56 44 147 44q75 0 122 -31q74 -48 74 -169h-130q0 28 -6 46.5t-17 30.5q-17 21 -48 21q-34 0 -55 -25q-31 -40 -31 -136q0 -101 25 -145q21 -36 60 -36q38 0 57 34q16 30 16 75z" />
    <glyph glyph-name="ograve" unicode="&#xf2;" horiz-adv-x="401" 
d="M132 406h-134v102h404v-102h-134v-406h-136v406z" />
    <glyph glyph-name="ograve" unicode="&#x442;" horiz-adv-x="401" 
d="M132 406h-134v102h404v-102h-134v-406h-136v406z" />
    <glyph glyph-name="oacute" unicode="&#xf3;" horiz-adv-x="431" 
d="M61 -184v106q18 -12 46 -12q24 0 38 23q6 10 15 48l6 25l-177 502h160l86 -324l67 324h144l-142 -535q-21 -80 -39 -108q-36 -59 -111 -59q-52 0 -93 10z" />
    <glyph glyph-name="oacute" unicode="&#x443;" horiz-adv-x="431" 
d="M61 -184v106q18 -12 46 -12q24 0 38 23q6 10 15 48l6 25l-177 502h160l86 -324l67 324h144l-142 -535q-21 -80 -39 -108q-36 -59 -111 -59q-52 0 -93 10z" />
    <glyph glyph-name="ocircumflex" unicode="&#xf4;" horiz-adv-x="690" 
d="M276 -185v171q-152 0 -214 101q-40 66 -40 171q0 146 90 214q65 48 164 48v180h136v-180q97 0 163 -48q91 -68 91 -215q0 -127 -59 -196q-65 -75 -195 -75v-171h-136zM280 88v330h-9q-47 0 -78 -41q-15 -21 -23 -49t-8 -66q0 -86 36 -133q32 -41 82 -41zM408 418v-330
q54 0 86 48t32 125q0 71 -28.5 114t-89.5 43z" />
    <glyph glyph-name="ocircumflex" unicode="&#x444;" horiz-adv-x="690" 
d="M276 -185v171q-152 0 -214 101q-40 66 -40 171q0 146 90 214q65 48 164 48v180h136v-180q97 0 163 -48q91 -68 91 -215q0 -127 -59 -196q-65 -75 -195 -75v-171h-136zM280 88v330h-9q-47 0 -78 -41q-15 -21 -23 -49t-8 -66q0 -86 36 -133q32 -41 82 -41zM408 418v-330
q54 0 86 48t32 125q0 71 -28.5 114t-89.5 43z" />
    <glyph glyph-name="otilde" unicode="&#xf5;" horiz-adv-x="427" 
d="M214 343l68 165h153l-144 -245l151 -263h-152l-77 173l-76 -173h-152l152 263l-145 245h153z" />
    <glyph glyph-name="otilde" unicode="&#x445;" horiz-adv-x="427" 
d="M214 343l68 165h153l-144 -245l151 -263h-152l-77 173l-76 -173h-152l152 263l-145 245h153z" />
    <glyph glyph-name="odieresis" unicode="&#xf6;" horiz-adv-x="517" 
d="M182 102h138v406h135v-406h67l-8 -234h-117v132h-351v508h136v-406z" />
    <glyph glyph-name="odieresis" unicode="&#x446;" horiz-adv-x="517" 
d="M182 102h138v406h135v-406h67l-8 -234h-117v132h-351v508h136v-406z" />
    <glyph glyph-name="divide" unicode="&#xf7;" horiz-adv-x="460" 
d="M25 508h136v-148q0 -49 18 -64q10 -8 39 -8h15l42 3v217h135v-508h-135v189l-83 -3q-102 0 -140 48q-27 36 -27 119v155z" />
    <glyph glyph-name="divide" unicode="&#x447;" horiz-adv-x="460" 
d="M25 508h136v-148q0 -49 18 -64q10 -8 39 -8h15l42 3v217h135v-508h-135v189l-83 -3q-102 0 -140 48q-27 36 -27 119v155z" />
    <glyph glyph-name="oslash" unicode="&#xf8;" horiz-adv-x="739" 
d="M182 102h118v406h135v-406h118v406h136v-508h-643v508h136v-406z" />
    <glyph glyph-name="oslash" unicode="&#x448;" horiz-adv-x="739" 
d="M182 102h118v406h135v-406h118v406h136v-508h-643v508h136v-406z" />
    <glyph glyph-name="ugrave" unicode="&#xf9;" horiz-adv-x="750" 
d="M182 102h118v406h135v-406h118v406h136v-406h66l-6 -234h-118v132h-585v508h136v-406z" />
    <glyph glyph-name="ugrave" unicode="&#x449;" horiz-adv-x="750" 
d="M182 102h118v406h135v-406h118v406h136v-406h66l-6 -234h-118v132h-585v508h136v-406z" />
    <glyph glyph-name="uacute" unicode="&#xfa;" horiz-adv-x="505" 
d="M-2 508h241v-180h70q72 0 109 -19q74 -39 74 -153q0 -80 -36.5 -118t-119.5 -38h-232v406h-106v102zM239 226v-124h48q33 0 49 12t16 47q0 39 -24 56q-15 9 -44 9h-45z" />
    <glyph glyph-name="uacute" unicode="&#x44a;" horiz-adv-x="505" 
d="M-2 508h241v-180h70q72 0 109 -19q74 -39 74 -153q0 -80 -36.5 -118t-119.5 -38h-232v406h-106v102zM239 226v-124h48q33 0 49 12t16 47q0 39 -24 56q-15 9 -44 9h-45z" />
    <glyph glyph-name="ucircumflex" unicode="&#xfb;" horiz-adv-x="649" 
d="M46 508h136v-180h69q92 0 137.5 -41.5t45.5 -130.5q0 -156 -155 -156h-233v508zM182 226v-124h48q30 0 44 10q19 14 19 49q0 40 -23 56q-14 9 -43 9h-45zM464 508h135v-508h-135v508z" />
    <glyph glyph-name="ucircumflex" unicode="&#x44b;" horiz-adv-x="649" 
d="M46 508h136v-180h69q92 0 137.5 -41.5t45.5 -130.5q0 -156 -155 -156h-233v508zM182 226v-124h48q30 0 44 10q19 14 19 49q0 40 -23 56q-14 9 -43 9h-45zM464 508h135v-508h-135v508z" />
    <glyph glyph-name="udieresis" unicode="&#xfc;" horiz-adv-x="447" 
d="M46 508h136v-180h69q82 0 122 -25q61 -40 61 -147q0 -73 -32 -111q-38 -45 -123 -45h-233v508zM182 226v-124h48q30 0 44 10q20 14 20 49q0 34 -14 49.5t-53 15.5h-45z" />
    <glyph glyph-name="udieresis" unicode="&#x44c;" horiz-adv-x="447" 
d="M46 508h136v-180h69q82 0 122 -25q61 -40 61 -147q0 -73 -32 -111q-38 -45 -123 -45h-233v508zM182 226v-124h48q30 0 44 10q20 14 20 49q0 34 -14 49.5t-53 15.5h-45z" />
    <glyph glyph-name="yacute" unicode="&#xfd;" horiz-adv-x="495" 
d="M189 206v102h141q0 58 -23 87.5t-61 29.5q-48 0 -71 -32q-18 -26 -18 -67h-134q0 76 42 130q56 71 175 71q87 0 140 -38q91 -67 91 -241q0 -66 -14 -114.5t-45 -84.5q-57 -68 -170 -68q-104 0 -163.5 54t-59.5 157h134q0 -67 35 -93q22 -16 54 -16q48 0 70 37
q18 30 18 86h-141z" />
    <glyph glyph-name="yacute" unicode="&#x44d;" horiz-adv-x="495" 
d="M189 206v102h141q0 58 -23 87.5t-61 29.5q-48 0 -71 -32q-18 -26 -18 -67h-134q0 76 42 130q56 71 175 71q87 0 140 -38q91 -67 91 -241q0 -66 -14 -114.5t-45 -84.5q-57 -68 -170 -68q-104 0 -163.5 54t-59.5 157h134q0 -67 35 -93q22 -16 54 -16q48 0 70 37
q18 30 18 86h-141z" />
    <glyph glyph-name="thorn" unicode="&#xfe;" horiz-adv-x="708" 
d="M182 317h47q9 83 52 135q60 75 173 75q115 0 174 -77q56 -73 56 -195q0 -126 -55 -197q-59 -77 -175 -77t-179 82q-48 65 -48 152h-45v-215h-136v508h136v-191zM454 83q44 0 67 39q22 41 22 133q0 96 -25 137q-20 33 -64 33q-39 0 -60 -30q-29 -41 -29 -140
q0 -101 29 -142q21 -30 60 -30z" />
    <glyph glyph-name="thorn" unicode="&#x44e;" horiz-adv-x="708" 
d="M182 317h47q9 83 52 135q60 75 173 75q115 0 174 -77q56 -73 56 -195q0 -126 -55 -197q-59 -77 -175 -77t-179 82q-48 65 -48 152h-45v-215h-136v508h136v-191zM454 83q44 0 67 39q22 41 22 133q0 96 -25 137q-20 33 -64 33q-39 0 -60 -30q-29 -41 -29 -140
q0 -101 29 -142q21 -30 60 -30z" />
    <glyph glyph-name="ydieresis" unicode="&#xff;" horiz-adv-x="474" 
d="M260 176l-81 -176h-150l106 184q-55 9 -84 52.5t-29 104.5q0 83 41 125t116 42h245v-508h-136v176h-28zM288 406h-57q-27 0 -44 -10q-25 -16 -25 -54q0 -34 17 -50q17 -14 50 -14h59v128z" />
    <glyph glyph-name="ydieresis" unicode="&#x44f;" horiz-adv-x="474" 
d="M260 176l-81 -176h-150l106 184q-55 9 -84 52.5t-29 104.5q0 83 41 125t116 42h245v-508h-136v176h-28zM288 406h-57q-27 0 -44 -10q-25 -16 -25 -54q0 -34 17 -50q17 -14 50 -14h59v128z" />
    <glyph glyph-name="OE" unicode="&#x152;" horiz-adv-x="905" 
d="M206 310v-310h-146v700h146v-254h189v254h146v-254h122q84 0 138 -36q82 -56 82 -193q0 -109 -53 -163t-167 -54h-268v310h-189zM541 310v-174h95q41 0 59 11q31 19 31 76q0 46 -21.5 66.5t-72.5 20.5h-91z" />
    <glyph glyph-name="oe" unicode="&#x153;" horiz-adv-x="715" 
d="M182 220v-220h-136v508h136v-186h132v186h136v-185h69q80 0 118 -21q65 -36 65 -146q0 -65 -27 -104q-38 -52 -128 -52h-233v220h-132zM450 220v-118h47q33 0 49 12t16 47q0 38 -25 51q-16 8 -43 8h-44z" />
    <glyph glyph-name="Scaron" unicode="&#x160;" horiz-adv-x="965" 
d="M-2 1v136l30 -3q45 0 68 33q32 52 32 199l4 334h429v-254h123q83 0 137 -36q80 -56 80 -193q0 -109 -51.5 -163t-166.5 -54h-268v564h-144l-4 -244q0 -141 -32 -211q-51 -113 -188 -113q-10 0 -22.5 1t-26.5 4zM561 310v-174h106q45 0 65 30q12 20 12 57q0 43 -17 65
t-64 22h-102z" />
    <glyph glyph-name="scaron" unicode="&#x161;" horiz-adv-x="719" 
d="M-2 -1v106l27 -5q49 0 61 90q5 45 5 101l4 217h360v-185h69q75 0 114 -21q68 -38 68 -146q0 -91 -54 -130q-37 -26 -101 -26h-231v407h-95l-2 -115q0 -137 -21 -199q-35 -102 -138 -102h-15q-9 0 -19 2q-9 0 -32 6zM455 221v-119h48q31 0 47 13t16 46q0 60 -67 60h-44z
" />
    <glyph glyph-name="Ydieresis" unicode="&#x178;" horiz-adv-x="510" 
d="M324 102v406h136v-508h-139v-185h-136v185h-139v508h136v-406h142z" />
    <glyph glyph-name="florin" unicode="&#x192;" horiz-adv-x="369" 
d="M182 406v-406h-136v508h324v-102h-188z" />
    <glyph glyph-name="endash" unicode="&#x2013;" horiz-adv-x="645" 
d="M38 390h566v-80h-566v80z" />
    <glyph glyph-name="emdash" unicode="&#x2014;" horiz-adv-x="727" 
d="M38 225v85h648v-85h-648z" />
    <glyph glyph-name="quoteleft" unicode="&#x2018;" 
d="M237 542v-158h-146v158q0 89 35.5 134t110.5 45v-80q-35 0 -55 -33q-14 -26 -14 -61v-5h69z" />
    <glyph glyph-name="quoteright" unicode="&#x2019;" 
d="M91 542v158h146v-158q0 -71 -18 -109q-33 -70 -128 -70v80q35 0 55 33q14 26 14 60v6h-69z" />
    <glyph glyph-name="quotesinglbase" unicode="&#x201a;" 
d="M91 0v158h146v-158q0 -43 -7 -70q-27 -107 -139 -107v79q39 0 57 36q12 24 12 56v6h-69z" />
    <glyph glyph-name="quotedblleft" unicode="&#x201c;" horiz-adv-x="464" 
d="M395 542v-158h-146v158q0 67 19 106q35 73 127 73v-80q-35 0 -51.5 -26.5t-16.5 -67.5v-5h68zM210 542v-158h-146v158q0 179 146 179v-80q-35 0 -55 -33q-14 -26 -14 -61v-5h69z" />
    <glyph glyph-name="quotedblright" unicode="&#x201d;" horiz-adv-x="464" 
d="M64 542v158h146v-158q0 -92 -36.5 -135.5t-109.5 -43.5v80q35 0 55 33q14 26 14 60v6h-69zM249 542v158h146v-158q0 -92 -36.5 -135.5t-109.5 -43.5v80q35 0 55 33q14 26 14 60v6h-69z" />
    <glyph glyph-name="quotedblbase" unicode="&#x201e;" horiz-adv-x="464" 
d="M64 0v158h146v-158q0 -84 -36.5 -130.5t-109.5 -46.5v79q39 0 57 36q12 24 12 56v6h-69zM249 0v158h146v-158q0 -83 -35 -128q-38 -49 -111 -49v79q39 0 57 36q12 24 12 56v6h-69z" />
    <glyph glyph-name="dagger" unicode="&#x2020;" horiz-adv-x="449" 
d="M153 700h141v-192h143v-132h-143v-561h-141v561h-143v132h143v192z" />
    <glyph glyph-name="daggerdbl" unicode="&#x2021;" horiz-adv-x="478" 
d="M465 170v-142q-27 -29 -68 -42q-27 -9 -55 -9q-20 0 -35.5 4t-21.5 6t-19 9l-44 25q-27 15 -49 15q-20 0 -39.5 -11.5t-38.5 -30.5l-74 110q37 30 58 68t21 71v15q0 9 -2 15q0 8 -5 18h-82v79h53q-18 32 -24.5 61.5t-6.5 61.5q0 88 38 145q55 82 176 82q94 0 141 -38
q77 -60 77 -224h-135l1 18v14q0 51 -20 80q-18 29 -58 29q-33 0 -54 -21q-25 -28 -25 -87q0 -18 1 -27t6.5 -32t26.5 -62h108v-79h-92l2 -30q0 -37 -9.5 -60.5t-30.5 -43.5l26 5l20 1q20 0 41 -6l34 -15l36 -15q11 -3 26 -3q25 0 42 8q27 11 54 38z" />
    <glyph glyph-name="bullet" unicode="&#x2022;" horiz-adv-x="685" 
d="M236 350q0 41 29 70t70 29t70 -27.5t29 -71.5q0 -41 -29 -70t-70 -29t-70 29t-29 70z" />
    <glyph glyph-name="ellipsis" unicode="&#x2026;" horiz-adv-x="936" 
d="M91 0v158h146v-158h-146zM392 0v158h146v-158h-146zM693 0v158h146v-158h-146z" />
    <glyph glyph-name="perthousand" unicode="&#x2030;" horiz-adv-x="1127" 
d="M158 0l357 700h95l-357 -700h-95zM38 513q0 94 42 147t111 53q54 0 96 -36q59 -51 59 -164q0 -107 -53 -159q-41 -41 -102 -41q-54 0 -95 37q-58 53 -58 163zM136 513q0 -60 15.5 -90.5t39.5 -30.5t40 29q8 15 12 36.5t4 55.5q0 57 -15.5 89t-40.5 32q-20 0 -35 -22
q-20 -31 -20 -99zM422 187q0 94 42 147t111 53q54 0 96 -36q59 -51 59 -164q0 -107 -53 -159q-41 -41 -102 -41q-54 0 -95 37q-58 53 -58 163zM520 187q0 -60 15.5 -90.5t39.5 -30.5t40 29q8 15 12 36.5t4 55.5q0 57 -15.5 89t-40.5 32q-20 0 -35 -22q-20 -31 -20 -99z
M778 187q0 94 42 147t111 53q54 0 96 -36q59 -51 59 -164q0 -107 -53 -159q-41 -41 -102 -41q-54 0 -95 37q-58 53 -58 163zM876 187q0 -60 15.5 -90.5t39.5 -30.5t40 29q8 15 12 36.5t4 55.5q0 57 -15.5 89t-40.5 32q-20 0 -35 -22q-20 -31 -20 -99z" />
    <glyph glyph-name="guilsinglleft" unicode="&#x2039;" horiz-adv-x="235" 
d="M42 336l134 153v-150l-68 -71l68 -72v-150l-134 152v138z" />
    <glyph glyph-name="guilsinglright" unicode="&#x203a;" horiz-adv-x="234" 
d="M189 336v-138l-134 -152v148l67 72l-67 72v151z" />
    <glyph glyph-name="trademark" unicode="&#x2122;" horiz-adv-x="752" 
d="M92 618h-87v82h278v-82h-87v-268h-104v268zM484 350l-53 199l-3 -1l6 -56v-142h-103v350h134l49 -190l4 -21h5l3 22l50 189h135v-350h-103v142l6 56l-57 -198h-73z" />
  </font>
</defs>
</svg>
